
<svg width="32" height="32" viewBox="0 0 32 32" fill="none" xmlns="http://www.w3.org/2000/svg">
<circle cx="16" cy="16" r="15.5" stroke="white"/>
<g clip-path="url(#clip0_1702_114)">
<path d="M15.9995 8C17.3931 8 18.457 8.15513 19.457 8.56575C21.8612 9.55126 22.6697 11.6865 21.4144 13.7032C20.8612 14.5974 20.0527 15.3001 19.1485 15.9206C18.9038 16.0939 18.6591 16.2673 18.4251 16.4589C17.8506 16.9243 17.5527 17.5083 17.5208 18.1927C17.5102 18.4117 17.5208 18.6216 17.5102 18.8406C17.4995 19.3881 17.2123 19.6983 16.5846 19.7896C16.2655 19.8352 15.9251 19.8535 15.5953 19.8261C14.8931 19.7805 14.5634 19.5067 14.4889 18.9045C14.2974 17.2254 14.7868 15.7654 16.4038 14.6887C16.8719 14.3784 17.34 14.0499 17.7761 13.7032C18.2655 13.3108 18.5953 12.8454 18.6165 12.2432C18.6378 11.6409 18.3293 11.1938 17.7017 10.9109C16.3293 10.2813 14.6485 10.6371 13.7548 11.723C13.191 12.4257 12.6591 12.5717 11.8719 12.2614C11.1485 11.9694 10.8293 11.3306 11.0846 10.5824C11.4676 9.50564 12.3825 8.86688 13.5314 8.438C14.4144 8.1095 15.34 8 15.9995 8Z" fill="white"/>
<path d="M18.0002 23.23C18.0002 24.1881 17.0534 24.9911 15.947 24.9911C14.8194 24.9911 13.9045 24.1699 13.9151 23.1844C13.9258 22.208 14.8513 21.4324 15.979 21.4415C17.096 21.4506 18.0109 22.2536 18.0002 23.23Z" fill="white"/>
</g>
<defs>
<clipPath id="clip0_1702_114">
<rect width="11" height="17" fill="white" transform="translate(11 8)"/>
</clipPath>
</defs>
</svg>
