
<svg width="14" height="14" viewBox="0 0 14 14" fill="none" xmlns="http://www.w3.org/2000/svg">
<circle cx="7" cy="7" r="7" fill="#CC3232"/>
<path d="M6.00267 4.25036C6.02132 4.03341 6.01599 3.80852 6.06664 3.59686C6.22123 2.98304 6.87428 2.90367 7.24745 3.08622C7.39938 3.16031 7.48467 3.29524 7.53532 3.45134C7.63661 3.75825 7.65526 4.07574 7.63127 4.39323C7.5753 5.13934 7.50866 5.88544 7.44203 6.63155C7.41537 6.91993 7.38339 7.21097 7.34607 7.49671C7.33274 7.5946 7.30076 7.69514 7.26077 7.78774C7.17281 8.00205 7.00222 8.11317 6.78632 8.10523C6.56242 8.0973 6.39716 7.98882 6.33585 7.76129C6.27188 7.52052 6.2239 7.27182 6.20258 7.02312C6.13327 6.09975 6.0773 5.17638 6.01866 4.25301H6L6.00267 4.25036Z" fill="white"/>
<path d="M6.81032 10.5875C6.33587 10.5848 5.99735 10.2515 6.00002 9.7911C6.00268 9.34661 6.35986 8.99737 6.81032 9.00001C7.26345 9.00001 7.62596 9.35984 7.62329 9.80697C7.62063 10.2594 7.27412 10.5928 6.81299 10.5901L6.81032 10.5875Z" fill="white"/>
</svg>
