<svg width="19" height="28" viewBox="0 0 19 28" fill="none" xmlns="http://www.w3.org/2000/svg">
<g clip-path="url(#clip0_1976_9311)">
<g opacity="0.9">
<path fill-rule="evenodd" clip-rule="evenodd" d="M9.47328 27.9441C9.47328 27.9441 0 23.1678 0 11.0237C0 -1.1204 0 0.0276864 0 0.0276864H18.9412V11.0237C18.9412 23.1678 9.4679 27.9441 9.4679 27.9441H9.47328Z" fill="#275B32"/>
</g>
<path d="M18.9416 1.81128H0.0166016V2.41319H18.9416V1.81128Z" fill="#68C41D"/>
<path d="M18.9416 5.21655H0.0166016V6.21416H18.9416V5.21655Z" fill="#68C41D"/>
<path d="M18.9416 8.41553H0.0166016V9.70852H18.9416V8.41553Z" fill="#68C41D"/>
<path fill-rule="evenodd" clip-rule="evenodd" d="M0.0166016 11.7428H18.9416L18.7692 13.4928L0.167484 13.5207L0.0219902 11.7428H0.0166016Z" fill="#68C41D"/>
<path fill-rule="evenodd" clip-rule="evenodd" d="M0.323748 14.9195L18.586 14.8972L18.101 17.0708L0.894947 17.0875L0.318359 14.9251L0.323748 14.9195Z" fill="#68C41D"/>
<path fill-rule="evenodd" clip-rule="evenodd" d="M1.16992 17.957L17.7886 17.9793L16.5492 20.6879L2.39315 20.7046L1.17531 17.957H1.16992Z" fill="#68C41D"/>
<path fill-rule="evenodd" clip-rule="evenodd" d="M2.75391 21.3121L16.1771 21.2731C16.1771 21.2731 15.5089 22.3376 15.191 22.7723C14.8622 23.2293 14.0162 24.2436 14.0162 24.2436L4.93093 24.2325C4.93093 24.2325 4.06335 23.2516 3.74003 22.8113C3.4221 22.3766 2.75391 21.3121 2.75391 21.3121Z" fill="#68C41D"/>
<path fill-rule="evenodd" clip-rule="evenodd" d="M5.24902 24.6003L13.7038 24.578C13.72 24.578 13.0249 25.3806 12.2866 25.9323C11.7963 26.3001 9.54379 28 9.54379 28C9.54379 28 7.45299 26.6178 6.89796 26.1497C6.4507 25.7707 5.24902 24.6059 5.24902 24.6059V24.6003Z" fill="#68C41D"/>
<path fill-rule="evenodd" clip-rule="evenodd" d="M8.99895 23.1847C8.99895 23.1847 9.69948 22.0756 9.92041 21.5573C10.1306 21.0668 10.3515 20.3758 10.4485 19.8463C10.5671 19.211 10.6533 18.336 10.5832 17.6895C10.5132 17.0095 10.2222 16.1289 9.97969 15.488C9.52165 14.3065 8.53014 12.9132 8.07749 11.7317C7.61945 10.539 7.10753 8.89487 6.94587 7.62417C6.8812 7.09471 6.89198 6.37019 6.9782 5.8463C7.05364 5.36143 7.25841 4.72608 7.46318 4.28022C7.738 3.67831 8.21221 2.92592 8.62713 2.41318C8.91812 2.05649 9.35999 1.62735 9.73181 1.35984C10.1252 1.07003 10.6856 0.741206 11.1436 0.585155C11.5424 0.445823 12.5285 0.367798 12.5285 0.367798L11.2191 1.85028C11.2191 1.85028 10.5186 2.97608 10.3246 3.50554C10.1575 3.96254 10.0282 4.60347 9.99047 5.08834C9.93119 5.7627 9.93119 6.68786 10.0659 7.35108C10.206 8.02544 10.6209 8.86143 10.8958 9.49121C11.4292 10.695 12.4369 12.1552 12.8626 13.4036C13.1159 14.1393 13.2991 15.1703 13.3638 15.9506C13.4231 16.6584 13.4392 17.617 13.2991 18.3137C13.1913 18.832 12.9111 19.4952 12.6417 19.9522C12.313 20.5039 11.7633 21.1727 11.2945 21.6019C10.6802 22.1703 8.99895 23.1847 8.99895 23.1847Z" fill="white"/>
<path d="M9.04215 23.2571L8.93438 23.1401C8.93977 23.1289 9.63491 22.031 9.85045 21.5238C10.0714 21.0111 10.2815 20.3312 10.3732 19.8351C10.4809 19.2332 10.5779 18.3638 10.5079 17.7062C10.4324 16.9649 10.0983 16.023 9.90973 15.527C9.6834 14.9418 9.31697 14.2898 8.96132 13.66C8.60567 13.0246 8.23385 12.367 8.00214 11.7706C7.56027 10.6281 7.03218 8.94501 6.86513 7.64086C6.79508 7.10026 6.81124 6.37574 6.89746 5.83513C6.9729 5.36141 7.17228 4.72606 7.38783 4.24676C7.65726 3.65042 8.13147 2.89246 8.56256 2.363C8.85894 1.99516 9.31159 1.56602 9.67802 1.29293C10.0283 1.03656 10.6103 0.674303 11.1114 0.507106C11.5156 0.367775 12.4747 0.289749 12.5178 0.284176L12.7226 0.267456L11.2838 1.90599C11.23 1.99516 10.5833 3.04293 10.4001 3.53895C10.2492 3.95695 10.1145 4.58115 10.066 5.09946C10.0121 5.70137 10.0013 6.6544 10.1414 7.33991C10.2546 7.89166 10.5564 8.5493 10.8204 9.12892C10.8743 9.24596 10.9228 9.35743 10.9713 9.46332C11.1922 9.95934 11.4886 10.4944 11.8012 11.0573C12.2376 11.8375 12.6849 12.6456 12.9382 13.3813C13.2022 14.1616 13.3854 15.2316 13.4447 15.945C13.4824 16.3853 13.5471 17.5055 13.38 18.3304C13.2615 18.8988 12.9597 19.5732 12.7118 19.9912C12.3939 20.5318 11.8443 21.2006 11.3485 21.6632C10.7342 22.2316 9.1122 23.2125 9.04215 23.2571ZM12.3239 0.473666C12.0167 0.507106 11.4401 0.573985 11.1653 0.66873C10.6857 0.835927 10.1145 1.18704 9.77501 1.43227C9.41397 1.69421 8.97749 2.1122 8.6865 2.47446C8.26618 2.99277 7.80276 3.73402 7.53332 4.31921C7.32317 4.78179 7.12917 5.40599 7.05373 5.863C6.9729 6.38131 6.95674 7.10026 7.02679 7.61857C7.18845 8.90599 7.71654 10.578 8.15302 11.7093C8.37935 12.2945 8.74577 12.9466 9.10143 13.5764C9.45708 14.2117 9.8289 14.8694 10.0606 15.4657C10.2546 15.9673 10.5941 16.9259 10.6695 17.6894C10.7396 18.3638 10.6426 19.2611 10.5294 19.8686C10.4378 20.3813 10.2223 21.0724 9.99595 21.5963C9.84506 21.953 9.47863 22.566 9.25231 22.9339C9.75884 22.6162 10.7881 21.953 11.2407 21.5405C11.7257 21.0891 12.2646 20.4315 12.5717 19.9076C12.8142 19.5007 13.1052 18.8431 13.2184 18.2969C13.3854 17.4888 13.3208 16.3964 13.283 15.9617C13.2238 15.2539 13.0459 14.2006 12.7873 13.437C12.5394 12.7181 12.0921 11.9155 11.661 11.1409C11.3431 10.5724 11.0467 10.0374 10.8204 9.53577C10.7719 9.42988 10.7234 9.31841 10.6695 9.20695C10.4001 8.62176 10.0983 7.95297 9.97978 7.37892C9.83429 6.67669 9.84506 5.73481 9.90434 5.08832C9.95284 4.55886 10.0876 3.91236 10.2438 3.48322C10.4378 2.94819 11.1168 1.85583 11.1437 1.81125L11.1545 1.8001L12.3239 0.473666Z" fill="black"/>
<path fill-rule="evenodd" clip-rule="evenodd" d="M9.05292 23.0119C9.05292 23.0119 8.93976 22.1146 8.88587 21.73C8.8266 21.312 8.81043 20.7435 8.68111 20.3423C8.51944 19.8463 8.1584 19.2332 7.86742 18.8041C7.54948 18.3359 6.98906 17.8287 6.64419 17.3829C6.22387 16.8423 5.65806 16.1178 5.33474 15.5103C5.0222 14.9139 4.73121 14.0445 4.53722 13.3924C4.41328 12.98 4.27856 12.4171 4.23545 11.9824C4.19234 11.5811 4.20312 11.0405 4.24623 10.6392C4.29473 10.2101 4.4025 9.63606 4.54799 9.23479C4.6881 8.85581 4.96831 8.39323 5.18386 8.05326C5.35629 7.78017 5.60417 7.42906 5.81433 7.18941C6.1646 6.79371 6.67652 5.95215 6.67652 5.95215C6.67652 5.95215 6.59569 6.88288 6.53102 7.25629C6.46097 7.63527 6.46097 8.12014 6.45558 8.53814C6.4502 8.95613 6.65496 9.55804 6.73579 10.0039C6.80585 10.4052 6.97829 10.9235 7.12917 11.3025C7.46865 12.1329 8.11529 13.1416 8.50867 13.9442C8.86971 14.6799 9.36008 15.6607 9.64029 16.4354C9.81811 16.9259 10.0337 17.5947 10.1037 18.113C10.1792 18.6703 10.163 19.4283 10.0983 19.9856C10.0337 20.5206 9.86122 21.2173 9.6834 21.7189C9.5379 22.1201 9.05292 23.0007 9.05292 23.0007V23.0119Z" fill="#2DA7DE"/>
<path d="M8.99858 23.2682L8.96625 23.023C8.96625 23.0119 8.85309 22.1201 8.7992 21.7412C8.78303 21.613 8.76687 21.4736 8.7507 21.3232C8.71837 20.9832 8.68604 20.6376 8.59443 20.3646C8.39505 19.7626 7.93163 19.0493 7.79152 18.8486C7.61369 18.5923 7.36043 18.3136 7.10716 18.0461C6.90778 17.8343 6.71917 17.6281 6.56829 17.433L6.52518 17.3773C6.09948 16.8255 5.566 16.14 5.25346 15.5493C4.90319 14.8861 4.60143 13.9275 4.45054 13.4147C4.39127 13.2197 4.20266 12.5397 4.14339 11.9935C4.10567 11.6034 4.11106 11.0517 4.15417 10.6337C4.19728 10.2268 4.30505 9.63606 4.46132 9.21249C4.59604 8.84466 4.86547 8.40437 5.10796 8.01982C5.26962 7.76345 5.52289 7.39561 5.74921 7.14482C6.0887 6.76026 6.60062 5.92985 6.60601 5.9187L6.75689 5.96886C6.75689 6.00787 6.67606 6.91074 6.60601 7.28415C6.54674 7.6074 6.54135 7.99752 6.53057 8.3765C6.53057 8.43781 6.53057 8.49354 6.53057 8.55485C6.52518 8.82236 6.6114 9.16233 6.69223 9.49673C6.73534 9.67507 6.77845 9.84227 6.80539 9.99832C6.88622 10.433 7.06405 10.9569 7.19338 11.2802C7.39276 11.7706 7.7053 12.3279 8.00707 12.863C8.21722 13.2364 8.41122 13.5875 8.57288 13.9163L8.69143 14.156C9.03091 14.8526 9.45662 15.722 9.70989 16.4187C9.88232 16.898 10.1086 17.5835 10.1787 18.1185C10.2595 18.7205 10.2326 19.5007 10.1733 20.0134C10.1086 20.5429 9.9416 21.2451 9.753 21.769C9.6075 22.1759 9.1333 23.023 9.11713 23.062L8.99858 23.2738V23.2682ZM6.56829 6.29211C6.38508 6.57634 6.09948 6.99991 5.87854 7.25628C5.66299 7.5015 5.41512 7.85819 5.25346 8.10899C5.01635 8.48797 4.7577 8.91711 4.62298 9.2738C4.4721 9.68622 4.36971 10.2603 4.3266 10.656C4.27811 11.0684 4.27811 11.5978 4.31583 11.9824C4.36971 12.5119 4.55832 13.1806 4.6122 13.3757C4.76309 13.8829 5.05946 14.8248 5.40434 15.4768C5.71149 16.0564 6.26114 16.7642 6.6599 17.2826L6.70301 17.3383C6.8485 17.5278 7.03711 17.7284 7.2311 17.9402C7.48436 18.2133 7.74302 18.4919 7.92624 18.765C8.06634 18.9712 8.54593 19.7013 8.7507 20.3255C8.84231 20.6098 8.88003 20.972 8.91236 21.3176C8.92853 21.4625 8.93931 21.6018 8.95547 21.7244C8.99319 21.9808 9.05247 22.4601 9.09019 22.7555C9.24107 22.4712 9.49973 21.9752 9.59672 21.7077C9.77994 21.2005 9.94699 20.5095 10.0063 19.9912C10.0763 19.3892 10.0817 18.648 10.0117 18.1408C9.9416 17.6281 9.72605 16.9537 9.55362 16.48C9.30574 15.7945 8.88003 14.9306 8.54054 14.234L8.42199 13.9943C8.26572 13.6711 8.06634 13.32 7.86157 12.9521C7.55981 12.4115 7.24187 11.8486 7.04249 11.3526C6.90778 11.0238 6.72456 10.4832 6.64373 10.0373C6.61679 9.88685 6.57368 9.71966 6.53057 9.54689C6.44435 9.20134 6.35274 8.84466 6.36352 8.55485C6.36352 8.49911 6.36352 8.43781 6.36352 8.3765C6.36891 7.99195 6.37969 7.59068 6.43896 7.25628C6.48207 7.03335 6.52518 6.59864 6.55212 6.29768L6.56829 6.29211Z" fill="black"/>
<path fill-rule="evenodd" clip-rule="evenodd" d="M9.02096 23.1401C9.02096 23.1401 7.48519 22.6162 6.87627 22.2874C6.21885 21.9307 5.37283 21.3622 4.82319 20.8439C4.31126 20.359 3.70773 19.6122 3.35747 18.9936C3.04493 18.4474 2.71083 17.6504 2.59228 17.0262C2.46295 16.3518 2.49528 15.4155 2.5815 14.7356C2.64078 14.2563 2.79166 13.6265 2.97487 13.1862C3.16348 12.7348 3.81012 11.7874 3.81012 11.7874C3.81012 11.7874 3.68618 13.398 3.7724 14.078C3.85862 14.7579 4.07416 15.6608 4.37593 16.2738C4.65614 16.8367 5.20578 17.4832 5.65304 17.9235C6.01947 18.2858 6.6715 18.5644 7.01638 18.9434C7.50136 19.4784 7.95939 20.3534 8.26655 21.0111C8.55754 21.6241 9.02096 23.1456 9.02096 23.1456V23.1401Z" fill="#272F9A"/>
<path d="M9.14444 23.2738L8.99356 23.2236C8.92889 23.2013 7.44701 22.6942 6.83809 22.3653C6.26689 22.0588 5.38315 21.4903 4.76884 20.9107C4.22997 20.4036 3.63722 19.6512 3.28696 19.0437C2.99058 18.5254 2.63493 17.7117 2.51099 17.0485C2.37627 16.3462 2.41399 15.3932 2.49482 14.73C2.55949 14.2173 2.72115 13.5819 2.89358 13.1583C3.08219 12.7013 3.71266 11.7818 3.73422 11.7427L3.90665 11.4919L3.8851 11.7929C3.8851 11.8096 3.76116 13.4036 3.84738 14.0668C3.92282 14.6687 4.1222 15.5939 4.44013 16.2348C4.72034 16.7921 5.27538 17.4386 5.70108 17.8622C5.86813 18.0238 6.10523 18.1798 6.33156 18.3247C6.60099 18.4975 6.87581 18.6759 7.0698 18.8876C7.4524 19.3112 7.8781 20.0134 8.33614 20.9776C8.62713 21.5907 9.07978 23.062 9.09594 23.1233L9.14444 23.2794V23.2738ZM3.70727 12.0883C3.5025 12.4004 3.17379 12.9243 3.04986 13.2197C2.87742 13.6321 2.72115 14.2451 2.66187 14.7467C2.58104 15.3932 2.54332 16.3295 2.67265 17.0095C2.79659 17.6504 3.14146 18.4474 3.43245 18.9545C3.76655 19.5397 4.36469 20.2921 4.882 20.7825C5.48553 21.351 6.35311 21.9083 6.91353 22.2149C7.39851 22.4768 8.49241 22.8725 8.89656 23.0118C8.76724 22.605 8.42236 21.5294 8.19065 21.0501C7.74339 20.1026 7.32846 19.4171 6.95125 18.9991C6.77343 18.804 6.50938 18.6313 6.24534 18.4641C6.00824 18.3136 5.76575 18.1575 5.58792 17.9792C5.15144 17.5501 4.58563 16.8868 4.29464 16.3072C3.96593 15.6496 3.76116 14.7021 3.68572 14.0891C3.62105 13.5819 3.66955 12.5899 3.70188 12.0883H3.70727Z" fill="black"/>
<path fill-rule="evenodd" clip-rule="evenodd" d="M9.13867 23.2459C9.13867 23.2459 10.96 22.1592 11.6713 21.5963C12.1887 21.1894 12.8515 20.5987 13.2664 20.0748C13.7029 19.523 14.2471 18.726 14.4519 18.0461C14.6351 17.4219 14.6082 16.519 14.5597 15.867C14.5112 15.226 14.3441 14.3789 14.1394 13.7714C13.9615 13.2308 13.6059 12.562 13.3257 12.0716C13.0293 11.5477 12.5281 10.9235 12.2156 10.4108C11.8653 9.83671 11.375 9.07875 11.1109 8.45455C10.8954 7.93623 10.6583 7.20614 10.5882 6.64881C10.5289 6.18066 10.5559 5.53974 10.6421 5.07716C10.7283 4.59786 11.1702 3.53894 11.1702 3.53894C11.1702 3.53894 11.4881 4.81521 11.639 5.26107C11.8546 5.8797 12.194 6.69897 12.5335 7.2563C12.9431 7.93066 13.6652 8.68862 14.1609 9.29611C14.6998 9.95932 15.5566 10.7452 15.9877 11.492C16.2894 12.0103 16.5481 12.785 16.7044 13.3646C16.8067 13.7547 16.893 14.2953 16.9145 14.7022C16.9415 15.187 16.9145 15.8447 16.8445 16.3295C16.7744 16.7866 16.6235 17.3885 16.4403 17.8065C16.1439 18.4697 15.5943 19.2778 15.1255 19.824C14.5705 20.4705 13.7029 21.2229 13.0077 21.7077C12.512 22.0588 11.7899 22.4378 11.2295 22.6608C10.6259 22.906 9.14406 23.2459 9.14406 23.2459H9.13867Z" fill="#272F9A"/>
<path d="M9.15498 23.3295L9.0957 23.1735C9.11187 23.1623 10.9171 22.0867 11.6176 21.5294C12.2696 21.0111 12.8624 20.4482 13.1965 20.019C13.5414 19.5787 14.1503 18.7372 14.3658 18.0182C14.5059 17.5389 14.5436 16.8367 14.4682 15.8725C14.4197 15.2372 14.2527 14.4012 14.0533 13.7993C13.8755 13.2587 13.5144 12.5843 13.245 12.1106C13.0833 11.8263 12.857 11.5031 12.6361 11.191C12.4528 10.929 12.275 10.6838 12.1349 10.4497C12.0918 10.3829 12.0487 10.3104 12.0056 10.2435C11.6715 9.70851 11.2619 9.03972 11.0248 8.48239C10.8147 7.98637 10.5668 7.24513 10.4914 6.64879C10.4321 6.18621 10.4536 5.54529 10.5453 5.05484C10.6369 4.56997 11.0626 3.54449 11.0787 3.49991L11.1703 3.27698L11.2296 3.51663C11.2296 3.52777 11.5475 4.7929 11.6984 5.22761C11.8008 5.51742 12.1565 6.50389 12.5876 7.20612C12.8786 7.67984 13.3366 8.21488 13.7407 8.68303C13.9078 8.87809 14.0694 9.06201 14.2096 9.23478C14.3928 9.46328 14.6137 9.70293 14.8454 9.95373C15.2927 10.4386 15.7561 10.9402 16.0417 11.4362C16.4189 12.0827 16.6937 13.0525 16.7692 13.3311C16.8716 13.7157 16.9578 14.2619 16.9793 14.6854C17.0063 15.2093 16.9793 15.8725 16.9093 16.3295C16.8392 16.7587 16.6991 17.3773 16.4943 17.8287C16.171 18.5421 15.5944 19.3669 15.1687 19.863C14.6406 20.476 13.7838 21.2396 13.0402 21.7634C12.5606 22.1034 11.8385 22.488 11.2458 22.7276C10.6423 22.9728 9.20887 23.3017 9.14959 23.3184L9.15498 23.3295ZM11.1434 3.80086C11.0087 4.13526 10.7716 4.75946 10.7123 5.09386C10.6261 5.56201 10.6045 6.19736 10.6584 6.63765C10.7285 7.21169 10.971 7.93621 11.1757 8.42109C11.4021 8.96727 11.8116 9.62491 12.1403 10.1599C12.1834 10.2324 12.2265 10.2993 12.2696 10.3717C12.4097 10.6002 12.5822 10.8454 12.7654 11.1018C12.9863 11.4139 13.218 11.7427 13.3851 12.0326C13.6599 12.5119 14.0209 13.1974 14.2042 13.7491C14.4089 14.3622 14.5814 15.2149 14.6299 15.8614C14.7053 16.8478 14.6676 17.5724 14.5221 18.074C14.3012 18.8208 13.6761 19.6846 13.3204 20.1305C12.8247 20.7603 12.0325 21.4123 11.7146 21.6631C11.2296 22.0477 10.2273 22.6775 9.63457 23.0397C10.1196 22.9171 10.8201 22.7332 11.1919 22.5827C11.7739 22.3486 12.4852 21.9697 12.954 21.6353C13.6922 21.1169 14.5383 20.3646 15.0556 19.7626C15.4759 19.2722 16.0417 18.4641 16.3542 17.7674C16.5482 17.3327 16.6937 16.7141 16.753 16.3128C16.8231 15.8669 16.85 15.2205 16.8231 14.7077C16.8015 14.2953 16.7153 13.7603 16.6183 13.3869C16.5428 13.1082 16.2788 12.1607 15.907 11.531C15.6268 11.0517 15.1687 10.5556 14.7323 10.0763C14.4952 9.81997 14.2742 9.58032 14.0856 9.34625C13.9455 9.17347 13.7892 8.98956 13.6222 8.79449C13.2126 8.32077 12.7492 7.78016 12.4528 7.29529C12.0164 6.58191 11.6499 5.57316 11.5529 5.28335C11.4398 4.95453 11.2404 4.19099 11.138 3.79529L11.1434 3.80086Z" fill="black"/>
</g>
<defs>
<clipPath id="clip0_1976_9311">
<rect width="18.9412" height="28" fill="white"/>
</clipPath>
</defs>
</svg>
