<?xml version="1.0" encoding="UTF-8"?>
<svg width="210mm" height="37mm" version="1.1" viewBox="0 0 210 37" xml:space="preserve"
	xmlns="http://www.w3.org/2000/svg">
	<g fill="currentFill" color="currentColor">
		<g transform="matrix(.20586 0 0 .22372 -9.2857 5.0504)">
			<path
				d="m152.6 39.262c79.514-50.981 178.74-38.569 178.74-38.569s154.8 22.71 189 22.561c15.305-0.0635 45.935 58.12 125.01 17.021-11.465 38.222-893.21 85.027-492.76-1.0129z"
				fill="currentColor" />
		</g>
		<g transform="matrix(.15151 0 0 .15151 11.334 7.3883)">
			<path
				d="m-73.058 461.89s-2.1682-437.08 0-436.31c179.47 27.439 219.31 20.386 252.13 18.844 73.288-3.1957 398.3-37.797 398.3-37.797s221.53-21.929 404.22 13.995c182.88 35.924 330.31 5.5098 330.31 5.5098v435.76z"
				fill="currentFill" />
		</g>
	</g>
</svg>