<svg width="57" height="115" viewBox="0 0 57 115" fill="none" xmlns="http://www.w3.org/2000/svg">
<path fill-rule="evenodd" clip-rule="evenodd" d="M53.6992 7.36498C53.6992 4.64931 51.49 2.42083 48.7891 2.70296C22.9358 5.40342 2.71654 29.2085 2.71653 58.1755C2.71653 87.1426 22.9358 110.948 48.7891 113.648C51.49 113.93 53.6992 111.702 53.6992 108.986C53.6992 106.27 51.4867 104.102 48.7928 103.759C27.9165 101.103 11.7135 81.7075 11.7135 58.1755C11.7135 34.6435 27.9165 15.2481 48.7928 12.5922C51.4868 12.2494 53.6992 10.0806 53.6992 7.36498Z" fill="#D9D9D9"/>
<path fill-rule="evenodd" clip-rule="evenodd" d="M45.1821 108.12C45.4515 108.19 45.738 108.015 45.671 107.745C45.5847 107.398 45.3193 107.107 44.9529 107.008C43.2493 106.552 41.5814 106.006 39.9541 105.378C39.6008 105.241 39.2186 105.32 38.9482 105.55C38.7352 105.731 38.8671 106.042 39.1269 106.145C39.2828 106.207 39.439 106.268 39.5957 106.329C41.2558 106.97 42.9575 107.527 44.6955 107.992C44.8574 108.036 45.0196 108.079 45.1821 108.12ZM35.1473 104.358C35.3961 104.483 35.7129 104.372 35.703 104.094C35.6902 103.736 35.491 103.396 35.1534 103.222C33.5869 102.417 32.0678 101.53 30.6015 100.568C30.2848 100.36 29.8958 100.355 29.5843 100.522C29.3369 100.654 29.4012 100.987 29.6342 101.143C29.7738 101.237 29.914 101.33 30.0547 101.422C31.5504 102.403 33.1 103.308 34.698 104.13C34.8473 104.207 34.9971 104.283 35.1473 104.358ZM26.1094 98.5548C26.3269 98.7292 26.6604 98.6865 26.7075 98.4117C26.7678 98.0596 26.6428 97.6857 26.3488 97.4451C24.9852 96.3294 23.6807 95.1427 22.4405 93.8906C22.1739 93.6214 21.7954 93.5352 21.4571 93.6317C21.1866 93.7088 21.1805 94.0485 21.3764 94.2503C21.4939 94.3712 21.612 94.4916 21.7306 94.6114C22.9955 95.8885 24.3261 97.0989 25.7168 98.2368C25.8471 98.3435 25.978 98.4495 26.1094 98.5548ZM18.4578 90.9789C18.6348 91.1952 18.971 91.2224 19.073 90.9622C19.203 90.6308 19.1569 90.2399 18.919 89.9435C17.8155 88.5689 16.7818 87.1348 15.8231 85.6466C15.6179 85.3279 15.2663 85.1641 14.9164 85.1866C14.6351 85.2047 14.5582 85.5365 14.7085 85.775C14.7986 85.918 14.8895 86.0606 14.981 86.2026C15.9589 87.7207 17.0133 89.1835 18.1388 90.5856C18.2445 90.7172 18.3508 90.8484 18.4578 90.9789ZM12.5243 81.9609C12.6532 82.2099 12.9775 82.3066 13.1309 82.072C13.3249 81.7755 13.3596 81.3845 13.1882 81.0453C12.3935 79.4726 11.6777 77.8525 11.0458 76.1902C10.911 75.8357 10.6018 75.6013 10.2555 75.5488C9.97656 75.5064 9.83156 75.8152 9.92923 76.0799C9.98789 76.2389 10.0473 76.3975 10.1075 76.5558C10.7521 78.2517 11.4825 79.9046 12.2931 81.5089C12.3695 81.66 12.4465 81.8107 12.5243 81.9609ZM8.58239 71.8885C8.65695 72.1596 8.95476 72.3227 9.15407 72.1244C9.40409 71.8756 9.51826 71.5014 9.42111 71.1341C8.97131 69.4337 8.60661 67.698 8.33194 65.9318C8.27362 65.5568 8.02004 65.2621 7.69262 65.1371C7.42902 65.0365 7.22239 65.3078 7.26303 65.587C7.28748 65.755 7.31274 65.9227 7.33878 66.0901C7.61898 67.8918 7.99103 69.6627 8.44994 71.3975C8.49331 71.5615 8.53747 71.7252 8.58239 71.8885ZM6.81189 61.201C6.82896 61.4823 7.08678 61.7046 7.32348 61.5517C7.61865 61.3611 7.80692 61.0196 7.78756 60.6403C7.74258 59.7591 7.71981 58.8718 7.71981 57.9791C7.71981 57.0864 7.74258 56.1991 7.78756 55.3179C7.80692 54.9386 7.61865 54.5971 7.32349 54.4065C7.08678 54.2536 6.82896 54.4759 6.81189 54.7572C6.80162 54.9263 6.79216 55.0957 6.7835 55.2653C6.73763 56.1641 6.71441 57.0688 6.71441 57.9791C6.71441 58.8894 6.73763 59.7941 6.7835 60.6928C6.79216 60.8624 6.80162 61.0318 6.81189 61.201ZM7.26303 50.3712C7.22239 50.6504 7.42902 50.9217 7.69262 50.8211C8.02004 50.6961 8.27362 50.4014 8.33194 50.0264C8.60661 48.2602 8.97131 46.5245 9.42111 44.824C9.51827 44.4567 9.40409 44.0826 9.15407 43.8338C8.95476 43.6355 8.65696 43.7986 8.58239 44.0697C8.53747 44.233 8.49331 44.3967 8.44994 44.5607C7.99104 46.2955 7.61899 48.0663 7.33878 49.868C7.31274 50.0355 7.28748 50.2032 7.26303 50.3712ZM9.92923 39.8783C9.83156 40.143 9.97656 40.4517 10.2556 40.4094C10.6018 40.3569 10.911 40.1225 11.0458 39.768C11.6777 38.1057 12.3936 36.4856 13.1882 34.9129C13.3596 34.5737 13.3249 34.1827 13.1309 33.8862C12.9775 33.6516 12.6532 33.7483 12.5243 33.9973C12.4465 34.1475 12.3695 34.2982 12.2931 34.4493C11.4825 36.0536 10.7521 37.7065 10.1075 39.4024C10.0473 39.5606 9.98789 39.7193 9.92923 39.8783ZM14.7085 30.1832C14.5582 30.4217 14.6351 30.7535 14.9164 30.7716C15.2664 30.7941 15.6179 30.6302 15.8232 30.3116C16.7818 28.8234 17.8155 27.3893 18.919 26.0147C19.1569 25.7183 19.203 25.3274 19.073 24.996C18.971 24.7358 18.6349 24.763 18.4578 24.9792C18.3508 25.1098 18.2445 25.241 18.1388 25.3726C17.0133 26.7746 15.9589 28.2375 14.981 29.7555C14.8895 29.8976 14.7987 30.0402 14.7085 30.1832ZM21.3764 21.7079C21.1805 21.9097 21.1866 22.2494 21.4571 22.3265C21.7954 22.423 22.1739 22.3368 22.4406 22.0676C23.6807 20.8155 24.9852 19.6288 26.3488 18.5131C26.6428 18.2725 26.7678 17.8986 26.7075 17.5465C26.6604 17.2717 26.3269 17.2289 26.1094 17.4034C25.978 17.5087 25.8472 17.6147 25.7168 17.7213C24.3261 18.8593 22.9955 20.0697 21.7306 21.3468C21.612 21.4666 21.4939 21.5869 21.3764 21.7079ZM29.6342 14.8153C29.4012 14.9715 29.3369 15.304 29.5843 15.4362C29.8958 15.6028 30.2848 15.5984 30.6015 15.3906C32.0678 14.4282 33.5869 13.5415 35.1534 12.7357C35.491 12.5621 35.6902 12.2218 35.703 11.864C35.7129 11.5858 35.3961 11.475 35.1473 11.5999C34.9971 11.6753 34.8474 11.7513 34.698 11.8282C33.1 12.6502 31.5504 13.5547 30.0547 14.5364C29.914 14.6286 29.7739 14.7216 29.6342 14.8153ZM39.1269 9.81328C38.8671 9.91667 38.7352 10.2273 38.9482 10.4085C39.2186 10.6384 39.6008 10.717 39.9541 10.5805C41.5814 9.95175 43.2493 9.40644 44.9529 8.94975C45.3193 8.85151 45.5847 8.56063 45.671 8.21301C45.738 7.94301 45.4515 7.76851 45.1821 7.83785C45.0196 7.87968 44.8574 7.92229 44.6955 7.96569C42.9575 8.43162 41.2558 8.98797 39.5957 9.62945C39.439 9.68997 39.2828 9.75125 39.1269 9.81328Z" fill="#C3BBBB"/>
</svg>
