<svg width="9" height="13" viewBox="0 0 9 13" fill="none" xmlns="http://www.w3.org/2000/svg">
<path d="M8.03944 13H0.961528C0.917702 12.9865 0.873876 12.9661 0.83005 12.956C0.354223 12.8138 0.00361471 12.35 0.00361471 11.8117C0.00048428 9.89557 -0.00264615 7.97943 0.00361471 6.06328C0.00361471 5.48438 0.40431 4.9901 0.936484 4.8987C1.11805 4.86823 1.30588 4.875 1.50309 4.86484C1.50309 4.81745 1.50309 4.77005 1.50309 4.72604C1.50309 4.21484 1.49996 3.70365 1.50309 3.18906C1.51875 1.83151 2.34831 0.599219 3.54101 0.176042C3.7664 0.0947917 4.00744 0.0575521 4.24222 0C4.4144 0 4.58657 0 4.75875 0C4.81822 0.0101563 4.88083 0.0236979 4.94031 0.0338542C6.45231 0.304688 7.49788 1.63854 7.49788 3.30417C7.49788 3.78151 7.49788 4.25885 7.49788 4.73958C7.49788 4.78359 7.49788 4.8276 7.49788 4.87839C7.64501 4.87839 7.77335 4.87839 7.9017 4.87839C8.49961 4.89531 8.99109 5.41667 8.99422 6.06328C9.00048 7.97943 9.00048 9.89557 8.99422 11.8117C8.99422 12.3128 8.69057 12.7529 8.25544 12.9255C8.18344 12.9526 8.10831 12.9763 8.03631 13H8.03944ZM2.50796 4.86823H6.48361C6.48361 4.23177 6.48361 3.60208 6.48361 2.9724C6.48361 2.93854 6.47422 2.90469 6.46796 2.87083C6.30205 1.7401 5.25335 0.917448 4.21405 1.10365C3.19666 1.28646 2.50796 2.1599 2.5017 3.2737C2.5017 3.76458 2.5017 4.25547 2.5017 4.74635C2.5017 4.78359 2.50483 4.82083 2.50796 4.86484V4.86823ZM4.00118 9.72969C4.00118 9.80078 4.00118 9.87187 4.00118 9.94635C4.00118 10.0716 3.99805 10.2003 4.00118 10.3255C4.0137 10.6099 4.2297 10.8299 4.49266 10.8333C4.75248 10.8333 4.98414 10.6167 4.9904 10.3323C4.99979 9.95651 4.99666 9.58073 4.9904 9.20495C4.9904 9.11016 5.01231 9.04583 5.08744 8.9849C5.48188 8.67344 5.60083 8.12161 5.39109 7.65104C5.17822 7.17708 4.68988 6.93672 4.22031 7.08568C3.83527 7.20755 3.59109 7.49193 3.51596 7.91849C3.4377 8.35521 3.57544 8.72083 3.90414 8.98828C3.97614 9.04583 4.00118 9.10339 3.99805 9.19818C3.99179 9.37422 3.99805 9.55365 3.99805 9.72969H4.00118Z" fill="#2F114A"/>
</svg>
