<svg width="12" height="13" viewBox="0 0 12 13" fill="currentFill" color="currentColor" xmlns="http://www.w3.org/2000/svg">
<path d="M0.621545 11.6675L0.621681 11.6675L3.87544 11.6459L3.87601 11.6459C3.90219 11.6458 3.9273 11.6354 3.94593 11.6169C3.94599 11.6169 3.94606 11.6168 3.94613 11.6167L11.0032 4.55966L11.0032 4.55965C11.6404 3.92251 11.6405 2.87382 11.0033 2.23684L11.0032 2.23678L9.91173 1.14529C9.27461 0.508213 8.22429 0.508211 7.58717 1.14528L7.58716 1.14529M0.621545 11.6675L7.58716 1.14529M0.621545 11.6675C0.59497 11.6677 0.569432 11.6573 0.550534 11.6387C0.531658 11.62 0.520926 11.5947 0.5207 11.5682C0.5207 11.5681 0.5207 11.5681 0.520699 11.5681L0.500002 8.27452C0.500001 8.27449 0.500001 8.27445 0.500001 8.27442C0.499941 8.2612 0.502497 8.24811 0.507515 8.2359C0.512526 8.2237 0.51991 8.21259 0.529272 8.20322C0.529289 8.2032 0.529306 8.20318 0.529324 8.20316L7.58716 1.14529M0.621545 11.6675L7.58716 1.14529M0.848183 8.16741L0.7004 8.31519L0.701747 8.52418L0.717487 10.9665L0.72071 11.4666L1.22074 11.4633L3.62834 11.4476L3.83353 11.4463L3.97863 11.3012L8.83605 6.44373L9.1896 6.09018L8.83605 5.73663L6.41107 3.31163L6.05752 2.95808L5.70396 3.31163L0.848183 8.16741ZM6.55262 2.46297L6.19907 2.81652L6.55262 3.17007L8.97761 5.59507L9.33116 5.94862L9.68472 5.59507L10.8616 4.41821L10.8617 4.41811C11.4333 3.84614 11.4339 2.95067 10.8616 2.37841L9.77008 1.28693L9.77007 1.28692C9.19795 0.71482 8.30079 0.714805 7.72866 1.28693L7.72866 1.28693L6.55262 2.46297Z" fill="currentColor" stroke="currentColor"/>
</svg>
