<svg width="16" height="12" viewBox="0 0 16 12" fill="currentFill" color="currentColor" xmlns="http://www.w3.org/2000/svg">
<path fill-rule="evenodd" clip-rule="evenodd" d="M11.6364 1.45455H4.36364C2.75699 1.45455 1.45455 2.75699 1.45455 4.36364V7.27273C1.45455 8.87935 2.75699 10.1818 4.36364 10.1818H11.6364C13.243 10.1818 14.5455 8.87935 14.5455 7.27273V4.36364C14.5455 2.75699 13.243 1.45455 11.6364 1.45455ZM4.36364 0C1.95367 0 0 1.95367 0 4.36364V7.27273C0 9.68269 1.95367 11.6364 4.36364 11.6364H11.6364C14.0463 11.6364 16 9.68269 16 7.27273V4.36364C16 1.95367 14.0463 0 11.6364 0H4.36364ZM3.63636 7.27273C3.63636 7.6744 3.96198 8 4.36364 8C4.76529 8 5.09091 7.6744 5.09091 7.27273V6.54545H5.81818C6.21985 6.54545 6.54545 6.21985 6.54545 5.81818C6.54545 5.41651 6.21984 5.09091 5.81818 5.09091H5.09091V4.36364C5.09091 3.96198 4.7653 3.63636 4.36364 3.63636C3.96198 3.63636 3.63636 3.96198 3.63636 4.36364V5.09091H2.90909C2.50743 5.09091 2.18182 5.41651 2.18182 5.81818C2.18182 6.21985 2.50743 6.54545 2.90909 6.54545H3.63636V7.27273ZM12.3636 5.81818C12.3636 6.21985 12.038 6.54545 11.6364 6.54545C11.2347 6.54545 10.9091 6.21985 10.9091 5.81818C10.9091 5.41651 11.2347 5.09091 11.6364 5.09091C12.038 5.09091 12.3636 5.41651 12.3636 5.81818ZM13.8182 5.81818C13.8182 7.0232 12.8414 8 11.6364 8C10.4313 8 9.45455 7.0232 9.45455 5.81818C9.45455 4.61316 10.4313 3.63636 11.6364 3.63636C12.8414 3.63636 13.8182 4.61316 13.8182 5.81818Z" fill="currentColor"/>
</svg>
