<svg width="7" height="12" viewBox="0 0 7 12" fill="currentFill" color="currentColor" xmlns="http://www.w3.org/2000/svg">
<path d="M3.18208 0C4.06865 0 4.74542 0.112684 5.38159 0.410965C6.9111 1.12684 7.42544 2.6779 6.62685 4.14279C6.27493 4.79238 5.76058 5.30278 5.18533 5.75351C5.02967 5.87945 4.87401 6.00539 4.72512 6.14459C4.35966 6.48264 4.17017 6.90687 4.14987 7.404C4.1431 7.56308 4.14987 7.71554 4.1431 7.87462C4.13633 8.27233 3.9536 8.4977 3.55431 8.56398C3.35127 8.59713 3.13471 8.61038 2.92491 8.5905C2.47824 8.55735 2.26844 8.3585 2.22106 7.92102C2.09925 6.70138 2.41056 5.64083 3.43925 4.85867C3.73703 4.6333 4.03481 4.39468 4.31229 4.14279C4.62361 3.85777 4.83341 3.51972 4.84694 3.08224C4.86048 2.64476 4.66421 2.31996 4.26492 2.11448C3.39188 1.65712 2.32258 1.91563 1.75409 2.70442C1.3954 3.21481 1.05702 3.32086 0.556204 3.0955C0.0959992 2.88338 -0.107032 2.41939 0.055393 1.87586C0.299031 1.0937 0.881055 0.629705 1.61197 0.318167C2.17369 0.0795417 2.76248 0 3.18208 0Z" fill="currentColor"/>
<path d="M4.45433 10.7206C4.45433 11.4166 3.85201 11.9999 3.14816 11.9999C2.43078 11.9999 1.84876 11.4034 1.85553 10.6875C1.86229 9.97824 2.45109 9.41482 3.16847 9.42144C3.87908 9.42807 4.4611 10.0114 4.45433 10.7206Z" fill="currentColor"/>
</svg>
