<?xml version="1.0" ?><svg width="200px" height="200px" viewBox="0 0 200 200" id="Layer_1" style="enable-background:new 0 0 200 200;" version="1.1" xml:space="preserve" xmlns="http://www.w3.org/2000/svg" xmlns:xlink="http://www.w3.org/1999/xlink"><style type="text/css">
	.st0{fill:#71A517;}
	.st1{fill:#FAD50A;}
	.st2{fill:#FAD50A;stroke:#2B2B2B;stroke-width:5;stroke-linecap:round;stroke-linejoin:round;stroke-miterlimit:10;}
	.st3{fill:#FFFFFF;stroke:#2B2B2B;stroke-width:5;stroke-linecap:round;stroke-linejoin:round;stroke-miterlimit:10;}
	.st4{fill:#7B3D72;}
	.st5{fill:#F2433B;}
	.st6{fill:#F2433B;stroke:#2B2B2B;stroke-width:6;stroke-linecap:round;stroke-linejoin:round;stroke-miterlimit:10;}
	.st7{fill:#FFFFFF;stroke:#2B2B2B;stroke-width:6;stroke-linecap:round;stroke-linejoin:round;stroke-miterlimit:10;}
	.st8{fill:#DE3727;stroke:#2B2B2B;stroke-width:6;stroke-linecap:round;stroke-linejoin:round;stroke-miterlimit:10;}
	.st9{fill:#8EBF04;}
	.st10{fill:#8EBF04;stroke:#2B2B2B;stroke-width:6;stroke-linecap:round;stroke-linejoin:round;stroke-miterlimit:10;}
	.st11{fill:#003A52;}
	.st12{fill:#7B3D72;stroke:#2B2B2B;stroke-width:6;stroke-linecap:round;stroke-linejoin:round;stroke-miterlimit:10;}
	.st13{fill:#2B2B2B;}
	.st14{fill:none;stroke:#2B2B2B;stroke-width:6;stroke-linecap:round;stroke-linejoin:round;stroke-miterlimit:10;}
	.st15{fill:#F78D0F;}
	.st16{fill:#F78D0F;stroke:#2B2B2B;stroke-width:6;stroke-linecap:round;stroke-linejoin:round;stroke-miterlimit:10;}
</style><g><circle class="st4" cx="100" cy="100" r="78.6"/><g><path class="st7" d="M143.6,66.7c2.7,4.3,3.1,9.6,1.4,14.4c-6.3,17-29.1,69.6-68.7,69.4c-47.3-0.2-22.9-49.3,1.1-50    s43.5-35.7,46.2-37.4C125.8,61.7,137.4,57.1,143.6,66.7z"/><path class="st7" d="M73.7,140.1c0,0,19.1,0.6,29-13.1"/><path class="st12" d="M146.7,70.3c-0.2-1.1-0.5-2.2-1-3.2c-0.7-1.7-1.8-4.4-4.5-5.8l4-9.9l-5.5-1.8c0,0-3.2,6.4-4.7,9.3    c-2.5-0.6-4.8,0.3-6.5,0.9c-1.2,0.5-2.4,1.1-3.5,1.8c-9.1,5.8-19.9,4.7-20.2,4.4c4.9,13.2,22.7,6.3,22.7,6.5c-2,4.5,2,8.3,2,8.3    s5.8,0.2,7.6-4.4c0.2-0.2,7.6,17.4,20.5,11.8C157.3,88.2,148.8,81.1,146.7,70.3z"/></g></g></svg>