<svg width="22" height="29" viewBox="0 0 22 29" fill="none" xmlns="http://www.w3.org/2000/svg">
<path d="M19.3675 9.55915C20.008 15.2442 14.3702 25.5205 12.8789 27.424C12.4045 28.0296 12.5239 27.8772 12.0769 27.5143C10.1697 25.9663 2.41944 17.2534 1.77586 11.5412C1.13227 5.82896 4.67089 2.15226 9.53665 1.60405C14.4024 1.05583 18.783 4.61158 19.3407 9.56216L19.3675 9.55915Z" fill="#7813B0"/>
<path d="M15.2895 11.1073C15.5521 8.46159 13.6552 6.09215 11.0527 5.81497C8.45016 5.53779 6.12758 7.45783 5.86503 10.1035C5.60248 12.7492 7.4994 15.1186 10.1019 15.3958C12.7044 15.673 15.027 13.7529 15.2895 11.1073Z" fill="white"/>
</svg>
