<?xml version="1.0" encoding="UTF-8"?><svg id="Bucket_set" xmlns="http://www.w3.org/2000/svg" width="220" height="82.7" viewBox="0 0 220 82.7"><defs><style>.cls-1{fill:#240b4a;}.cls-2,.cls-3{fill:#fff;}.cls-4{fill:#4c5965;}.cls-4,.cls-5,.cls-6,.cls-7,.cls-8,.cls-3,.cls-9,.cls-10{fill-rule:evenodd;}.cls-11{fill:#ff7271;}.cls-12{opacity:.5;}.cls-5{fill:#8e99a5;}.cls-6{fill:#a3adb8;}.cls-13{fill:#ecebec;}.cls-7{fill:#8d9096;}.cls-8{fill:#5c6e7c;}.cls-3{opacity:.2;}.cls-9{fill:#3e4c55;}.cls-10{fill:#76858e;}</style></defs><ellipse class="cls-13" cx="110" cy="76.9" rx="110" ry="5.8"/><polygon class="cls-5" points="37.9 0 182.1 0 164.8 74 164.8 76.9 55.2 76.9 55.2 74 37.9 0"/><polygon class="cls-7" points="37.9 0 182.1 0 181.8 1.1 38.2 1.1 37.9 0"/><polygon class="cls-10" points="123 0 119.9 74 119.9 76.9 164.8 76.9 164.8 74 182.1 0 123 0"/><polygon class="cls-8" points="145.3 0 136.8 74 136.8 76.9 164.8 76.9 164.8 74 182.1 0 145.3 0"/><polygon class="cls-4" points="168.8 0 154.6 74 154.6 76.9 164.8 76.9 164.8 74 182.1 0 168.8 0"/><polygon class="cls-6" points="97.3 74 93.3 0 46.9 0 62.1 74 62.1 76.9 97.3 76.9 97.3 74"/><polygon class="cls-3" points="90.7 74 84.6 0 64.8 0 75.7 74 75.7 76.9 90.7 76.9 90.7 74"/><polygon class="cls-9" points="40.7 11.7 179.3 11.7 179 13.1 41 13.1 40.7 11.7"/><polygon class="cls-9" points="42.9 21.3 177.1 21.3 176.8 22.7 43.2 22.7 42.9 21.3"/><circle class="cls-1" cx="90.5" cy="43.2" r="11.6"/><path class="cls-2" d="m90.6,43c-2.4,2.4-6,2.7-8,.6-2-2-1.8-5.6.6-8,2.4-2.4,6-2.7,8-.6,2,2,1.8,5.6-.6,8Z"/><path class="cls-2" d="m97.6,51c-1,1-2.6,1.2-3.5.3-.9-.9-.8-2.5.3-3.5s2.6-1.2,3.5-.3c.9.9.8,2.5-.3,3.5Z"/><circle class="cls-1" cx="130.6" cy="43.2" r="11.6"/><path class="cls-2" d="m130.7,43c-2.4,2.4-6,2.7-8,.6-2-2-1.8-5.6.6-8s6-2.7,8-.6c2,2,1.8,5.6-.6,8Z"/><path class="cls-2" d="m137.7,51c-1,1-2.6,1.2-3.5.3-.9-.9-.8-2.5.3-3.5,1-1,2.6-1.2,3.5-.3.9.9.8,2.5-.3,3.5Z"/><path class="cls-1" d="m105.1,59.6c-.3-2-.8-3.8-.2-5.8,1.1-3.4,5.8-4.2,8.6-2.5,3.1,1.8,3.1,5.2,2.3,8.3,0,.5-.9.5-1,0-.4-1.6-.2-3.4-1.1-4.8-1.1-1.8-3.7-2.2-5.5-1.4-1.3.6-1.8,2-1.9,3.5-.1.9-.2,1.8-.4,2.7,0,.2-.3.4-.5.3-.2,0-.3-.2-.3-.3h0Z"/><g class="cls-12"><path class="cls-11" d="m84.5,58.7c0,2.5-3.2,4.5-7.2,4.5s-7.2-2-7.2-4.5,3.2-4.5,7.2-4.5,7.2,2,7.2,4.5Z"/><ellipse class="cls-11" cx="142.7" cy="58.7" rx="7.2" ry="4.5"/></g><path class="cls-1" d="m133.1,59.6c-6.3-.7-12.6-5.9-12.6-12.6,0-.2.2-.4.4-.4.2,0,.3.1.4.3,1.9,5.8,6.6,9.5,12,12,.4.1.2.7-.2.7h0Z"/><path class="cls-1" d="m87.7,59c5.4-2.6,10.1-6.3,12-12,.1-.4.8-.3.8.1,0,6.7-6.3,11.9-12.6,12.6-.4,0-.5-.5-.2-.7h0Z"/><path class="cls-1" d="m98.5,14.2c-1.9,6.8-11,11.1-17,7-.5-.3-.6-1-.3-1.4.2-.3.4-.4.7-.5,2.9-.7,5.1-1.2,7.7-2.4,2.6-1.1,4.9-2.5,7.5-3.7.7-.4,1.6.2,1.4,1h0Z"/><path class="cls-1" d="m123.9,13.2c5.1,2.6,9.5,5.1,15.2,6.1.6.1,1,.7.9,1.3,0,.2-.2.4-.4.6-1.4,1-3.2,1.6-5,1.6-5.3.1-10.5-3.5-12-8.6-.2-.8.7-1.4,1.4-1h0Z"/></svg>
