<svg width="220" height="83" viewBox="0 0 220 83" fill="none" xmlns="http://www.w3.org/2000/svg">
<g clip-path="url(#clip0_2842_475)">
<path d="M110 82.6996C170.751 82.6996 220 80.1029 220 76.8996C220 73.6964 170.751 71.0996 110 71.0996C49.2487 71.0996 0 73.6964 0 76.8996C0 80.1029 49.2487 82.6996 110 82.6996Z" fill="#ECEBEC"/>
<path fill-rule="evenodd" clip-rule="evenodd" d="M37.9004 0H182.1L164.8 74V76.9H55.2004V74L37.9004 0Z" fill="#8E99A5"/>
<path fill-rule="evenodd" clip-rule="evenodd" d="M37.9004 0H182.1L181.8 1.1H38.2004L37.9004 0Z" fill="#8D9096"/>
<path fill-rule="evenodd" clip-rule="evenodd" d="M123 0L119.9 74V76.9H164.8V74L182.1 0H123Z" fill="#76858E"/>
<path fill-rule="evenodd" clip-rule="evenodd" d="M145.301 0L136.801 74V76.9H164.801V74L182.101 0H145.301Z" fill="#5C6E7C"/>
<path fill-rule="evenodd" clip-rule="evenodd" d="M168.8 0L154.6 74V76.9H164.8V74L182.1 0H168.8Z" fill="#4C5965"/>
<path fill-rule="evenodd" clip-rule="evenodd" d="M97.3004 74L93.3004 0H46.9004L62.1004 74V76.9H97.3004V74Z" fill="#A3ADB8"/>
<g clip-path="url(#clip1_2842_475)">
<path d="M91.4061 57.0663C97.493 57.0663 102.427 52.2012 102.427 46.1997C102.427 40.1982 97.493 35.333 91.4061 35.333C85.3192 35.333 80.3848 40.1982 80.3848 46.1997C80.3848 52.2012 85.3192 57.0663 91.4061 57.0663Z" fill="#240B4A"/>
<path d="M91.5405 46.0664C89.2416 48.3331 85.8608 48.5331 83.9 46.6664C81.9391 44.7331 82.2096 41.3997 84.5085 39.1331C86.8074 36.8664 90.1882 36.6664 92.1491 38.5331C94.1099 40.3997 93.8395 43.7997 91.5405 46.0664Z" fill="white"/>
<path d="M98.2356 53.5996C97.2214 54.5996 95.7338 54.6662 94.9224 53.8662C94.1111 53.0662 94.1787 51.5329 95.1929 50.5996C96.2071 49.6662 97.6947 49.5329 98.5061 50.3329C99.3851 51.1996 99.2498 52.6662 98.2356 53.5996Z" fill="white"/>
<path d="M129.541 57.0663C135.628 57.0663 140.562 52.2012 140.562 46.1997C140.562 40.1982 135.628 35.333 129.541 35.333C123.454 35.333 118.52 40.1982 118.52 46.1997C118.52 52.2012 123.454 57.0663 129.541 57.0663Z" fill="#240B4A"/>
<path d="M129.675 46.0664C127.376 48.3331 123.996 48.5331 122.035 46.6664C120.074 44.7997 120.344 41.3997 122.643 39.1331C124.942 36.8664 128.323 36.6664 130.284 38.5331C132.245 40.4664 131.974 43.7997 129.675 46.0664Z" fill="white"/>
<path d="M136.371 53.5996C135.356 54.5996 133.869 54.6662 133.057 53.8662C132.178 52.9996 132.314 51.5329 133.328 50.5996C134.342 49.6662 135.83 49.5329 136.641 50.3329C137.452 51.1329 137.385 52.6662 136.371 53.5996Z" fill="white"/>
<path d="M115.611 53.4662C115.949 55.3329 116.423 56.9995 115.746 58.8662C114.665 62.0662 110.202 62.8662 107.497 61.2662C104.522 59.4662 104.59 56.3995 105.266 53.4662C105.334 52.9995 106.077 52.9995 106.213 53.4662C106.618 54.9329 106.415 56.5995 107.294 57.9329C108.376 59.6662 110.81 59.9329 112.568 59.2662C113.853 58.7329 114.259 57.3995 114.394 55.9995C114.529 55.1329 114.597 54.3329 114.8 53.4662C114.867 53.0662 115.544 53.0662 115.611 53.4662Z" fill="#240B4A"/>
<g opacity="0.5">
<path d="M78.8968 64.9996C82.7058 64.9996 85.7936 63.1192 85.7936 60.7996C85.7936 58.48 82.7058 56.5996 78.8968 56.5996C75.0878 56.5996 72 58.48 72 60.7996C72 63.1192 75.0878 64.9996 78.8968 64.9996Z" fill="#FF7271"/>
<path d="M148.001 60.7996C148.001 63.1329 144.89 64.9996 141.104 64.9996C137.317 64.9996 134.207 63.1329 134.207 60.7996C134.207 58.4663 137.317 56.5996 141.104 56.5996C144.89 56.5996 148.001 58.4663 148.001 60.7996Z" fill="#FF7271"/>
</g>
<path d="M120.818 22.1336C123.996 18.2002 129.879 16.9336 134.477 18.8669C135.694 19.2669 139.818 22.2002 138.06 23.4002C137.79 23.5336 137.519 23.6002 137.249 23.5336C134.477 23.1336 132.313 22.7336 129.608 22.8669C126.971 22.8669 124.402 23.3336 121.63 23.4669C120.886 23.6002 120.345 22.7336 120.818 22.1336Z" fill="#240B4A"/>
<path d="M82.6836 22.1336C85.8616 18.2669 91.7441 16.9336 96.342 18.9336C97.5591 19.3336 101.684 22.2669 99.9256 23.4669C99.6551 23.6003 99.3847 23.6669 99.1142 23.6003C96.342 23.2003 94.1783 22.8003 91.4737 22.9336C88.8366 22.9336 86.2672 23.4003 83.495 23.5336C82.7512 23.6669 82.2103 22.8003 82.6836 22.2003V22.1336Z" fill="#240B4A"/>
</g>
<path opacity="0.2" fill-rule="evenodd" clip-rule="evenodd" d="M90.7008 74L84.6008 0H64.8008L75.7008 74V76.9H90.7008V74Z" fill="white"/>
<path fill-rule="evenodd" clip-rule="evenodd" d="M40.6992 11.7002H179.299L178.999 13.1002H40.9992L40.6992 11.7002Z" fill="#3E4C55"/>
<path fill-rule="evenodd" clip-rule="evenodd" d="M42.9004 21.2998H177.1L176.8 22.6998H43.2004L42.9004 21.2998Z" fill="#3E4C55"/>
</g>
<defs>
<clipPath id="clip0_2842_475">
<rect width="220" height="82.7" fill="white"/>
</clipPath>
<clipPath id="clip1_2842_475">
<rect width="76" height="47" fill="white" transform="translate(72 18)"/>
</clipPath>
</defs>
</svg>
