<svg width="29" height="29" viewBox="0 0 29 29" fill="none" xmlns="http://www.w3.org/2000/svg">
<g clip-path="url(#clip0_2842_529)">
<path d="M5.21538 0H23.7846C26.6615 0 29 2.30785 29 5.14712V23.8529C29 26.6921 26.6615 29 23.7846 29H5.23077C2.35385 29 0.0153845 26.6921 0.0153845 23.8529V5.14712C0.0153845 2.30785 2.35385 0 5.23077 0H5.21538ZM1.15385 23.8529C1.15385 26.0696 2.96923 27.8613 5.21538 27.8613H23.7846C26.0308 27.8613 27.8462 26.0696 27.8462 23.8529V5.14712C27.8462 2.93037 26.0308 1.13874 23.7846 1.13874H5.23077C2.98461 1.13874 1.16923 2.93037 1.16923 5.14712V23.8529H1.15385Z" fill="black"/>
<path d="M15.8773 19.9357V15.1681H22.5234V13.832H15.8773V9.06445L6.33882 14.5001L15.8773 19.9357Z" fill="#9B51E0"/>
</g>
<defs>
<clipPath id="clip0_2842_529">
<rect width="29" height="29" fill="white" transform="matrix(-1 0 0 1 29 0)"/>
</clipPath>
</defs>
</svg>
