<svg width="29" height="29" viewBox="0 0 29 29" fill="none" xmlns="http://www.w3.org/2000/svg">
<g clip-path="url(#clip0_2842_526)">
<path d="M23.7846 0H5.21539C2.33846 0 0 2.30785 0 5.14712V23.8529C0 26.6921 2.33846 29 5.21539 29H23.7692C26.6462 29 28.9846 26.6921 28.9846 23.8529V5.14712C28.9846 2.30785 26.6462 0 23.7692 0H23.7846ZM27.8462 23.8529C27.8462 26.0696 26.0308 27.8613 23.7846 27.8613H5.21539C2.96923 27.8613 1.15385 26.0696 1.15385 23.8529V5.14712C1.15385 2.93037 2.96923 1.13874 5.21539 1.13874H23.7692C26.0154 1.13874 27.8308 2.93037 27.8308 5.14712V23.8529H27.8462Z" fill="black"/>
<path d="M13.1227 19.9357V15.1681H6.47656V13.832H13.1227V9.06445L22.6612 14.5001L13.1227 19.9357Z" fill="#9B51E0"/>
</g>
<defs>
<clipPath id="clip0_2842_526">
<rect width="29" height="29" fill="white"/>
</clipPath>
</defs>
</svg>
