<svg width="382" height="309" viewBox="0 0 382 309" fill="none" xmlns="http://www.w3.org/2000/svg">
<g clip-path="url(#clip0_2024_14038)">
<path opacity="0.2" d="M200.816 191.604C170.435 161.223 170.435 111.966 200.816 81.5856C231.196 51.2049 280.453 51.2049 310.833 81.5856C341.214 111.966 341.214 161.223 310.833 191.604C280.453 221.984 231.196 221.984 200.816 191.604Z" fill="#E0F3FF"/>
<path d="M195.169 298.109C195.356 298.109 216.205 294.064 236.742 285.164C264.001 273.339 278.378 258.278 278.253 241.599C278.129 216.58 245.891 213.717 214.773 210.979C195.107 209.236 174.818 207.432 163.118 200.088C155.899 195.545 151.48 189.259 149.8 181.417C145.505 160.817 161.749 134.865 166.79 127.397L166.292 127.085C161.189 134.616 144.883 160.693 149.239 181.542C150.92 189.57 155.463 195.98 162.807 200.648C174.631 208.116 194.982 209.921 214.711 211.664C245.58 214.402 277.506 217.203 277.631 241.723C277.755 262.51 255.288 276.575 236.493 284.728C216.018 293.628 195.231 297.611 195.045 297.611L195.169 298.171V298.109Z" fill="url(#paint0_linear_2024_14038)"/>
<path d="M201.704 95.7809C194.672 105.552 177.183 125.53 177.183 125.53C161.749 124.285 148.68 118.186 148.68 118.186L148.244 116.692C157.579 102.689 174.134 85.5742 174.134 85.5742C187.826 88.5615 201.455 94.6606 201.455 94.6606L201.704 95.7809Z" fill="url(#paint1_linear_2024_14038)"/>
<path d="M167.475 124.223C167.475 124.223 165.545 127.957 165.857 128.33C166.168 128.703 169.342 124.596 169.342 124.596L167.475 124.223Z" fill="url(#paint2_linear_2024_14038)"/>
<path d="M201.704 95.7809C182.598 87.7525 174.196 86.7567 174.196 86.7567C163.741 96.9634 148.68 118.248 148.68 118.248L148.244 116.754C157.579 102.751 174.134 85.6365 174.134 85.6365C187.826 88.6238 201.455 94.7229 201.455 94.7229L201.704 95.8431V95.7809Z" fill="url(#paint3_linear_2024_14038)"/>
<path style="mix-blend-mode:soft-light" opacity="0.5" d="M162.247 100.324L178.739 123.787L177.183 125.592C177.183 125.592 162.932 124.658 148.68 118.248L148.244 116.754C148.244 116.754 156.584 105.178 161.687 99.3905L162.247 100.324Z" fill="url(#paint4_linear_2024_14038)"/>
<path d="M256.16 306.884C256.72 307.693 258.712 308.502 261.014 307.942C263.317 307.382 266.304 306.013 268.98 298.047C271.657 290.081 271.968 286.533 271.968 286.533C271.408 284.915 269.852 282.986 269.852 282.986C268.732 281.43 258.525 284.666 258.525 284.666C258.525 284.666 258.276 285.911 257.903 288.027C257.529 289.956 257.094 292.57 256.658 295.62C255.724 301.905 255.6 306.2 256.222 307.009L256.16 306.884Z" fill="#542A8D"/>
<path style="mix-blend-mode:multiply" d="M256.16 306.884C256.72 307.693 258.712 308.502 261.014 307.942C263.317 307.382 266.304 306.013 268.98 298.047C271.657 290.081 271.968 286.533 271.968 286.533C271.408 284.915 269.852 282.986 269.852 282.986C268.732 281.43 258.525 284.666 258.525 284.666C258.525 284.666 258.276 285.911 257.903 288.027C257.903 288.027 264.313 287.653 266.989 289.396C269.665 291.139 266.864 302.59 263.939 305.328C261.077 308.004 256.222 307.009 256.222 307.009L256.16 306.884Z" fill="url(#paint5_linear_2024_14038)"/>
<path d="M211.412 287.965C211.412 287.965 209.172 286.222 208.549 284.977C207.927 283.67 208.363 281.43 208.363 281.43L211.412 282.488L213.279 284.417L211.412 287.965Z" fill="#542A8D"/>
<path d="M218.134 291.574L217.387 293.068C217.387 293.068 213.217 290.205 209.981 288.462V282.923C209.981 282.923 215.707 283.297 218.072 291.574H218.134Z" fill="url(#paint6_linear_2024_14038)"/>
<path d="M208.55 284.977V283.11C214.649 284.977 218.694 292.446 218.694 292.446C218.694 292.446 222.366 288.4 222.74 286.409C223.113 284.417 222.615 282.986 222.74 281.865C222.864 280.683 227.469 269.854 227.843 266.182C228.216 262.51 227.034 256.971 227.843 250.499C228.652 244.026 234.626 224.795 234.626 224.795C234.626 224.795 236.245 224.92 238.734 227.223C238.921 227.409 239.17 227.658 239.419 227.969C242.281 231.455 247.945 242.035 251.554 250.748C255.475 260.207 258.214 275.642 258.027 277.633C257.778 279.625 255.289 280.496 255.724 281.803C256.16 283.048 261.512 288.151 266.304 285.973C269.478 284.542 271.47 280.683 272.403 278.007C272.901 276.638 273.088 275.517 273.088 275.206C273.088 274.273 271.843 273.215 271.221 272.53C271.096 272.406 271.034 272.157 270.972 271.721C270.661 269.667 270.785 264.377 270.536 259.523C270.163 253.673 266.864 248.818 265.433 245.707C264.064 242.595 263.379 234.504 262.757 224.049C262.197 213.531 259.396 207.743 259.396 207.743L257.529 205.565C257.529 205.565 249.812 207.743 238.61 208.427C227.407 209.112 222.74 205.565 222.74 205.565L219.503 207.743C219.503 207.743 218.757 210.543 217.761 214.589C216.143 221.123 214.027 230.894 213.653 237.367C213.093 247.885 210.977 265.062 210.106 273.09C209.172 281.181 207.554 281.741 207.554 281.741C207.181 282.986 208.488 284.977 208.488 284.977H208.55Z" fill="url(#paint7_linear_2024_14038)"/>
<path d="M196.228 308.129C196.663 308.689 198.281 309.809 202.7 308.129C207.056 306.449 209.359 304.955 214.151 302.714C218.881 300.536 220.562 297.984 220.562 297.984C220.001 294.437 218.197 291.574 218.197 291.574C216.392 292.197 214.151 290.827 214.151 290.827C211.973 288.525 205.625 285.911 205.003 286.782C204.443 287.716 206.123 291.512 206.123 291.512C202.949 295.371 196.476 306.262 196.228 307.88C196.228 307.942 196.228 308.004 196.228 308.067V308.129Z" fill="#542A8D"/>
<path style="mix-blend-mode:multiply" d="M255.662 281.741C256.097 282.986 261.45 288.089 266.242 285.911C269.416 284.479 271.407 280.621 272.341 277.945C271.158 279.501 269.229 281.368 266.055 282.861C259.147 286.16 255.6 281.741 255.6 281.741H255.662Z" fill="url(#paint8_linear_2024_14038)"/>
<path style="mix-blend-mode:multiply" d="M208.55 284.977V283.11C214.649 284.977 218.694 292.446 218.694 292.446C218.694 292.446 222.366 288.4 222.74 286.409C223.113 284.417 222.615 282.986 222.74 281.865C222.864 280.683 227.47 269.854 227.843 266.182C228.216 262.51 227.034 256.971 227.843 250.499C228.652 244.026 234.627 224.795 234.627 224.795C234.627 224.795 236.245 224.92 238.734 227.223C238.921 227.409 239.17 227.658 239.419 227.969C239.419 227.969 242.966 215.273 250.745 216.642C258.525 218.012 261.886 236.558 263.068 243.093C264.251 249.69 268.731 255.913 269.789 261.763C270.847 267.489 268.358 275.206 268.234 275.58L271.034 271.659C270.723 269.605 270.847 264.315 270.599 259.461C270.225 253.61 266.927 248.756 265.495 245.644C264.126 242.533 263.441 234.442 262.819 223.986C262.259 213.468 259.458 207.681 259.458 207.681L257.591 205.502C257.591 205.502 249.874 207.681 238.672 208.365C227.47 209.05 222.802 205.502 222.802 205.502L219.566 207.681C219.566 207.681 218.819 210.481 217.823 214.526C218.196 214.775 226.847 220.688 227.905 224.733C228.963 228.903 223.486 252.428 224.109 255.166C224.793 257.905 226.598 270.974 221.682 280.247C221.682 280.247 219.69 275.829 217.823 273.65C218.01 274.086 220.624 281.368 221.308 284.666C221.993 288.027 219.254 289.645 219.254 289.645C219.254 289.645 212.72 282.177 207.616 281.741C207.243 282.986 208.55 284.977 208.55 284.977Z" fill="url(#paint9_linear_2024_14038)"/>
<path d="M275.266 174.758C275.266 174.758 290.389 167.725 293.003 152.166C293.003 152.166 285.535 144.885 281.24 143.64C276.946 142.395 271.096 144.138 271.096 144.138L270.412 154.22L275.266 174.758Z" fill="url(#paint10_linear_2024_14038)"/>
<path d="M271.221 207.743C271.221 207.743 266.18 204.693 264.997 202.391C264.997 202.391 274.084 180.421 275.577 173.7C275.577 173.7 289.456 166.543 291.447 150.984L283.046 145.756L285.037 144.885C285.037 144.885 293.501 149.055 299.04 155.776C299.04 155.776 293.439 175.94 285.597 188.823V194.113C285.597 194.113 278.876 205.004 271.159 207.805L271.221 207.743Z" fill="url(#paint11_linear_2024_14038)"/>
<path d="M277.942 157.768L278.876 160.506C278.876 160.506 292.816 154.033 310.242 139.595C310.242 139.595 311.425 133.433 306.882 129.326C306.882 129.326 297.982 123.849 280.929 122.169L259.832 141.337L276.946 149.179C276.946 149.179 277.818 154.656 277.88 157.768H277.942Z" fill="url(#paint12_linear_2024_14038)"/>
<path style="mix-blend-mode:multiply" opacity="0.6" d="M307.753 130.197C307.753 130.197 290.514 145.196 279.498 150.984L264.126 145.569L264.935 151.98L278.876 160.568C278.876 160.568 298.231 150.299 310.242 139.657C310.242 139.657 311.487 135.238 307.691 130.259L307.753 130.197Z" fill="url(#paint13_linear_2024_14038)"/>
<path d="M271.221 207.743C271.221 207.743 253.297 203.2 245.829 199.714C245.829 199.714 245.144 165.734 246.202 158.888C247.26 152.042 253.919 139.595 253.919 139.595C253.919 139.595 267.3 142.52 276.324 149.801C276.324 149.801 277.32 162.809 274.519 177.372C272.901 185.774 267.673 195.233 266.429 201.581C265.931 202.266 270.474 206 271.221 207.743Z" fill="url(#paint14_linear_2024_14038)"/>
<path d="M277.071 172.829C277.071 172.829 279.187 159.572 277.071 149.179C277.071 149.179 274.893 146.939 269.479 144.511L266.989 144.138C266.989 144.138 273.96 147.623 275.764 149.552C275.764 149.552 276.387 164.053 275.391 174.758L277.134 172.766L277.071 172.829Z" fill="url(#paint15_linear_2024_14038)"/>
<path d="M232.448 210.606C232.448 210.606 212.595 206.249 207.741 197.101C207.741 197.101 209.608 187.703 230.706 188.014C251.803 188.388 232.51 210.606 232.51 210.606H232.448Z" fill="url(#paint16_linear_2024_14038)"/>
<path d="M327.17 188.014C327.17 188.014 330.344 184.716 329.846 182.537C329.349 180.359 326.486 178.679 324.307 179.363C322.129 180.048 320.698 182.537 320.698 182.537L327.17 188.014Z" fill="url(#paint17_linear_2024_14038)"/>
<path d="M309.06 211.975C309.06 211.975 304.392 214.713 303.894 214.526C303.397 214.34 304.828 208.552 304.828 208.552L307.006 207.183L309.184 208.241L309.371 210.419L308.935 211.975H309.06Z" fill="url(#paint18_linear_2024_14038)"/>
<path d="M326.175 188.014L309.06 211.975V210.108L307.504 209.734L307.131 208.365L304.89 208.614L313.105 196.354L320.698 184.778C320.698 184.778 325.055 185.151 326.175 188.076V188.014Z" fill="url(#paint19_linear_2024_14038)"/>
<path d="M305.949 213.717C305.949 213.717 305.264 212.348 304.019 212.473C304.019 212.473 303.584 214.464 303.833 214.713C304.081 215.024 306.011 213.717 306.011 213.717H305.949Z" fill="url(#paint20_linear_2024_14038)"/>
<path d="M324.867 189.819L327.17 188.014C327.17 188.014 326.61 183.346 320.697 182.537L319.764 186.023C319.764 186.023 322.627 185.587 324.867 189.757V189.819Z" fill="url(#paint21_linear_2024_14038)"/>
<path d="M193.8 122.293C193.8 122.293 191.373 120.426 191.373 119.43C191.373 118.435 193.302 116.319 193.8 113.829C194.236 111.34 193.551 107.855 194.236 106.236C194.92 104.556 195.481 103.249 194.92 102.876C194.36 102.502 192.12 103.125 191.311 104.618C190.502 106.112 190.626 107.668 190.813 109.037C191 110.406 188.323 110.531 186.892 112.149C185.461 113.767 185.274 115.323 185.274 115.323L180.855 121.173C180.855 121.173 182.847 122.604 184.527 123.538C186.208 124.472 191.062 130.135 191.062 130.135L193.738 122.231L193.8 122.293Z" fill="url(#paint22_linear_2024_14038)"/>
<path d="M306.259 175.691C306.259 175.691 306.819 190.192 301.343 191.25C301.343 191.25 297.92 186.085 298.48 180.172C298.978 174.322 302.338 174.073 302.338 174.073C302.338 174.073 305.201 173.14 306.259 175.691Z" fill="url(#paint23_linear_2024_14038)"/>
<path d="M302.836 173.264C302.836 173.264 309.309 177.621 314.847 182.724C314.847 182.724 318.893 185.027 322.44 188.388C325.988 191.748 326.237 194.051 326.112 194.985C325.988 195.918 325.054 196.167 325.054 196.167C325.054 196.167 325.054 198.719 323.996 200.337C322.938 201.955 322.067 201.644 322.067 201.644C322.067 201.644 321.631 203.635 320.511 204.444C319.391 205.253 318.395 204.818 318.395 204.818C318.395 204.818 317.212 206.56 315.532 206.436C313.789 206.311 313.541 205.565 313.541 205.565L315.096 203.449C315.096 203.449 314.847 199.341 311.362 198.532L310.055 200.772C310.055 200.772 306.446 197.287 306.072 194.86C305.699 192.433 306.757 188.885 306.632 188.263C306.508 187.703 301.716 185.214 299.351 184.716C299.351 184.716 301.342 174.633 302.774 173.327L302.836 173.264Z" fill="url(#paint24_linear_2024_14038)"/>
<path d="M241.348 209.423C241.348 209.423 229.772 212.162 225.478 209.423C221.183 206.685 225.478 201.644 225.478 201.644L234.377 198.034L238.672 204.382L241.285 209.485L241.348 209.423Z" fill="url(#paint25_linear_2024_14038)"/>
<path d="M254.417 149.055L252.924 151.98C252.924 151.98 247.634 155.963 243.837 155.091C240.041 154.22 242.095 152.104 242.095 152.104C242.095 152.104 244.211 151.295 244.895 147.997C245.58 144.698 254.479 148.992 254.479 148.992L254.417 149.055Z" fill="url(#paint26_linear_2024_14038)"/>
<path d="M235 80.3464C235 80.3464 231.017 81.6534 229.461 89.0594C227.905 96.4655 232.199 98.7682 232.199 98.7682L236.742 87.5035L234.937 80.3464H235Z" fill="url(#paint27_linear_2024_14038)"/>
<path d="M276.947 130.757C276.947 130.757 280.121 129.513 283.855 131.566C287.527 133.62 287.963 137.728 286.78 140.466C285.598 143.204 282.548 146.316 276.947 147.685C271.408 149.055 267.363 146.752 267.549 143.827C267.736 140.902 276.947 130.82 276.947 130.82V130.757Z" fill="url(#paint28_linear_2024_14038)"/>
<path d="M236.431 147.188C241.037 149.677 248.754 150.237 254.791 149.615C257.529 149.366 259.894 148.868 261.512 148.183C266.678 146.005 269.478 142.582 273.524 136.359C276.262 132.127 280.245 125.716 282.859 119.991C284.041 117.314 284.975 114.763 285.286 112.585C285.722 109.846 285.846 106.423 284.975 102.751C284.726 101.756 284.477 100.822 284.104 99.8262C283.108 97.1501 281.614 94.4117 279.311 91.86C277.693 90.0552 275.702 88.3126 273.275 86.7567C258.712 77.2969 244.086 78.7905 236.742 87.4413C229.399 96.0921 228.776 104.058 228.092 111.278C227.781 114.452 226.909 116.941 225.976 119.181C224.793 121.982 223.549 124.534 223.237 127.894C222.677 133.869 229.71 143.578 236.431 147.188Z" fill="url(#paint29_linear_2024_14038)"/>
<path d="M226.038 119.244C226.038 119.244 232.51 120.924 235.186 122.729C235.186 122.729 238.609 119.866 239.792 109.162C239.792 109.162 241.223 100.884 247.447 97.9591C253.67 95.0963 257.031 102.44 257.031 102.44C257.031 102.44 251.617 118.372 251.554 125.965C251.554 125.965 257.591 129.077 265.993 131.38C265.993 131.38 269.291 128.952 272.901 123.165C272.901 123.165 271.283 136.172 266.989 141.898C263.504 146.565 257.093 148.93 254.853 149.615C257.591 149.366 259.956 148.868 261.574 148.183C266.74 146.005 269.54 142.582 273.586 136.359C276.324 132.127 280.307 125.716 282.921 119.991L285.099 102.814L285.224 101.569L284.228 99.8885L279.436 91.9223C277.818 90.1175 275.826 88.3749 273.399 86.819C258.836 77.3591 244.211 78.8528 236.867 87.5036C229.523 96.1543 228.901 104.12 228.216 111.34C227.905 114.514 227.034 117.003 226.1 119.244H226.038Z" fill="url(#paint30_linear_2024_14038)"/>
<path d="M246.202 66.7168C246.202 66.7168 246.7 66.7168 247.571 66.7168C247.136 66.6546 246.7 66.6546 246.202 66.7168Z" fill="url(#paint31_linear_2024_14038)"/>
<path d="M235 75.3676C235 75.3676 230.706 80.0353 232.946 85.8854C234.502 89.9307 237.676 92.2334 239.481 93.2915C239.543 93.2915 239.606 93.3537 239.668 93.4159C239.917 93.5404 240.166 93.6649 240.352 93.7893C240.477 93.7893 240.601 93.9138 240.664 93.9138C240.664 93.9138 240.726 93.9138 240.788 93.9138C236.307 90.9887 239.045 86.819 239.045 86.819C239.045 86.819 241.97 90.4286 253.235 89.9307C264.5 89.4328 273.648 89.744 279.374 96.341C285.099 102.938 283.544 107.046 283.544 107.046C283.544 107.046 280.432 111.215 278.689 117.439C276.947 123.662 277.382 128.828 277.382 128.828L275.391 133.247C280.432 127.77 290.078 122.107 291.323 116.941C291.572 115.821 291.634 114.576 291.572 113.331C291.261 109.224 289.456 105.241 289.269 104.867C293.75 107.917 297.235 106.361 297.235 106.361C297.235 106.361 290.825 105.116 287.34 101.009C287.029 100.635 286.718 100.262 286.406 99.8262C283.357 95.6564 281.303 89.9307 281.303 89.9307C280.183 87.2546 279.685 83.9561 273.648 77.9815C273.337 77.6081 272.964 77.2969 272.59 76.9235H272.528C271.781 76.1767 271.034 75.4921 270.163 74.7452C262.446 68.1483 251.555 66.9035 247.696 66.6546C249.439 66.9035 250.434 67.8371 250.434 67.8371C247.447 69.5174 248.754 72.9404 248.879 73.1893C248.567 72.9404 242.033 68.2727 236.618 70.6377C231.079 73.0649 230.768 79.973 230.768 79.973C231.826 75.6165 235.062 75.3054 235.062 75.3054L235 75.3676Z" fill="url(#paint32_linear_2024_14038)"/>
<path d="M272.776 111.464C272.776 111.464 271.718 106.797 267.673 103.249C262.819 99.0171 258.96 96.092 258.96 96.092C258.96 96.092 259.147 99.764 260.952 102.751C260.952 102.751 264.748 104.369 267.424 106.236C270.1 108.104 272.714 111.402 272.714 111.402L272.776 111.464Z" fill="url(#paint33_linear_2024_14038)"/>
<path d="M239.979 104.867C239.979 104.867 239.169 99.3906 235.684 97.2746C232.199 95.1585 229.523 101.195 229.523 101.195L229.336 101.88C229.336 101.88 230.643 99.4528 234.004 100.013C237.365 100.511 239.916 104.867 239.916 104.867H239.979Z" fill="url(#paint34_linear_2024_14038)"/>
<path d="M269.416 123.227C269.416 123.227 270.225 120.115 268.046 116.319C264.997 111.029 257.778 111.091 257.778 111.091V113.207C257.778 113.207 268.233 119.057 269.416 123.227Z" fill="#77485E"/>
<path d="M237.801 116.132C237.801 116.132 238.61 113.58 237.801 110.966C236.867 107.792 234.44 105.614 231.266 104.867C231.266 104.867 230.332 106.174 230.395 107.543C230.395 108.913 237.801 116.132 237.801 116.132Z" fill="#77485E"/>
<path d="M265.184 130.384C264.064 130.882 260.641 128.455 258.027 127.334C255.164 126.09 253.546 125.841 253.11 125.343C252.675 124.845 252.861 116.879 258.587 112.398C258.587 112.398 266.74 112.087 269.416 120.551C269.416 120.551 270.474 127.957 265.246 130.384H265.184Z" fill="url(#paint35_linear_2024_14038)"/>
<path d="M234.689 121.422C235.809 121.92 238.236 117.75 237.987 113.207C237.738 108.664 232.946 106.236 231.39 106.236C231.39 106.236 226.909 111.029 227.469 118.808C227.469 118.808 228.652 118.186 230.643 119.057C232.573 119.866 234.129 121.235 234.626 121.422H234.689Z" fill="url(#paint36_linear_2024_14038)"/>
<path d="M258.338 202.453C258.338 202.453 258.152 205.129 260.952 206.498C260.952 206.498 252.799 214.651 238.796 214.775C238.796 214.775 235.311 209.299 233.071 202.453C233.071 202.453 228.403 206.996 227.905 214.775C227.905 214.775 220.499 210.979 216.516 204.569C216.516 204.569 219.441 195.047 223.238 187.454C227.034 179.861 248.007 190.753 248.007 190.753C248.007 190.753 257.467 199.777 258.338 202.453Z" fill="url(#paint37_linear_2024_14038)"/>
<path d="M244.833 127.583C244.833 127.583 242.468 127.894 240.788 128.579C239.108 129.264 237.801 128.828 237.801 128.828C235.187 127.085 234.067 125.156 234.44 123.974C234.502 123.662 234.689 123.413 234.938 123.289C236.245 122.418 238.236 121.92 238.236 121.92C241.162 120.737 245.269 122.853 245.456 124.223C245.58 125.156 245.269 126.276 245.082 126.961C244.958 127.334 244.833 127.583 244.833 127.583Z" fill="url(#paint38_linear_2024_14038)"/>
<path d="M244.833 127.583C244.833 127.583 242.468 127.894 240.788 128.579C239.107 129.264 237.801 128.828 237.801 128.828C235.187 127.085 234.066 125.156 234.44 123.974C234.44 123.974 235.436 125.094 238.61 125.778C241.41 126.339 243.837 126.401 245.082 126.961C244.958 127.334 244.833 127.583 244.833 127.583Z" fill="url(#paint39_linear_2024_14038)"/>
<path d="M241.348 128.392C241.348 128.392 242.966 126.774 244.896 127.583C244.896 127.583 243.028 127.894 241.348 128.392Z" fill="#9F4A8B"/>
<path d="M204.816 144.449C212.907 149.304 229.835 163.804 229.835 163.804C229.835 163.804 229.212 165.174 228.217 167.29C226.474 170.899 223.487 176.563 220.375 180.67C216.579 185.774 210.542 190.939 208.301 193.678C208.052 193.927 207.866 194.175 207.741 194.424C207.492 194.798 207.368 195.109 207.368 195.296C207.492 196.852 207.741 197.163 207.741 197.163C207.368 195.296 215.085 189.01 232.76 192.806C250.372 196.603 258.339 202.515 258.339 202.515L258.774 203.76C258.774 203.76 259.148 203.262 259.459 202.702C259.708 202.204 259.957 201.644 259.894 201.208C259.894 200.897 259.646 200.586 259.334 200.337C258.774 199.777 257.903 199.341 257.778 199.279C257.778 199.279 255.165 193.74 255.102 185.649C254.978 177.559 256.72 174.571 256.72 174.571C258.712 173.327 275.64 177.683 282.673 179.55C288.211 180.982 294.808 184.404 297.858 186.894C298.667 187.578 299.227 188.201 299.476 188.636C299.476 188.761 299.601 188.885 299.663 189.01C300.534 190.877 301.219 191.25 301.343 191.313C299.849 186.583 301.468 176.563 303.646 174.633C303.957 174.322 304.517 174.571 306.26 175.816C306.322 174.509 305.388 173.638 305.388 173.638C303.397 172.269 298.48 169.717 286.469 165.672C274.457 161.626 265.807 157.705 261.201 154.469C256.534 151.233 253.422 151.108 253.422 151.108C253.422 151.108 253.173 151.295 252.737 151.606C251.43 152.54 248.319 154.469 244.896 154.158C240.29 153.785 243.464 151.108 243.464 151.108C243.464 151.108 242.033 150.548 240.539 149.988C239.046 149.428 234.751 148.93 229.212 145.943C228.652 145.632 228.092 145.32 227.47 144.885C221.869 141.275 213.84 133.994 210.417 130.508C206.621 126.588 196.601 123.351 196.601 123.351C195.543 120.302 194.174 120.737 194.174 120.737C190.253 124.658 190.004 134.118 190.004 134.118C190.004 134.118 196.663 139.781 204.754 144.636L204.816 144.449Z" fill="url(#paint40_linear_2024_14038)"/>
<path style="mix-blend-mode:multiply" opacity="0.6" d="M204.815 144.449C212.906 149.304 229.834 163.804 229.834 163.804C229.834 163.804 229.212 165.174 228.216 167.29C230.643 162.809 234.377 157.768 234.377 157.768C240.352 154.718 247.945 159.448 247.945 159.448L247.073 164.738C249.812 163.68 253.483 161.253 253.483 161.253L254.417 152.478L252.737 151.42C251.43 152.353 248.318 154.282 244.895 153.971C240.29 153.598 243.464 150.922 243.464 150.922C243.464 150.922 242.032 150.362 240.539 149.801C239.045 149.241 234.751 148.743 229.212 145.756C228.652 145.445 228.091 145.134 227.469 144.698C227.718 147.125 228.154 155.527 221.743 153.411C214.275 150.922 190.066 133.869 190.066 133.869C190.066 133.869 196.725 139.533 204.815 144.387V144.449Z" fill="url(#paint41_linear_2024_14038)"/>
<path d="M254.044 149.864C254.044 149.864 255.102 150.362 255.911 151.544C255.911 151.544 253.235 161.315 247.136 164.738C247.136 164.738 246.016 156.398 245.331 155.029C244.709 153.847 243.837 153.847 243.837 153.847C243.837 153.847 245.144 152.478 246.389 152.727C246.389 152.727 250.995 153.224 253.982 149.801L254.044 149.864Z" fill="url(#paint42_linear_2024_14038)"/>
<path style="mix-blend-mode:multiply" opacity="0.6" d="M282.672 179.488C288.211 180.919 294.808 184.342 297.857 186.832C295.928 184.653 293.314 182.102 290.202 180.11C283.606 175.94 263.939 170.775 263.939 170.775C263.939 170.775 258.4 163.742 259.023 157.332L255.6 167.041C255.6 167.041 253.235 170.401 251.492 174.758C249.75 179.052 253.733 193.366 253.857 193.802C253.484 193.553 240.477 184.716 229.71 185.276C229.71 185.276 237.365 186.769 243.837 189.819C250.31 192.869 255.475 197.536 257.84 199.154C257.84 199.154 255.226 193.615 255.164 185.525C255.04 177.434 256.782 174.447 256.782 174.447C258.774 173.202 275.702 177.559 282.734 179.426L282.672 179.488Z" fill="url(#paint43_linear_2024_14038)"/>
<path d="M242.717 153.411C242.717 153.411 242.095 152.602 241.348 152.602C240.601 152.602 236.307 154.158 234.378 157.768C234.378 157.768 236.431 151.544 242.468 149.179L244.397 149.49C244.397 149.49 243.588 151.108 243.153 151.98C242.717 152.789 242.717 153.411 242.717 153.411Z" fill="url(#paint44_linear_2024_14038)"/>
<path d="M261.201 154.345C261.201 154.345 259.147 152.54 259.023 157.332C258.898 162.062 258.898 171.957 271.905 182.6C271.905 182.6 274.644 189.757 269.416 191.25C269.416 191.25 260.703 182.849 255.786 170.837C250.87 158.826 255.164 150.61 255.164 150.61C255.164 150.61 261.139 148.743 261.139 154.345H261.201Z" fill="url(#paint45_linear_2024_14038)"/>
<path d="M241.348 149.739C241.348 149.739 238.61 147.748 235.311 148.432C235.311 148.432 224.98 156.149 225.914 171.895C225.914 171.895 229.897 164.489 232.075 160.133C234.253 155.714 238.049 152.291 238.049 152.291C238.049 152.291 239.481 150.735 241.41 149.801L241.348 149.739Z" fill="url(#paint46_linear_2024_14038)"/>
<path d="M233.568 131.38C233.568 131.38 234.315 132.375 234.377 135.612C234.377 137.23 234.315 139.159 234.626 140.902C235 142.707 235.746 144.325 237.613 145.196C240.538 146.565 246.077 144.511 249.749 140.093C250.683 138.91 251.554 137.603 252.114 136.11L251.803 135.363C251.803 135.363 249.625 135.798 248.007 135.363C246.389 134.927 238.734 130.135 233.444 131.317L233.568 131.38Z" fill="#9F3E8B"/>
<path d="M234.688 140.902C235.062 142.707 235.809 144.325 237.676 145.196C240.601 146.565 246.14 144.511 249.812 140.093C249.812 140.093 245.019 137.728 240.476 138.35C237.178 138.786 235.373 140.155 234.626 140.902H234.688Z" fill="url(#paint47_linear_2024_14038)"/>
<path d="M245.953 134.367C245.953 134.367 241.908 136.11 238.609 135.238C235.249 134.305 235.186 132.624 235.186 132.313C235.186 132.002 235.622 131.193 235.622 131.193C235.622 131.193 239.916 131.193 245.891 134.429L245.953 134.367Z" fill="#FFEBED"/>
<path d="M241.971 145.32C241.971 145.32 240.788 143.702 238.859 142.769C236.93 141.835 235.747 142.271 235.685 142.458C235.623 142.644 235.56 143.267 235.56 143.267C235.56 143.267 236.432 145.009 238.361 145.383C240.29 145.818 241.971 145.258 241.971 145.258V145.32Z" fill="#FFEBED"/>
<path d="M251.057 138.412C251.057 138.412 248.63 142.707 244.398 145.196C240.166 147.748 235.498 145.881 234.689 143.578C233.818 141.275 234.44 137.479 234.44 136.234C234.44 136.234 234.627 140.528 235.062 142.146C235.498 143.827 237.303 145.756 241.037 145.383C244.709 145.009 248.381 141.773 251.119 138.35L251.057 138.412Z" fill="url(#paint48_linear_2024_14038)"/>
<path d="M248.193 135.425C248.193 135.425 244.397 132.438 239.978 131.193C235.56 129.948 233.63 131.38 233.63 131.38C233.63 131.38 236.182 130.944 240.601 132.126C245.019 133.309 246.949 135.238 248.193 135.425Z" fill="url(#paint49_linear_2024_14038)"/>
<path d="M253.048 136.483C253.048 136.483 252.052 134.927 249.998 134.305C249.998 134.305 249.936 134.989 250.372 135.425C250.807 135.798 252.425 135.985 253.048 136.545V136.483Z" fill="url(#paint50_linear_2024_14038)"/>
<path d="M267.735 124.409C266.802 127.334 263.69 128.952 260.889 128.019C258.089 127.085 256.533 123.974 257.467 121.049C258.4 118.123 261.512 116.505 264.312 117.439C267.175 118.372 268.669 121.484 267.735 124.409Z" fill="url(#paint51_radial_2024_14038)"/>
<path d="M266.179 123.911C265.495 125.965 263.379 127.085 261.45 126.401C259.458 125.778 258.4 123.6 259.085 121.609C259.769 119.555 261.885 118.435 263.814 119.119C265.806 119.742 266.864 121.92 266.179 123.911Z" fill="url(#paint52_linear_2024_14038)"/>
<path d="M237.738 115.385C237.302 118.248 235.435 120.364 233.63 120.053C231.826 119.742 230.705 117.19 231.141 114.327C231.577 111.464 233.444 109.348 235.249 109.659C237.053 109.971 238.174 112.522 237.738 115.385Z" fill="url(#paint53_radial_2024_14038)"/>
<path d="M237.676 115.51C237.365 117.688 235.933 119.244 234.564 119.057C233.195 118.87 232.324 116.941 232.697 114.763C233.008 112.584 234.44 111.029 235.809 111.215C237.178 111.402 238.049 113.331 237.676 115.51Z" fill="url(#paint54_linear_2024_14038)"/>
<path d="M256.596 120.239C256.596 120.924 257.156 121.422 257.778 121.422C258.401 121.422 258.961 120.862 258.961 120.239C258.961 119.617 258.401 119.057 257.778 119.057C257.156 119.057 256.596 119.617 256.596 120.239Z" fill="white"/>
<path d="M230.394 113.58C230.394 114.078 230.768 114.452 231.265 114.452C231.763 114.452 232.137 114.078 232.137 113.58C232.137 113.082 231.763 112.709 231.265 112.709C230.768 112.709 230.394 113.082 230.394 113.58Z" fill="white"/>
<path d="M272.652 140.902C272.652 140.902 274.831 137.603 279.685 137.417C284.539 137.23 286.406 139.595 286.406 139.595C286.406 139.595 282.423 138.039 278.876 138.723C278.876 138.723 278.316 142.52 277.382 144.138C276.449 145.756 274.27 145.569 274.27 145.569C274.27 145.569 275.826 143.765 275.328 141.897C274.831 140.03 272.59 140.902 272.59 140.902H272.652Z" fill="url(#paint55_linear_2024_14038)"/>
<path style="mix-blend-mode:multiply" opacity="0.5" d="M239.48 93.3537C239.543 93.3537 239.605 93.416 239.667 93.4782C239.916 93.6027 240.165 93.7271 240.352 93.8516C240.476 93.8516 240.601 93.9761 240.663 93.9761C240.663 93.9761 240.725 93.9761 240.787 93.9761C236.306 91.051 239.045 86.8812 239.045 86.8812C239.045 86.8812 241.97 90.4909 253.234 89.993C264.499 89.4951 273.648 89.8063 279.373 96.4033C285.099 103 283.543 107.108 283.543 107.108C283.543 107.108 280.431 111.278 278.689 117.501C276.946 123.725 277.382 128.89 277.382 128.89L275.39 133.309C280.431 127.832 290.078 122.169 291.322 117.003C291.571 115.883 291.634 114.638 291.571 113.394C291.447 114.265 291.136 115.198 290.638 116.07C287.713 121.298 281.676 123.974 281.676 123.974C281.676 123.974 286.032 116.132 286.406 111.402C286.779 106.734 285.161 101.507 285.161 101.507C285.161 101.507 286.406 107.917 285.286 111.838C284.228 115.572 279.871 121.671 279.498 122.107C279.622 121.609 281.427 113.207 283.107 109.535C284.85 105.739 283.107 101.569 283.481 100.449C283.854 99.3283 286.406 99.9507 286.406 99.9507C283.356 95.7809 281.302 90.0552 281.302 90.0552C280.182 87.3791 279.684 84.0806 273.648 78.106C274.954 79.5374 277.07 82.2758 278.004 86.0722C278.751 89.3084 280.431 92.7936 281.8 95.283C279 90.8643 273.585 83.4582 266.926 81.1555C257.591 77.857 249.314 73.5005 248.816 73.3138C249.189 73.5628 257.155 79.5374 259.022 81.9646C260.952 84.454 249.5 81.7779 242.281 83.0848C235.684 84.2673 235.373 90.6776 239.48 93.416V93.3537Z" fill="url(#paint56_linear_2024_14038)"/>
<path d="M277.444 94.5362C277.444 94.5362 274.333 86.0721 269.789 84.7029C264.002 82.9603 260.89 91.4866 265.993 96.0921C265.993 96.0921 265.495 93.6649 266.615 91.4866C267.798 89.3084 274.955 91.9845 277.444 94.5362Z" fill="url(#paint57_linear_2024_14038)"/>
<path style="mix-blend-mode:multiply" opacity="0.5" d="M235 75.3676C235 75.3676 239.543 73.1271 245.518 74.2474C245.518 74.2474 234.191 75.1187 232.324 81.1555C232.324 81.1555 232.884 77.3592 234.938 75.3676H235Z" fill="url(#paint58_linear_2024_14038)"/>
<path style="mix-blend-mode:multiply" opacity="0.9" d="M297.795 160.07H288.709L277.942 162.498V157.83L278.876 160.568C278.876 160.568 291.26 153.66 294.497 151.42C294.497 151.42 297.546 154.033 298.978 155.838L297.733 160.07H297.795Z" fill="url(#paint59_linear_2024_14038)"/>
<path d="M305.326 175.069C305.326 175.069 302.775 180.359 302.339 185.711L300.783 185.089C300.783 185.089 300.098 177.434 303.646 174.509C303.646 174.509 304.393 174.384 305.326 175.007V175.069Z" fill="url(#paint60_linear_2024_14038)"/>
<path d="M325.055 196.105C325.055 196.105 324.619 193.802 323.872 192.62C323.872 192.62 325.428 194.051 325.739 195.669C325.739 195.669 325.49 196.043 325.055 196.105Z" fill="url(#paint61_linear_2024_14038)"/>
<path d="M322.13 201.581C322.13 201.581 322.441 199.528 322.13 197.785C322.13 197.785 323.437 199.777 323.001 201.333C323.001 201.333 323.001 201.644 322.13 201.581Z" fill="url(#paint62_linear_2024_14038)"/>
<path d="M318.458 204.818C318.458 204.818 319.08 203.324 319.08 202.204C319.08 202.204 319.454 203.76 319.08 204.88C319.08 204.88 318.956 205.129 318.458 204.756V204.818Z" fill="url(#paint63_linear_2024_14038)"/>
<path style="mix-blend-mode:multiply" opacity="0.6" d="M301.343 191.25C301.218 191.126 300.658 190.255 299.662 188.948C300.534 190.815 301.218 191.188 301.343 191.25Z" fill="url(#paint64_linear_2024_14038)"/>
<path style="mix-blend-mode:multiply" opacity="0.6" d="M259.396 200.275C258.836 199.714 257.965 199.279 257.841 199.217C258.463 199.652 258.961 199.963 259.396 200.275Z" fill="url(#paint65_linear_2024_14038)"/>
<path style="mix-blend-mode:multiply" opacity="0.6" d="M207.741 197.101C207.367 195.233 215.084 188.948 232.759 192.744C250.372 196.54 258.338 202.453 258.338 202.453L258.773 203.697C258.773 203.697 259.147 203.2 259.458 202.639C257.28 200.772 251.181 196.354 238.049 192.62C222.179 188.076 211.101 190.877 208.238 193.615C207.989 193.864 207.803 194.113 207.678 194.362C207.554 194.673 207.429 194.985 207.305 195.233C207.429 196.789 207.678 197.101 207.678 197.101H207.741Z" fill="url(#paint66_linear_2024_14038)"/>
<path d="M193.24 121.858L191.933 120.551C191.933 120.551 188.324 123.04 187.079 125.778L190.564 129.513C190.564 129.513 191.186 124.098 193.24 121.795V121.858Z" fill="url(#paint67_linear_2024_14038)"/>
<path style="mix-blend-mode:multiply" opacity="0.6" d="M233.071 202.453L235.125 192.682C235.125 192.682 236.681 208.925 238.734 214.838C238.734 214.838 234.565 208.303 233.009 202.515L233.071 202.453Z" fill="url(#paint68_linear_2024_14038)"/>
<path style="mix-blend-mode:multiply" d="M259.396 205.004C259.396 205.004 230.519 193.553 218.321 199.217L221.309 191.562C221.309 191.562 237.739 190.815 258.338 202.453C258.338 202.453 257.903 203.511 259.396 205.004Z" fill="url(#paint69_linear_2024_14038)"/>
<path style="mix-blend-mode:multiply" d="M196.228 308.129C196.663 308.689 198.281 309.809 202.7 308.129C207.056 306.449 209.359 304.955 214.151 302.714C218.881 300.536 220.562 297.984 220.562 297.984C220.001 294.437 218.197 291.574 218.197 291.574C216.392 292.197 214.151 290.827 214.151 290.827C211.973 288.525 205.625 285.911 205.003 286.782C204.443 287.716 206.123 291.512 206.123 291.512C206.123 291.512 210.791 292.383 214.96 297.113C214.96 297.113 206.745 305.577 201.455 306.822C198.966 307.382 197.286 307.693 196.228 307.88C196.228 307.942 196.228 308.004 196.228 308.067V308.129Z" fill="url(#paint70_linear_2024_14038)"/>
<path d="M71.6953 103.934C70.9485 98.4571 73.6868 93.8516 73.6868 93.8516L75.5539 93.416L76.7986 101.32C78.8524 103.125 81.2173 103.187 81.2173 103.187C81.2173 103.187 83.3333 102.129 84.4535 99.5773L82.213 91.8601L84.0801 91.4244C84.0801 91.4244 88.4988 94.4118 90.1792 99.7018C90.1792 99.7018 90.6148 101.507 90.6148 101.693C90.6148 102.751 89.7435 104.556 86.8807 106.485L91.2994 131.629C93.1042 132.375 94.5356 133.931 95.0335 135.985C95.7803 139.346 93.6643 142.644 90.3659 143.391C87.0052 144.138 83.7067 142.022 82.9599 138.724C82.5242 136.67 83.1466 134.616 84.4535 133.185L77.7321 108.539C74.4337 108.041 72.8155 106.797 72.3176 105.801C72.1932 105.614 71.882 103.809 71.882 103.809L71.6953 103.934ZM87.8142 140.777L91.1749 140.03L92.2329 136.732L89.868 134.18L86.5073 134.927L85.4493 138.226L87.8142 140.777Z" fill="url(#paint71_linear_2024_14038)"/>
<path d="M72.1308 105.925C71.384 100.449 74.1224 95.8432 74.1224 95.8432L75.9894 95.4076L77.2341 103.311C79.2879 105.116 81.6528 105.179 81.6528 105.179C81.6528 105.179 83.7688 104.121 84.8891 101.569L82.6486 93.8517L84.5157 93.416C84.5157 93.416 88.9343 96.4033 90.6147 101.693C90.6147 101.693 90.6769 106.174 87.3162 108.477L91.7349 133.62C93.5398 134.367 94.9712 135.923 95.4691 137.977C96.2159 141.337 94.0999 144.636 90.8014 145.383C87.4407 146.13 84.1422 144.014 83.3954 140.715C82.9598 138.661 83.5821 136.608 84.8891 135.176L78.1677 110.531C74.1224 109.908 72.3175 105.801 72.3175 105.801L72.1308 105.925ZM88.2498 142.769L91.6105 142.022L92.6685 138.724L90.3035 136.172L86.9428 136.919L85.8848 140.217L88.2498 142.769Z" fill="url(#paint72_linear_2024_14038)"/>
<path d="M84.0012 91.4724L84.4492 93.4767L82.6271 93.884L82.1791 91.8796L84.0012 91.4724Z" fill="#E5E2FF"/>
<path d="M75.5403 93.3282L75.9883 95.3325L74.1662 95.7398L73.7182 93.7355L75.5403 93.3282Z" fill="#E5E2FF"/>
<path d="M91.2317 139.956L91.6797 141.96L88.2785 142.72L87.8304 140.716L91.2317 139.956Z" fill="#E5E2FF"/>
<path d="M86.1963 111.402L89.8682 131.815C87.9389 133.434 85.6984 132.749 85.6984 132.749L80.0972 112.771C82.7733 110.531 86.1963 111.402 86.1963 111.402ZM86.383 132.438C86.7564 132.438 87.2543 132.438 87.8766 132.313C88.3123 132.189 88.7479 132.064 89.1836 131.815L85.7606 111.713C85.1383 111.713 84.1425 111.713 83.0223 111.9C82.2132 112.087 81.4042 112.398 80.7196 112.771L86.4452 132.376L86.383 132.438Z" fill="url(#paint73_linear_2024_14038)"/>
<path d="M86.383 132.438L85.6984 132.749C85.6984 132.749 87.7522 133.62 89.8682 131.815H89.1213C89.1213 131.815 87.9389 132.5 86.383 132.438Z" fill="#E5E2FF"/>
<path style="mix-blend-mode:multiply" opacity="0.6" d="M86.1963 111.402L85.6984 111.651C85.6984 111.651 83.3957 111.278 80.6573 112.771H80.0972C80.0972 112.771 80.9063 111.838 82.96 111.402C85.0138 110.966 86.1341 111.402 86.1341 111.402H86.1963Z" fill="url(#paint74_linear_2024_14038)"/>
<path style="mix-blend-mode:multiply" opacity="0.6" d="M87.1921 108.539C87.1921 108.539 83.0223 110.717 78.0435 110.593L78.9148 113.767C78.9148 113.767 79.1638 111.776 82.4 110.904C86.1963 109.846 87.8145 112.273 87.8145 112.273L87.2543 108.539H87.1921Z" fill="url(#paint75_linear_2024_14038)"/>
<path style="mix-blend-mode:screen" opacity="0.5" d="M78.8521 113.767C79.1633 112.709 79.9723 112.087 79.9723 112.087L86.3203 135.487L84.7022 135.238L78.8521 113.767Z" fill="url(#paint76_linear_2024_14038)"/>
<path d="M78.8527 113.767C78.8527 113.767 81.4666 115.51 80.0974 118.372L78.8527 113.767Z" fill="white"/>
<path opacity="0.8" d="M6.72134 229.276H69.4545C72.2551 229.276 74.5578 227.036 74.62 224.235L75.8025 172.766C75.8647 169.904 73.562 167.539 70.637 167.539H5.28993C2.42711 167.539 0.0621796 169.904 0.124413 172.829L1.55582 224.298C1.61806 227.098 3.92075 229.276 6.72134 229.276Z" fill="url(#paint77_linear_2024_14038)"/>
<path d="M6.72115 229.401H69.4543C72.3171 229.401 74.682 227.098 74.7443 224.235L75.9268 172.766C75.9268 171.335 75.4289 169.966 74.4331 168.97C73.4373 167.912 72.0682 167.352 70.6368 167.352H5.28974C3.85834 167.352 2.48914 167.912 1.49337 168.97C0.497604 170.028 -0.0624847 171.397 -0.00025177 172.829L1.43115 224.298C1.49339 227.16 3.85833 229.463 6.72115 229.463V229.401ZM70.6368 167.663C72.0059 167.663 73.2506 168.223 74.1842 169.157C75.1177 170.153 75.6156 171.397 75.6156 172.766L74.4331 224.235C74.4331 226.911 72.1304 229.09 69.4543 229.09H6.72115C3.9828 229.09 1.80457 226.974 1.74232 224.235L0.310921 172.766C0.310921 171.397 0.746567 170.153 1.74232 169.157C2.67586 168.161 3.9828 167.663 5.28974 167.663H70.6368Z" fill="#473DA2"/>
<path d="M25.8893 178.056H58.874V179.488H25.8893V178.056Z" fill="white"/>
<path d="M42.3817 181.479H58.874V182.911H42.3817V181.479Z" fill="white"/>
<path d="M42.3817 184.342H58.874V185.774H42.3817V184.342Z" fill="white"/>
<path d="M27.383 184.342H40.5146V185.774H27.383V184.342Z" fill="white"/>
<path d="M32.2996 187.205H58.874V188.637H32.2996V187.205Z" fill="white"/>
<path d="M49.4143 190.068H58.874V191.499H49.4143V190.068Z" fill="white"/>
<path d="M31.1175 198.719H47.4854V200.15H31.1175V198.719Z" fill="white"/>
<path d="M29.1878 192.931H58.874V194.362H29.1878V192.931Z" fill="white"/>
<path d="M36.0337 195.794H58.874V197.225H36.0337V195.794Z" fill="white"/>
<path d="M48.1073 198.719H58.874V200.15H48.1073V198.719Z" fill="white"/>
<path d="M42.3817 201.582H58.874V203.013H42.3817V201.582Z" fill="white"/>
<path d="M54.1442 204.444H58.874V205.876H54.1442V204.444Z" fill="white"/>
<path d="M35.0379 204.444H52.2148V205.876H35.0379V204.444Z" fill="white"/>
<path d="M31.1175 207.183H47.4854V208.614H31.1175V207.183Z" fill="white"/>
<path d="M48.1073 207.183H58.874V208.614H48.1073V207.183Z" fill="white"/>
<path d="M42.3817 210.108H58.874V211.539H42.3817V210.108Z" fill="white"/>
<path d="M54.1442 212.971H58.874V214.402H54.1442V212.971Z" fill="white"/>
<path d="M35.0379 212.971H52.2148V214.402H35.0379V212.971Z" fill="white"/>
<path d="M339.618 132.251C339.618 133.807 340.863 135.114 342.481 135.114C344.099 135.114 345.344 133.869 345.344 132.251C345.344 130.633 344.099 129.388 342.481 129.388C340.863 129.388 339.618 130.633 339.618 132.251Z" fill="url(#paint78_linear_2024_14038)"/>
<path opacity="0.7" d="M97.6475 42.1961H141.523C145.071 42.1961 147.934 39.3955 148.058 35.848L149.054 6.9707C149.178 3.29879 146.191 0.187012 142.519 0.187012H96.7762C93.1044 0.187012 90.1171 3.23656 90.2415 6.90846L91.1128 35.7858C91.2373 39.3332 94.1001 42.1338 97.6475 42.1338V42.1961Z" fill="url(#paint79_linear_2024_14038)"/>
<path d="M97.6475 42.3827H141.523C145.195 42.3827 148.183 39.5199 148.307 35.848L149.303 6.97064C149.365 5.10357 148.68 3.36097 147.373 2.05402C146.067 0.747072 144.386 0.000244141 142.519 0.000244141H96.7762C94.9091 0.000244141 93.2288 0.747072 91.9218 2.05402C90.6149 3.36097 89.9303 5.10357 89.9925 6.97064L90.8638 35.848C90.9883 39.5199 93.9756 42.3827 97.6475 42.3827ZM142.519 0.435894C144.262 0.435894 145.88 1.12049 147.062 2.3652C148.245 3.60991 148.867 5.22804 148.867 6.97064L147.871 35.848C147.747 39.2709 145.009 41.9471 141.523 41.9471H97.6475C94.2245 41.9471 91.4239 39.2709 91.2995 35.848L90.4282 6.97064C90.4282 5.22804 90.9883 3.60991 92.233 2.3652C93.4155 1.12049 95.0336 0.435894 96.7762 0.435894H142.519Z" fill="#953DA2"/>
<path d="M129.823 10.5803L140.652 23.1519L129.637 32.4873V27.6329L135.985 22.1562L130.072 15.4347L129.823 10.5803Z" fill="white"/>
<path d="M110.842 11.1404L100.013 23.712L111.028 33.0474V28.193L104.618 22.7163L111.713 15.1858L110.842 11.1404Z" fill="white"/>
<path d="M127.458 32.4873L118.06 11.7006H113.642L124.284 32.4873H127.458Z" fill="white"/>
<path d="M133.059 217.638L140.776 223.115L142.954 219.007L135.486 214.651L133.059 217.638Z" fill="#4F31E0"/>
<path fill-rule="evenodd" clip-rule="evenodd" d="M347.148 72.1314L346.277 51.5314H373.287L372.167 72.1314H347.148Z" fill="url(#paint80_linear_2024_14038)"/>
<path fill-rule="evenodd" clip-rule="evenodd" d="M346.277 51.5314L345.468 52.7761L346.277 72.1314H347.148L346.277 51.5314Z" fill="url(#paint81_linear_2024_14038)"/>
<path d="M356.671 55.7012C356.671 55.7012 353.684 55.5767 353.186 55.8256C352.688 56.0746 353.31 60.8667 353.31 60.8667L352.128 61.9247L353.248 62.9827C353.248 62.9827 353.248 67.8993 353.87 68.2728C354.555 68.7084 356.92 68.2728 356.92 68.2728V67.028C356.92 67.028 354.991 67.1525 354.679 66.9036C354.368 66.6546 354.368 62.3604 354.368 62.3604L353.87 61.8002L354.368 61.1779C354.368 61.1779 354.244 58.1283 354.368 57.3193C354.368 56.7592 356.671 56.7592 356.671 56.7592V55.6389V55.7012Z" fill="white"/>
<path d="M363.455 55.7012C363.455 55.7012 366.442 55.5767 366.94 55.8256C367.438 56.0746 366.816 60.8667 366.816 60.8667L367.998 61.9247L366.878 62.9827C366.878 62.9827 366.878 67.8993 366.255 68.2728C365.571 68.7084 363.206 68.2728 363.206 68.2728V67.028C363.206 67.028 365.135 67.1525 365.446 66.9036C365.758 66.6546 365.758 62.3604 365.758 62.3604L366.255 61.8002L365.758 61.1779C365.758 61.1779 365.882 58.1283 365.758 57.3193C365.758 56.7592 363.455 56.7592 363.455 56.7592V55.6389V55.7012Z" fill="white"/>
<path d="M135.704 223.122L141.512 231.057L141.16 231.314L135.353 223.379L135.704 223.122Z" fill="#744CA2"/>
<path d="M111.899 127.894L118.122 120.115L117.811 119.866L111.525 127.646L111.899 127.894Z" fill="#744CA2"/>
<path d="M374.594 212.722L377.457 200.524L377.084 200.461L374.221 212.597L374.594 212.722Z" fill="#744CA2"/>
<path d="M369.709 205.048L381.949 207.628L381.872 207.993L369.632 205.414L369.709 205.048Z" fill="#744CA2"/>
</g>
<defs>
<linearGradient id="paint0_linear_2024_14038" x1="188.697" y1="296.304" x2="230.457" y2="144.698" gradientUnits="userSpaceOnUse">
<stop stop-color="#1C257B"/>
<stop offset="1" stop-color="#482C83"/>
</linearGradient>
<linearGradient id="paint1_linear_2024_14038" x1="174.946" y1="85.7208" x2="174.976" y2="125.688" gradientUnits="userSpaceOnUse">
<stop stop-color="#D93DE3"/>
<stop offset="1" stop-color="#FF6DBA"/>
</linearGradient>
<linearGradient id="paint2_linear_2024_14038" x1="166.977" y1="128.713" x2="168.184" y2="124.333" gradientUnits="userSpaceOnUse">
<stop stop-color="#A242EA"/>
<stop offset="1" stop-color="#D3119C"/>
</linearGradient>
<linearGradient id="paint3_linear_2024_14038" x1="183.077" y1="114.556" x2="164.2" y2="95.6718" gradientUnits="userSpaceOnUse">
<stop stop-color="#A242EA"/>
<stop offset="1" stop-color="#D3119C"/>
</linearGradient>
<linearGradient id="paint4_linear_2024_14038" x1="162.684" y1="123.206" x2="168.684" y2="101.425" gradientUnits="userSpaceOnUse">
<stop stop-color="#B9ACF4"/>
<stop offset="1" stop-color="#E1D1F5"/>
</linearGradient>
<linearGradient id="paint5_linear_2024_14038" x1="264.064" y1="308.129" x2="264.064" y2="282.488" gradientUnits="userSpaceOnUse">
<stop stop-color="#CCB8FF"/>
<stop offset="1" stop-color="#AF8BC2"/>
</linearGradient>
<linearGradient id="paint6_linear_2024_14038" x1="214.088" y1="293.068" x2="214.088" y2="282.923" gradientUnits="userSpaceOnUse">
<stop stop-color="#FF817F"/>
<stop offset="1" stop-color="#CF6074"/>
</linearGradient>
<linearGradient id="paint7_linear_2024_14038" x1="240.29" y1="292.446" x2="240.29" y2="205.565" gradientUnits="userSpaceOnUse">
<stop stop-color="#8642A0"/>
<stop offset="1" stop-color="#6456C0"/>
</linearGradient>
<linearGradient id="paint8_linear_2024_14038" x1="264.064" y1="286.471" x2="264.064" y2="277.945" gradientUnits="userSpaceOnUse">
<stop stop-color="#CCB8FF"/>
<stop offset="1" stop-color="#AF8BC2"/>
</linearGradient>
<linearGradient id="paint9_linear_2024_14038" x1="239.294" y1="292.446" x2="239.294" y2="205.565" gradientUnits="userSpaceOnUse">
<stop stop-color="#CCB8FF"/>
<stop offset="1" stop-color="#AF8BC2"/>
</linearGradient>
<linearGradient id="paint10_linear_2024_14038" x1="281.738" y1="174.758" x2="281.738" y2="143.204" gradientUnits="userSpaceOnUse">
<stop stop-color="#51276F"/>
<stop offset="1" stop-color="#563886"/>
</linearGradient>
<linearGradient id="paint11_linear_2024_14038" x1="282.05" y1="207.743" x2="282.05" y2="144.885" gradientUnits="userSpaceOnUse">
<stop stop-color="#8642A0"/>
<stop offset="1" stop-color="#6456C0"/>
</linearGradient>
<linearGradient id="paint12_linear_2024_14038" x1="276.946" y1="159.697" x2="292.568" y2="122.978" gradientUnits="userSpaceOnUse">
<stop stop-color="#6F63D8"/>
<stop offset="1" stop-color="#7689E8"/>
</linearGradient>
<linearGradient id="paint13_linear_2024_14038" x1="287.34" y1="160.568" x2="287.34" y2="130.197" gradientUnits="userSpaceOnUse">
<stop stop-color="#CCB8FF"/>
<stop offset="1" stop-color="#AF8BC2"/>
</linearGradient>
<linearGradient id="paint14_linear_2024_14038" x1="261.014" y1="207.743" x2="261.014" y2="139.657" gradientUnits="userSpaceOnUse">
<stop stop-color="#51276F"/>
<stop offset="1" stop-color="#563886"/>
</linearGradient>
<linearGradient id="paint15_linear_2024_14038" x1="272.466" y1="174.758" x2="272.466" y2="144.138" gradientUnits="userSpaceOnUse">
<stop stop-color="#8642A0"/>
<stop offset="1" stop-color="#6456C0"/>
</linearGradient>
<linearGradient id="paint16_linear_2024_14038" x1="224.109" y1="210.606" x2="224.109" y2="188.014" gradientUnits="userSpaceOnUse">
<stop stop-color="#B31A8F"/>
<stop offset="1" stop-color="#92117E"/>
</linearGradient>
<linearGradient id="paint17_linear_2024_14038" x1="325.303" y1="188.014" x2="325.303" y2="179.239" gradientUnits="userSpaceOnUse">
<stop stop-color="#B31A8F"/>
<stop offset="1" stop-color="#FE117E"/>
</linearGradient>
<linearGradient id="paint18_linear_2024_14038" x1="306.633" y1="214.589" x2="306.633" y2="207.245" gradientUnits="userSpaceOnUse">
<stop stop-color="#B9ACF4"/>
<stop offset="1" stop-color="#E1D1F5"/>
</linearGradient>
<linearGradient id="paint19_linear_2024_14038" x1="315.47" y1="211.975" x2="315.47" y2="184.778" gradientUnits="userSpaceOnUse">
<stop stop-color="#5142D8"/>
<stop offset="1" stop-color="#3989E8"/>
</linearGradient>
<linearGradient id="paint20_linear_2024_14038" x1="304.828" y1="214.775" x2="304.828" y2="212.473" gradientUnits="userSpaceOnUse">
<stop stop-color="#5142D8"/>
<stop offset="1" stop-color="#3989E8"/>
</linearGradient>
<linearGradient id="paint21_linear_2024_14038" x1="323.436" y1="189.819" x2="323.436" y2="182.6" gradientUnits="userSpaceOnUse">
<stop stop-color="#B9ACF4"/>
<stop offset="1" stop-color="#E1D1F5"/>
</linearGradient>
<linearGradient id="paint22_linear_2024_14038" x1="188.012" y1="130.197" x2="188.012" y2="102.814" gradientUnits="userSpaceOnUse">
<stop stop-color="#FFC2A9"/>
<stop offset="1" stop-color="#FF9595"/>
</linearGradient>
<linearGradient id="paint23_linear_2024_14038" x1="302.338" y1="191.25" x2="302.338" y2="173.887" gradientUnits="userSpaceOnUse">
<stop stop-color="#B31A8F"/>
<stop offset="1" stop-color="#92117E"/>
</linearGradient>
<linearGradient id="paint24_linear_2024_14038" x1="312.794" y1="206.436" x2="312.794" y2="173.264" gradientUnits="userSpaceOnUse">
<stop stop-color="#FFC2A9"/>
<stop offset="1" stop-color="#FF9595"/>
</linearGradient>
<linearGradient id="paint25_linear_2024_14038" x1="232.448" y1="210.668" x2="232.448" y2="197.972" gradientUnits="userSpaceOnUse">
<stop stop-color="#FF817F"/>
<stop offset="1" stop-color="#CF6074"/>
</linearGradient>
<linearGradient id="paint26_linear_2024_14038" x1="247.945" y1="155.216" x2="247.945" y2="146.814" gradientUnits="userSpaceOnUse">
<stop stop-color="#FF817F"/>
<stop offset="1" stop-color="#CF6074"/>
</linearGradient>
<linearGradient id="paint27_linear_2024_14038" x1="232.946" y1="98.7682" x2="232.946" y2="80.3464" gradientUnits="userSpaceOnUse">
<stop stop-color="#2E33A0"/>
<stop offset="1" stop-color="#0665A5"/>
</linearGradient>
<linearGradient id="paint28_linear_2024_14038" x1="277.445" y1="148.059" x2="277.445" y2="130.384" gradientUnits="userSpaceOnUse">
<stop stop-color="#FFAC8B"/>
<stop offset="1" stop-color="#FF9595"/>
</linearGradient>
<linearGradient id="paint29_linear_2024_14038" x1="254.417" y1="149.864" x2="254.417" y2="80.3464" gradientUnits="userSpaceOnUse">
<stop stop-color="#FFC2A9"/>
<stop offset="1" stop-color="#FF9595"/>
</linearGradient>
<linearGradient id="paint30_linear_2024_14038" x1="255.6" y1="149.677" x2="255.6" y2="80.3465" gradientUnits="userSpaceOnUse">
<stop stop-color="#FFA58B"/>
<stop offset="1" stop-color="#FF898E"/>
</linearGradient>
<linearGradient id="paint31_linear_2024_14038" x1="246.949" y1="66.7791" x2="246.949" y2="66.7168" gradientUnits="userSpaceOnUse">
<stop stop-color="#5142D8"/>
<stop offset="1" stop-color="#3989E8"/>
</linearGradient>
<linearGradient id="paint32_linear_2024_14038" x1="263.939" y1="133.371" x2="263.939" y2="66.7791" gradientUnits="userSpaceOnUse">
<stop stop-color="#5142D8"/>
<stop offset="1" stop-color="#3989E8"/>
</linearGradient>
<linearGradient id="paint33_linear_2024_14038" x1="272.776" y1="103.809" x2="259.022" y2="103.809" gradientUnits="userSpaceOnUse">
<stop stop-color="#0665A5"/>
<stop offset="1" stop-color="#BD33A0"/>
</linearGradient>
<linearGradient id="paint34_linear_2024_14038" x1="239.979" y1="100.884" x2="229.399" y2="100.884" gradientUnits="userSpaceOnUse">
<stop stop-color="#BD33A0"/>
<stop offset="1" stop-color="#0665A5"/>
</linearGradient>
<linearGradient id="paint35_linear_2024_14038" x1="261.201" y1="130.446" x2="261.201" y2="112.398" gradientUnits="userSpaceOnUse">
<stop stop-color="#D0C7F8"/>
<stop offset="1" stop-color="white"/>
</linearGradient>
<linearGradient id="paint36_linear_2024_14038" x1="232.697" y1="121.484" x2="232.697" y2="106.236" gradientUnits="userSpaceOnUse">
<stop stop-color="#D0C7F8"/>
<stop offset="1" stop-color="white"/>
</linearGradient>
<linearGradient id="paint37_linear_2024_14038" x1="238.734" y1="214.775" x2="238.734" y2="184.778" gradientUnits="userSpaceOnUse">
<stop stop-color="#B9ACF4"/>
<stop offset="1" stop-color="#E1D1F5"/>
</linearGradient>
<linearGradient id="paint38_linear_2024_14038" x1="238.435" y1="128.854" x2="241.698" y2="121.314" gradientUnits="userSpaceOnUse">
<stop stop-color="#FF8883"/>
<stop offset="1" stop-color="#FFB1A4"/>
</linearGradient>
<linearGradient id="paint39_linear_2024_14038" x1="238.435" y1="128.854" x2="240.264" y2="124.627" gradientUnits="userSpaceOnUse">
<stop stop-color="#FF8883"/>
<stop offset="1" stop-color="#E8868D"/>
</linearGradient>
<linearGradient id="paint40_linear_2024_14038" x1="248.194" y1="203.698" x2="248.194" y2="120.551" gradientUnits="userSpaceOnUse">
<stop stop-color="#B31A8F"/>
<stop offset="1" stop-color="#FE117E"/>
</linearGradient>
<linearGradient id="paint41_linear_2024_14038" x1="222.241" y1="167.352" x2="222.241" y2="133.931" gradientUnits="userSpaceOnUse">
<stop stop-color="#CCB8FF"/>
<stop offset="1" stop-color="#AF8BC2"/>
</linearGradient>
<linearGradient id="paint42_linear_2024_14038" x1="249.812" y1="164.8" x2="249.812" y2="149.864" gradientUnits="userSpaceOnUse">
<stop stop-color="#B9ACF4"/>
<stop offset="1" stop-color="#E1D1F5"/>
</linearGradient>
<linearGradient id="paint43_linear_2024_14038" x1="263.815" y1="199.217" x2="263.815" y2="157.332" gradientUnits="userSpaceOnUse">
<stop stop-color="#CCB8FF"/>
<stop offset="1" stop-color="#AF8BC2"/>
</linearGradient>
<linearGradient id="paint44_linear_2024_14038" x1="239.419" y1="157.768" x2="239.419" y2="149.179" gradientUnits="userSpaceOnUse">
<stop stop-color="#B9ACF4"/>
<stop offset="1" stop-color="#E1D1F5"/>
</linearGradient>
<linearGradient id="paint45_linear_2024_14038" x1="263.068" y1="191.25" x2="263.068" y2="150.299" gradientUnits="userSpaceOnUse">
<stop stop-color="#8642A0"/>
<stop offset="1" stop-color="#6456C0"/>
</linearGradient>
<linearGradient id="paint46_linear_2024_14038" x1="233.569" y1="171.833" x2="233.569" y2="148.246" gradientUnits="userSpaceOnUse">
<stop stop-color="#8642A0"/>
<stop offset="1" stop-color="#6456C0"/>
</linearGradient>
<linearGradient id="paint47_linear_2024_14038" x1="242.281" y1="145.632" x2="242.281" y2="138.288" gradientUnits="userSpaceOnUse">
<stop stop-color="#CF6074"/>
<stop offset="1" stop-color="#E04A7F"/>
</linearGradient>
<linearGradient id="paint48_linear_2024_14038" x1="242.655" y1="146.441" x2="242.655" y2="136.234" gradientUnits="userSpaceOnUse">
<stop stop-color="#FFB1A4"/>
<stop offset="1" stop-color="#FF8883"/>
</linearGradient>
<linearGradient id="paint49_linear_2024_14038" x1="240.85" y1="135.425" x2="240.85" y2="130.695" gradientUnits="userSpaceOnUse">
<stop stop-color="#FF8883"/>
<stop offset="1" stop-color="#E8868D"/>
</linearGradient>
<linearGradient id="paint50_linear_2024_14038" x1="251.492" y1="136.483" x2="251.492" y2="134.305" gradientUnits="userSpaceOnUse">
<stop stop-color="#FF8883"/>
<stop offset="1" stop-color="#E8868D"/>
</linearGradient>
<radialGradient id="paint51_radial_2024_14038" cx="0" cy="0" r="1" gradientUnits="userSpaceOnUse" gradientTransform="translate(286.941 133.233) rotate(18.0001) scale(5.47671 5.47673)">
<stop stop-color="#CF95FF"/>
<stop offset="1" stop-color="#8161FF"/>
</radialGradient>
<linearGradient id="paint52_linear_2024_14038" x1="227.323" y1="115.503" x2="229.708" y2="108.163" gradientUnits="userSpaceOnUse">
<stop stop-color="#8642A0"/>
<stop offset="1" stop-color="#4E37B7"/>
</linearGradient>
<radialGradient id="paint53_radial_2024_14038" cx="0" cy="0" r="1" gradientUnits="userSpaceOnUse" gradientTransform="translate(189.79 109.709) rotate(8.80006) scale(3.09931 5.16556)">
<stop stop-color="#CF95FF"/>
<stop offset="1" stop-color="#8161FF"/>
</radialGradient>
<linearGradient id="paint54_linear_2024_14038" x1="283.234" y1="126.144" x2="284.444" y2="118.333" gradientUnits="userSpaceOnUse">
<stop stop-color="#8642A0"/>
<stop offset="1" stop-color="#4E37B7"/>
</linearGradient>
<linearGradient id="paint55_linear_2024_14038" x1="286.406" y1="141.524" x2="272.652" y2="141.524" gradientUnits="userSpaceOnUse">
<stop stop-color="#FF817F"/>
<stop offset="1" stop-color="#CF6074"/>
</linearGradient>
<linearGradient id="paint56_linear_2024_14038" x1="264.188" y1="133.371" x2="264.188" y2="73.3138" gradientUnits="userSpaceOnUse">
<stop stop-color="#9D68C2"/>
<stop offset="1" stop-color="#CCEDFF"/>
</linearGradient>
<linearGradient id="paint57_linear_2024_14038" x1="270.412" y1="96.1543" x2="270.412" y2="84.5162" gradientUnits="userSpaceOnUse">
<stop stop-color="#5142D8"/>
<stop offset="1" stop-color="#3989E8"/>
</linearGradient>
<linearGradient id="paint58_linear_2024_14038" x1="238.921" y1="81.2178" x2="238.921" y2="73.9362" gradientUnits="userSpaceOnUse">
<stop stop-color="#CCEDFF"/>
<stop offset="1" stop-color="#9D68C2"/>
</linearGradient>
<linearGradient id="paint59_linear_2024_14038" x1="288.522" y1="162.498" x2="288.522" y2="151.42" gradientUnits="userSpaceOnUse">
<stop stop-color="#CCB8FF"/>
<stop offset="1" stop-color="#AF8BC2"/>
</linearGradient>
<linearGradient id="paint60_linear_2024_14038" x1="303.023" y1="185.711" x2="303.023" y2="174.509" gradientUnits="userSpaceOnUse">
<stop stop-color="#FF817F"/>
<stop offset="1" stop-color="#CF6074"/>
</linearGradient>
<linearGradient id="paint61_linear_2024_14038" x1="324.868" y1="196.105" x2="324.868" y2="192.62" gradientUnits="userSpaceOnUse">
<stop stop-color="#FF817F"/>
<stop offset="1" stop-color="#CF6074"/>
</linearGradient>
<linearGradient id="paint62_linear_2024_14038" x1="322.628" y1="201.581" x2="322.628" y2="197.785" gradientUnits="userSpaceOnUse">
<stop stop-color="#FF817F"/>
<stop offset="1" stop-color="#CF6074"/>
</linearGradient>
<linearGradient id="paint63_linear_2024_14038" x1="318.831" y1="205.004" x2="318.831" y2="202.204" gradientUnits="userSpaceOnUse">
<stop stop-color="#FF817F"/>
<stop offset="1" stop-color="#CF6074"/>
</linearGradient>
<linearGradient id="paint64_linear_2024_14038" x1="300.471" y1="191.25" x2="300.471" y2="188.948" gradientUnits="userSpaceOnUse">
<stop stop-color="#CCB8FF"/>
<stop offset="1" stop-color="#AF8BC2"/>
</linearGradient>
<linearGradient id="paint65_linear_2024_14038" x1="258.587" y1="200.275" x2="258.587" y2="199.217" gradientUnits="userSpaceOnUse">
<stop stop-color="#CCB8FF"/>
<stop offset="1" stop-color="#AF8BC2"/>
</linearGradient>
<linearGradient id="paint66_linear_2024_14038" x1="233.444" y1="203.697" x2="233.444" y2="190.255" gradientUnits="userSpaceOnUse">
<stop stop-color="#CCB8FF"/>
<stop offset="1" stop-color="#AF8BC2"/>
</linearGradient>
<linearGradient id="paint67_linear_2024_14038" x1="190.128" y1="129.575" x2="190.128" y2="120.551" gradientUnits="userSpaceOnUse">
<stop stop-color="#CF6074"/>
<stop offset="1" stop-color="#FF817F"/>
</linearGradient>
<linearGradient id="paint68_linear_2024_14038" x1="235.934" y1="214.775" x2="235.934" y2="192.62" gradientUnits="userSpaceOnUse">
<stop stop-color="#CCB8FF"/>
<stop offset="1" stop-color="#AF8BC2"/>
</linearGradient>
<linearGradient id="paint69_linear_2024_14038" x1="238.859" y1="205.004" x2="238.859" y2="191.562" gradientUnits="userSpaceOnUse">
<stop stop-color="#CCB8FF"/>
<stop offset="1" stop-color="#AF8BC2"/>
</linearGradient>
<linearGradient id="paint70_linear_2024_14038" x1="208.363" y1="309" x2="208.363" y2="286.658" gradientUnits="userSpaceOnUse">
<stop stop-color="#CCB8FF"/>
<stop offset="1" stop-color="#AF8BC2"/>
</linearGradient>
<linearGradient id="paint71_linear_2024_14038" x1="89.9933" y1="143.623" x2="78.6434" y2="92.8475" gradientUnits="userSpaceOnUse">
<stop stop-color="#DBCCFF"/>
<stop offset="1" stop-color="#D1BBFF"/>
</linearGradient>
<linearGradient id="paint72_linear_2024_14038" x1="90.4412" y1="145.628" x2="79.0778" y2="94.7911" gradientUnits="userSpaceOnUse">
<stop stop-color="#B5A6E7"/>
<stop offset="1" stop-color="#7760BF"/>
</linearGradient>
<linearGradient id="paint73_linear_2024_14038" x1="87.6176" y1="132.995" x2="82.8252" y2="111.554" gradientUnits="userSpaceOnUse">
<stop stop-color="#B5A6E7"/>
<stop offset="1" stop-color="#7760BF"/>
</linearGradient>
<linearGradient id="paint74_linear_2024_14038" x1="85.9571" y1="111.301" x2="79.8834" y2="112.658" gradientUnits="userSpaceOnUse">
<stop stop-color="#8B8BE0"/>
<stop offset="1" stop-color="#A177B7"/>
</linearGradient>
<linearGradient id="paint75_linear_2024_14038" x1="83.2461" y1="113.437" x2="82.418" y2="109.732" gradientUnits="userSpaceOnUse">
<stop stop-color="white"/>
<stop offset="1" stop-color="#A177B7"/>
</linearGradient>
<linearGradient id="paint76_linear_2024_14038" x1="84.8869" y1="135.901" x2="79.6057" y2="112.274" gradientUnits="userSpaceOnUse">
<stop/>
<stop offset="1" stop-color="white"/>
</linearGradient>
<linearGradient id="paint77_linear_2024_14038" x1="43.0045" y1="232.637" x2="34.3537" y2="163.805" gradientUnits="userSpaceOnUse">
<stop stop-color="#067EFF"/>
<stop offset="1" stop-color="#3E37A0"/>
</linearGradient>
<linearGradient id="paint78_linear_2024_14038" x1="342.419" y1="135.052" x2="342.419" y2="129.388" gradientUnits="userSpaceOnUse">
<stop stop-color="#8642A0"/>
<stop offset="1" stop-color="#6456C0"/>
</linearGradient>
<linearGradient id="paint79_linear_2024_14038" x1="119.617" y1="42.1961" x2="119.617" y2="0.249247" gradientUnits="userSpaceOnUse">
<stop stop-color="#D906E3"/>
<stop offset="1" stop-color="#FF6DF9"/>
</linearGradient>
<linearGradient id="paint80_linear_2024_14038" x1="355.799" y1="74.4963" x2="362.769" y2="48.6686" gradientUnits="userSpaceOnUse">
<stop stop-color="#188DC1"/>
<stop offset="1" stop-color="#06BFE7"/>
</linearGradient>
<linearGradient id="paint81_linear_2024_14038" x1="343.85" y1="71.509" x2="349.016" y2="52.2782" gradientUnits="userSpaceOnUse">
<stop stop-color="#1852A0"/>
<stop offset="1" stop-color="#067ED3"/>
</linearGradient>
<clipPath id="clip0_2024_14038">
<rect width="382" height="309" fill="white" transform="matrix(-1 0 0 1 382 0.000244141)"/>
</clipPath>
</defs>
</svg>
