<?xml version="1.0" encoding="UTF-8"?>
<svg width="87.001mm" height="29.369mm" version="1.1" viewBox="0 0 87.001 29.369" xml:space="preserve" xmlns="http://www.w3.org/2000/svg"><defs><filter id="b" x=".51953" y=".02002" width="178.84" height="35.512" color-interpolation-filters="sRGB" filterUnits="userSpaceOnUse"><feFlood flood-opacity="0" result="BackgroundImageFix"/><feColorMatrix in="SourceAlpha" result="hardAlpha" values="0 0 0 0 0 0 0 0 0 0 0 0 0 0 0 0 0 0 127 0"/><feOffset dy="2"/><feGaussianBlur stdDeviation="2"/><feComposite in2="hardAlpha" operator="out"/><feColorMatrix values="0 0 0 0 0 0 0 0 0 0 0 0 0 0 0 0 0 0 0.25 0"/><feBlend in2="BackgroundImageFix" result="effect1_dropShadow_463_960"/><feBlend in="SourceGraphic" in2="effect1_dropShadow_463_960" result="shape"/></filter><filter id="a" x="-11.892" y="-12" width="328.82" height="111" color-interpolation-filters="sRGB" filterUnits="userSpaceOnUse"><feFlood flood-opacity="0" result="BackgroundImageFix"/><feBlend in="SourceGraphic" in2="BackgroundImageFix" result="shape"/><feColorMatrix in="SourceAlpha" result="hardAlpha" values="0 0 0 0 0 0 0 0 0 0 0 0 0 0 0 0 0 0 127 0"/><feOffset dx="-12" dy="-12"/><feGaussianBlur stdDeviation="12"/><feComposite in2="hardAlpha" k2="-1" k3="1" operator="arithmetic"/><feColorMatrix values="0 0 0 0 0.497291 0 0 0 0 0.212865 0 0 0 0 0.7625 0 0 0 1 0"/><feBlend in2="shape" result="effect1_innerShadow_463_520"/><feColorMatrix in="SourceAlpha" result="hardAlpha" values="0 0 0 0 0 0 0 0 0 0 0 0 0 0 0 0 0 0 127 0"/><feOffset dx="12" dy="12"/><feGaussianBlur stdDeviation="12"/><feComposite in2="hardAlpha" k2="-1" k3="1" operator="arithmetic"/><feColorMatrix values="0 0 0 0 0.506771 0 0 0 0 0.236979 0 0 0 0 0.758333 0 0 0 1 0"/><feBlend in2="effect1_innerShadow_463_520" result="effect2_innerShadow_463_520"/></filter></defs><g transform="translate(-61.841 -142.8)" fill="none"><g transform="matrix(.26458 0 0 .26458 64.988 145.97)"><path d="m2.1702 20.895c1.0288-9.864 9.1626-17.49 19.072-17.887 99.95-4.0029 162.95-4.0154 262.95-0.01493 10.066 0.40272 18.271 8.2576 19.109 18.297l1.564 18.75c0.093 1.1067 0.093 2.2192 0 3.3259l-1.645 19.719c-0.802 9.6162-8.356 17.303-17.968 18.148-88.475 7.7771-176.55 7.6157-265.01-0.0551-9.4736-0.8214-16.982-8.2909-17.969-17.749l-2.0495-19.652c-0.14386-1.3794-0.14386-2.7699-1e-6 -4.1493z" fill="#9b51e0" filter="url(#a)"/></g><g transform="matrix(.26458 0 0 .26458 81.545 152.78)"><path d="m6.9135 11.786c-0.27866 0-0.50666-0.0887-0.684-0.266-0.17733-0.1773-0.266-0.4053-0.266-0.684v-2.584c0-0.27867 0.08867-0.50667 0.266-0.684 0.17734-0.17733 0.40534-0.266 0.684-0.266h9.842c2.2547 0 4.142 0.32933 5.662 0.988s2.66 1.672 3.42 3.04 1.14 3.1287 1.14 5.282v11.438c0 0.2787-0.0887 0.5067-0.266 0.684s-0.3927 0.266-0.646 0.266h-3.61c-0.2787 0-0.5067-0.0887-0.684-0.266s-0.266-0.3927-0.266-0.646v-11.286c0-1.6213-0.3927-2.8627-1.178-3.724s-2.052-1.292-3.8-1.292zm4.37-2.432h1.52c0.608 0 1.026 0.12667 1.254 0.38 0.2533 0.25333 0.342 0.532 0.266 0.836-0.228 0.8613-0.418 1.6847-0.57 2.47-0.152 0.76-0.2533 1.5327-0.304 2.318-0.0507 0.76-0.076 1.634-0.076 2.622l0.228 10.07c0 0.2787-0.0887 0.5067-0.266 0.684s-0.4053 0.266-0.684 0.266l-7.22-0.038c-0.25333 0-0.46866-0.0887-0.646-0.266-0.17733-0.1773-0.266-0.4053-0.266-0.684v-2.394c0-0.2787 0.08867-0.5067 0.266-0.684 0.17734-0.1773 0.39267-0.266 0.646-0.266l3.04 0.038v-6.65c0-0.8867 0.01267-1.7227 0.038-2.508 0.05067-0.7853 0.13934-1.5833 0.266-2.394 0.152-0.8107 0.36734-1.672 0.646-2.584 0.12667-0.3293 0.31667-0.608 0.57-0.836 0.25332-0.25333 0.68402-0.38 1.292-0.38zm21.367 19.646c-0.2787 0-0.5067-0.0887-0.684-0.266-0.1774-0.1773-0.266-0.4053-0.266-0.684v-19.798c0-0.27867 0.0886-0.50667 0.266-0.684 0.1773-0.17733 0.4053-0.266 0.684-0.266h3.8c0.2533 0 0.4686 0.08867 0.646 0.266 0.1773 0.17733 0.266 0.40533 0.266 0.684v19.798c0 0.2787-0.0887 0.5067-0.266 0.684-0.1774 0.1773-0.3927 0.266-0.646 0.266zm21.253 0c-0.2787 0-0.5067-0.0887-0.684-0.266-0.1774-0.1773-0.266-0.3927-0.266-0.646v-11.286c0-1.6213-0.4054-2.8627-1.216-3.724-0.7854-0.8613-2.0394-1.292-3.762-1.292h-5.51c-0.2534 0-0.4687-0.0887-0.646-0.266-0.1774-0.1773-0.266-0.4053-0.266-0.684v-2.584c0-0.27867 0.0886-0.50667 0.266-0.684 0.1773-0.17733 0.3926-0.266 0.646-0.266h5.738c2.2546 0 4.142 0.31667 5.662 0.95s2.66 1.634 3.42 3.002c0.76 1.3427 1.14 3.116 1.14 5.32v11.476c0 0.2787-0.0887 0.5067-0.266 0.684-0.1774 0.1773-0.3927 0.266-0.646 0.266zm9.3803 0c-0.2787 0-0.5067-0.0887-0.684-0.266s-0.266-0.4053-0.266-0.684v-2.584c0-0.2787 0.0887-0.5067 0.266-0.684s0.4053-0.266 0.684-0.266h9.956v-7.714c0-1.596-0.4053-2.8247-1.216-3.686-0.7853-0.8867-2.0393-1.33-3.762-1.33h-4.598c-0.2787 0-0.5067-0.0887-0.684-0.266s-0.266-0.3927-0.266-0.646v-2.622c0-0.27867 0.0887-0.50667 0.266-0.684s0.4053-0.266 0.684-0.266h4.788c2.2547 0 4.1547 0.32933 5.7 0.988s2.7233 1.6847 3.534 3.078c0.8107 1.368 1.216 3.1667 1.216 5.396v7.752h1.33c0.2787 0 0.5067 0.0887 0.684 0.266s0.266 0.4053 0.266 0.684v2.584c0 0.2787-0.0887 0.5067-0.266 0.684s-0.4053 0.266-0.684 0.266zm22.321 0c-0.2786 0-0.5066-0.0887-0.684-0.266-0.1773-0.1773-0.266-0.4053-0.266-0.684v-19.798c0-0.27867 0.0887-0.50667 0.266-0.684 0.1774-0.17733 0.4054-0.266 0.684-0.266h8.474c2.28 0 4.18 0.32933 5.7 0.988 1.5205 0.63333 2.6605 1.6467 3.4205 3.04 0.76 1.3933 1.14 3.2047 1.14 5.434v11.286c0 0.2787-0.089 0.5067-0.266 0.684-0.178 0.1773-0.406 0.266-0.684 0.266h-3.6105c-0.2533 0-0.4686-0.0887-0.646-0.266-0.1773-0.1773-0.266-0.3927-0.266-0.646v-11.286c0-1.6213-0.4053-2.8627-1.216-3.724-0.7853-0.8613-2.0393-1.292-3.762-1.292h-3.762v16.264c0 0.2787-0.0886 0.5067-0.266 0.684-0.1773 0.1773-0.3926 0.266-0.646 0.266zm25.102-17.214c-0.278 0-0.506-0.0887-0.684-0.266-0.177-0.1773-0.266-0.4053-0.266-0.684v-2.584c0-0.27867 0.089-0.50667 0.266-0.684 0.178-0.17733 0.406-0.266 0.684-0.266h9.842c2.255 0 4.142 0.32933 5.662 0.988s2.66 1.672 3.42 3.04 1.14 3.1287 1.14 5.282v11.438c0 0.2787-0.088 0.5067-0.266 0.684-0.177 0.1773-0.392 0.266-0.646 0.266h-3.61c-0.278 0-0.506-0.0887-0.684-0.266-0.177-0.1773-0.266-0.3927-0.266-0.646v-11.286c0-1.6213-0.392-2.8627-1.178-3.724-0.785-0.8613-2.052-1.292-3.8-1.292zm4.37-2.432h1.52c0.608 0 1.026 0.12667 1.254 0.38 0.254 0.25333 0.342 0.532 0.266 0.836-0.228 0.8613-0.418 1.6847-0.57 2.47-0.152 0.76-0.253 1.5327-0.304 2.318-0.05 0.76-0.076 1.634-0.076 2.622l0.228 10.07c0 0.2787-0.088 0.5067-0.266 0.684-0.177 0.1773-0.405 0.266-0.684 0.266l-7.22-0.038c-0.253 0-0.468-0.0887-0.646-0.266-0.177-0.1773-0.266-0.4053-0.266-0.684v-2.394c0-0.2787 0.089-0.5067 0.266-0.684 0.178-0.1773 0.393-0.266 0.646-0.266l3.04 0.038v-6.65c0-0.8867 0.013-1.7227 0.038-2.508 0.051-0.7853 0.14-1.5833 0.266-2.394 0.152-0.8107 0.368-1.672 0.646-2.584 0.127-0.3293 0.317-0.608 0.57-0.836 0.254-0.25333 0.684-0.38 1.292-0.38zm35.427 19.646c-0.253 0-0.468-0.0887-0.646-0.266-0.177-0.1773-0.266-0.3927-0.266-0.646v-11.286c0-1.6213-0.405-2.8627-1.216-3.724-0.785-0.8613-2.039-1.292-3.762-1.292h-8.17c-0.278 0-0.506-0.0887-0.684-0.266-0.177-0.1773-0.266-0.4053-0.266-0.684v-2.584c0-0.27867 0.089-0.50667 0.266-0.684 0.178-0.17733 0.406-0.266 0.684-0.266h8.36c3.37 0 5.916 0.77267 7.638 2.318 1.748 1.5453 2.622 3.9267 2.622 7.144v11.286c0 0.2787-0.088 0.5067-0.266 0.684-0.177 0.1773-0.405 0.266-0.684 0.266zm-14.06 0c-0.278 0-0.506-0.0887-0.684-0.266-0.177-0.1773-0.266-0.4053-0.266-0.684v-11.59c0-0.2533 0.089-0.4687 0.266-0.646 0.178-0.2027 0.406-0.304 0.684-0.304h3.61c0.254 0 0.469 0.1013 0.646 0.304 0.178 0.1773 0.266 0.3927 0.266 0.646v11.59c0 0.2787-0.088 0.5067-0.266 0.684-0.177 0.1773-0.392 0.266-0.646 0.266zm27.778 0.456c-0.253 0.0507-0.481-0.0253-0.684-0.228-0.202-0.2027-0.304-0.4307-0.304-0.684v-3.192c0-0.228 0.076-0.4433 0.228-0.646 0.178-0.228 0.406-0.3927 0.684-0.494l1.292-0.532c0.786-0.3293 1.495-0.7473 2.128-1.254 0.659-0.5067 1.178-1.1907 1.558-2.052 0.406-0.8613 0.608-1.976 0.608-3.344 0-1.216-0.152-2.1913-0.456-2.926-0.278-0.76-0.76-1.3047-1.444-1.634s-1.634-0.494-2.85-0.494h-0.95c-0.253 0-0.481-0.0887-0.684-0.266-0.177-0.1773-0.266-0.3927-0.266-0.646v-2.85c0-0.25334 0.089-0.46867 0.266-0.646 0.203-0.17733 0.431-0.266 0.684-0.266h2.014c2.28 0 4.092 0.35467 5.434 1.064 1.368 0.70933 2.356 1.786 2.964 3.23 0.608 1.4187 0.912 3.2047 0.912 5.358 0 1.7227-0.266 3.2553-0.798 4.598s-1.254 2.508-2.166 3.496c-0.912 0.9627-1.938 1.7733-3.078 2.432-1.114 0.6333-2.292 1.1273-3.534 1.482zm1.026-17.48h-5.928c-0.278 0-0.506-0.0887-0.684-0.266-0.177-0.1773-0.266-0.3927-0.266-0.646v-8.094c0-0.27867 0.089-0.50667 0.266-0.684 0.178-0.17733 0.406-0.266 0.684-0.266h3.306c0.254 0 0.469 0.08867 0.646 0.266 0.178 0.17733 0.266 0.40533 0.266 0.684v4.332h1.748z" fill="#fff" filter="url(#b)"/></g></g></svg>
