<svg width="420" height="456" viewBox="0 0 420 456" fill="none" xmlns="http://www.w3.org/2000/svg">
<path fill-rule="evenodd" clip-rule="evenodd" d="M-252.071 277.842C-250.721 278.367 -249.514 278.595 -248.478 278.48C-219.38 283.542 -29.8218 314.503 222.668 308.719C497.453 302.424 729.68 255.416 729.68 255.416L739.921 144.647C739.921 144.647 738.728 144.337 736.391 143.765L738.43 101.963C738.43 101.963 722.226 98.4829 692.258 93.893L666.516 95.6038C665.806 66.2834 665.005 44.8573 664.39 45.3177C663.676 45.5312 662.967 45.7431 662.26 45.9534C660.58 22.0636 659.178 5.58 658.655 6.00815C556.688 41.4291 524.793 39.9879 503.849 39.0416C501.379 38.93 499.061 38.8252 496.798 38.7887C449.092 38.1621 235.652 11.9717 235.652 11.9717C235.652 11.9717 90.4524 -4.07188 -25.0247 45.6243C-113.405 83.6591 -192.003 75.5963 -224.023 69.7181C-231.339 67.919 -235.317 66.561 -235.317 66.561L-235.299 67.3509C-237.907 66.7217 -239.279 66.319 -239.279 66.319L-233.241 157.168L-233.059 165.116C-235.682 166.121 -237.038 166.794 -237.038 166.794L-238.721 167.538L-321.082 199.777C-321.082 199.777 -320.315 200.959 -318.939 203.031L-319.176 203.136C-319.176 203.136 -317.711 205.189 -315.192 208.618C-300.659 230.092 -263.464 282.884 -252.366 277.788C-252.366 277.788 -252.267 277.806 -252.071 277.842Z" fill="#FBF7FF"/>
<path fill-rule="evenodd" clip-rule="evenodd" d="M-252.071 277.842C-250.721 278.367 -249.514 278.595 -248.478 278.48C-219.38 283.542 -29.8218 314.503 222.668 308.719C497.453 302.424 729.68 255.416 729.68 255.416L739.921 144.647C739.921 144.647 738.728 144.337 736.391 143.765L738.43 101.963C738.43 101.963 722.226 98.4829 692.258 93.893L666.516 95.6038C665.806 66.2834 665.005 44.8573 664.39 45.3177C663.676 45.5312 662.967 45.7431 662.26 45.9534C660.58 22.0636 659.178 5.58 658.655 6.00815C556.688 41.4291 524.793 39.9879 503.849 39.0416C501.379 38.93 499.061 38.8252 496.798 38.7887C449.092 38.1621 235.652 11.9717 235.652 11.9717C235.652 11.9717 90.4524 -4.07188 -25.0247 45.6243C-113.405 83.6591 -192.003 75.5963 -224.023 69.7181C-231.339 67.919 -235.317 66.561 -235.317 66.561L-235.299 67.3509C-237.907 66.7217 -239.279 66.319 -239.279 66.319L-233.241 157.168L-233.059 165.116C-235.682 166.121 -237.038 166.794 -237.038 166.794L-238.721 167.538L-321.082 199.777C-321.082 199.777 -320.315 200.959 -318.939 203.031L-319.176 203.136C-319.176 203.136 -317.711 205.189 -315.192 208.618C-300.659 230.092 -263.464 282.884 -252.366 277.788C-252.366 277.788 -252.267 277.806 -252.071 277.842Z" fill="#FBF7FF"/>
<mask id="mask0_2823_5507" style="mask-type:alpha" maskUnits="userSpaceOnUse" x="-2" y="0" width="426" height="456">
<rect x="-2" width="426" height="456" fill="#D9D9D9"/>
</mask>
<g mask="url(#mask0_2823_5507)">
<path fill-rule="evenodd" clip-rule="evenodd" d="M-252.071 417.891C-250.721 418.416 -249.514 418.644 -248.478 418.529C-219.38 423.591 -29.8218 454.552 222.668 448.768C497.453 442.473 729.68 395.465 729.68 395.465L739.921 284.696C739.921 284.696 738.728 284.386 736.391 283.814L738.43 242.011C738.43 242.011 722.226 238.532 692.258 233.942L666.516 235.653C665.806 206.332 665.005 184.906 664.39 185.367C663.676 185.58 662.967 185.792 662.26 186.002C660.58 162.113 659.178 145.629 658.655 146.057C556.688 181.478 524.793 180.037 503.849 179.091C501.379 178.979 499.061 178.874 496.798 178.838C449.092 178.211 235.652 152.021 235.652 152.021C235.652 152.021 90.4524 135.977 -25.0247 185.673C-113.405 223.708 -192.003 215.645 -224.023 209.767C-231.339 207.968 -235.317 206.61 -235.317 206.61L-235.299 207.4C-237.907 206.771 -239.279 206.368 -239.279 206.368L-233.241 297.217L-233.059 305.165C-235.682 306.17 -237.038 306.843 -237.038 306.843L-238.721 307.587L-321.082 339.826C-321.082 339.826 -320.315 341.008 -318.939 343.08L-319.176 343.185C-319.176 343.185 -317.711 345.238 -315.192 348.667C-300.659 370.141 -263.464 422.933 -252.366 417.837C-252.366 417.837 -252.267 417.855 -252.071 417.891Z" fill="#FBF7FF"/>
</g>
</svg>
