<svg width="1280" height="523" viewBox="0 0 1280 523" fill="none" xmlns="http://www.w3.org/2000/svg">
<mask id="mask0_2425_410" style="mask-type:alpha" maskUnits="userSpaceOnUse" x="0" y="0" width="1280" height="523">
<rect width="1280" height="523" fill="#D9D9D9"/>
</mask>
<g mask="url(#mask0_2425_410)">
<path fill-rule="evenodd" clip-rule="evenodd" d="M-135.16 459.62C-132.932 460.487 -130.941 460.862 -129.231 460.672C-81.2281 469.024 231.494 520.101 648.036 510.559C1101.36 500.173 1484.47 422.623 1484.47 422.623L1501.37 239.884C1501.37 239.884 1499.4 239.371 1495.54 238.428L1498.91 169.465C1498.91 169.465 1472.18 163.724 1422.74 156.152L1380.27 158.975C1379.1 110.604 1377.78 75.2561 1376.76 76.0158C1375.58 76.368 1374.41 76.7177 1373.25 77.0646C1370.48 37.6526 1368.16 10.459 1367.3 11.1653C1199.08 69.6006 1146.46 67.2231 1111.91 65.6618C1107.83 65.4777 1104.01 65.3049 1100.28 65.2446C1021.58 64.211 669.456 21.0036 669.456 21.0036C669.456 21.0036 429.915 -5.46413 239.408 76.5215C93.606 139.268 -36.0579 125.968 -88.8843 116.271C-100.956 113.302 -107.518 111.062 -107.518 111.062L-107.488 112.365C-111.793 111.327 -114.056 110.662 -114.056 110.662L-104.094 260.554L-103.794 273.652C-108.121 275.309 -110.359 276.419 -110.359 276.419L-113.141 277.65L-249.009 330.834C-249.009 330.834 -247.743 332.782 -245.473 336.201L-245.864 336.374C-245.864 336.374 -243.445 339.766 -239.284 345.43C-215.302 380.864 -153.952 467.938 -135.645 459.531C-135.645 459.531 -135.482 459.561 -135.16 459.62Z" fill="#FBF7FF"/>
</g>
</svg>
