<svg width="414" height="351" viewBox="0 0 414 351" fill="none" xmlns="http://www.w3.org/2000/svg">
<g clip-path="url(#clip0_2024_14212)">
<path d="M205.768 170.681C205.768 170.681 208.085 169.956 209.026 171.84C209.967 173.725 212.863 196.047 212.067 202.28C211.27 208.585 208.953 206.266 208.953 206.266C208.953 206.266 209.171 209.962 210.691 211.05C210.691 211.05 210.691 211.05 210.764 210.977C210.764 210.977 210.836 210.977 210.908 210.905C211.777 210.325 214.891 208.296 217.714 206.339C221.045 204.019 223.072 202.063 223.072 202.063C223.072 202.063 222.638 198.366 222.638 197.279C222.638 196.192 230.095 171.478 237.408 163.795C244.214 156.62 237.553 116.396 236.611 110.961L236.467 110.381C236.467 110.381 230.53 112.12 227.995 114.005C225.461 115.889 216.266 138.501 215.832 150.17C215.397 161.766 211.198 168.361 211.198 168.361C211.198 168.361 209.822 167.492 207.505 168.361L205.913 170.826L205.768 170.681Z" fill="url(#paint0_linear_2024_14212)"/>
<path style="mix-blend-mode:multiply" opacity="0.8" d="M210.908 210.905C211.777 210.325 214.891 208.296 217.714 206.339C221.045 204.019 223.072 202.063 223.072 202.063C223.072 202.063 222.638 198.366 222.638 197.279C222.638 196.192 230.095 171.478 237.408 163.795C244.214 156.62 237.553 116.396 236.611 110.961L236.467 110.381C236.467 110.381 231.616 116.396 229.588 128.427C227.489 140.458 230.457 164.158 230.457 164.158C230.457 164.158 226.258 183.364 215.977 183.654C215.977 183.654 224.593 196.265 221.19 202.642C220.538 203.875 212.501 209.818 210.908 210.905Z" fill="url(#paint1_linear_2024_14212)"/>
<path d="M230.529 321.865C230.747 323.967 231.109 325.706 231.543 327.156C232.267 329.765 233.208 331.649 233.715 333.896C234.512 337.375 235.453 350.928 235.453 350.928H259.853C258.911 345.927 257.753 342.013 256.377 329.475C255.074 317.444 262.242 276.06 262.821 272.509C262.821 272.364 262.821 272.292 262.821 272.292C269.12 298.528 284.47 329.04 286.062 330.78C287.655 332.519 290.769 334.113 290.769 334.113C292.506 337.447 296.199 351 296.199 351H324.219C322.626 343.825 315.53 333.099 313.214 329.04C310.969 325.054 302.425 297.658 300.181 279.539C299.24 272.002 298.516 264.029 298.009 257.289C297.285 247.867 296.923 240.837 296.923 240.837C289.755 233.517 234.005 226.342 234.005 226.342L232.267 232.068C232.267 232.068 230.24 232.502 230.023 233.879C229.733 235.257 231.615 236.561 231.615 236.561C225.389 272.147 230.095 316.212 230.602 321.937L230.529 321.865Z" fill="url(#paint2_linear_2024_14212)"/>
<path style="mix-blend-mode:multiply" opacity="0.6" d="M297.068 243.591C297.068 243.591 280.198 241.489 269.555 246.563C258.912 251.636 259.853 260.333 259.853 260.333L262.822 272.292L252.468 261.493L231.471 236.489C231.471 236.489 235.381 238.88 240.522 239.895C240.522 239.895 233.354 235.474 232.123 231.995L233.861 226.27L296.924 239.75V243.591H297.068Z" fill="url(#paint3_linear_2024_14212)"/>
<path d="M213.732 195.975C213.732 195.975 214.456 203.802 209.75 207.498C209.75 207.498 200.048 202.425 195.342 194.163C190.563 185.901 213.805 195.975 213.805 195.975H213.732Z" fill="url(#paint4_linear_2024_14212)"/>
<path d="M296.924 240.765L297.068 241.997C297.068 241.997 284.036 238.663 277.737 238.445C271.438 238.228 264.849 243.229 251.455 240.765C238.132 238.301 233.137 228.661 233.137 228.661L233.933 226.197L296.851 240.692L296.924 240.765Z" fill="url(#paint5_linear_2024_14212)"/>
<path style="mix-blend-mode:multiply" opacity="0.6" d="M292.507 240.91C292.507 240.91 279.836 237.721 262.243 235.691C244.649 233.662 237.988 233.082 236.395 231.778C234.802 230.473 233.643 227.212 233.643 227.212L234.005 226.197L296.924 240.692L297.068 241.924L292.507 240.837V240.91Z" fill="url(#paint6_linear_2024_14212)"/>
<path d="M176.518 171.26C176.518 171.26 173.839 173.435 173.839 175.319C173.839 177.203 178.328 176.334 178.328 176.334L176.59 171.26H176.518Z" fill="url(#paint7_linear_2024_14212)"/>
<path d="M309.087 162.708L310.969 152.272C310.969 152.272 315.82 152.272 322.988 158.867C322.988 158.867 323.133 162.491 325.595 166.912C325.595 166.912 333.776 170.898 337.614 176.261C341.451 181.697 342.899 182.204 346.881 179.16C347.967 178.363 348.691 175.609 349.053 171.84C349.632 166.187 349.415 158.215 348.402 151.257C347.605 145.532 346.229 140.386 344.419 137.704C344.419 137.704 344.564 134.153 342.827 131.399C342.754 131.399 342.682 131.544 342.537 131.544C341.958 131.906 340.51 132.703 338.989 132.413C337.034 132.051 335.369 129.007 335.369 129.007C335.369 129.007 334.211 129.152 333.631 129.949C333.631 129.949 325.739 125.166 320.744 117.121C315.748 109.076 314.951 108.062 314.951 108.062C314.951 108.062 313.648 107.554 311.91 107.192C310.535 106.902 308.87 106.83 307.349 107.192C307.349 107.192 283.094 144.734 308.942 162.636L309.087 162.708Z" fill="url(#paint8_linear_2024_14212)"/>
<path d="M257.392 110.308C257.392 110.308 260.433 105.815 260.433 95.2334L283.964 83.7097C283.964 83.7097 282.805 91.827 286.788 98.8571C287.874 100.742 292.725 103.641 292.725 103.641C292.725 103.641 271.221 130.239 260.867 127.63C250.514 125.093 252.613 113.787 252.613 113.787C252.613 113.787 254.351 114.439 257.392 110.163V110.308Z" fill="url(#paint9_linear_2024_14212)"/>
<path d="M289.9 101.756C289.9 101.756 278.244 113.425 268.18 114.077C257.392 114.802 259.202 105.815 259.202 105.815C259.202 105.815 254.351 112.628 255.726 117.991C257.102 123.354 267.745 123.644 275.927 120.02C284.108 116.469 291.928 102.553 291.928 102.553L289.828 101.684L289.9 101.756Z" fill="url(#paint10_linear_2024_14212)"/>
<path style="mix-blend-mode:multiply" opacity="0.8" d="M309.088 162.708L310.971 152.272C310.971 152.272 315.822 152.272 322.99 158.867C322.99 158.867 323.134 162.491 325.596 166.912C325.596 166.912 333.778 170.898 337.615 176.261C341.452 181.697 342.9 182.204 346.883 179.16C347.969 178.363 348.693 175.609 349.055 171.84L348.403 170.318V151.257C347.607 145.532 346.231 140.386 344.421 137.704C344.421 137.704 344.566 134.153 342.828 131.399C342.756 131.399 342.683 131.544 342.538 131.544C335.805 135.965 333.416 148.938 332.909 158.577C332.909 156.113 331.316 146.691 330.158 146.836C328.637 147.054 326.103 164.52 326.103 164.52C323.062 149.59 332.836 131.544 333.56 130.094C324.655 142.415 323.134 156.475 323.134 156.475L309.305 146.329C309.305 146.329 300.979 137.922 303.875 123.571C306.771 109.149 311.912 107.192 311.912 107.192C310.536 106.902 308.871 106.83 307.351 107.192C307.351 107.192 283.096 144.734 308.943 162.636L309.088 162.708Z" fill="url(#paint11_linear_2024_14212)"/>
<path d="M251.382 92.7692C251.382 92.7692 251.382 92.7692 251.455 92.8417C251.817 93.2041 252.106 93.5665 252.541 93.7114C257.754 96.393 271.728 95.6683 279.257 89.073C282.154 86.5363 284.253 83.5648 285.991 80.4484C288.742 75.4475 290.263 70.2293 291.783 66.678C294.245 60.8799 296.2 51.1682 295.693 45.515C295.258 40.2968 294.172 35.8758 287.077 29.8603C279.981 23.8448 262.605 23.4824 258.188 29.4979C253.772 35.5134 253.916 49.1388 252.83 52.1828C251.817 55.2268 248.052 58.7781 247.038 62.9092C246.097 66.678 247.038 87.551 251.382 92.8417V92.7692Z" fill="url(#paint12_linear_2024_14212)"/>
<path d="M251.309 55.0818C251.309 55.0818 251.526 58.7056 254.35 58.9955C256.595 59.2129 257.898 55.9515 257.898 55.9515C257.898 55.9515 258.26 47.037 257.174 42.6884L256.088 39.2096C256.088 39.2096 259.129 36.0207 263.618 36.4555C268.179 36.8904 269.772 41.6738 269.772 41.6738C269.772 41.6738 265.717 53.1974 266.297 58.7781C266.297 58.7781 269.337 61.6771 274.406 61.3147C280.343 60.8799 283.311 57.401 283.311 57.401C283.311 57.401 286.569 61.1698 287.149 64.3587C287.873 68.1999 286.642 80.3034 286.642 80.3034C286.642 80.3034 290.696 67.1852 291.782 63.344C292.868 59.5028 294.896 42.471 293.665 39.572C292.434 36.673 288.959 27.1786 273.826 25.3667C258.767 23.4824 255.943 28.5557 255.943 28.5557L254.422 36.0207V39.8619C254.422 39.8619 253.409 49.7911 252.974 51.5305C252.612 53.1974 251.092 55.1543 251.092 55.1543L251.309 55.0818Z" fill="url(#paint13_linear_2024_14212)"/>
<path d="M254.568 40.2243C254.568 40.2243 255.003 35.0785 257.899 30.0777C257.899 30.0777 261.157 33.4841 266.37 35.2959C266.37 35.2959 263.908 33.0492 262.822 31.3098C263.04 31.4547 266.298 33.9914 270.787 35.9482C270.787 35.9482 269.483 33.9189 269.483 33.0492C269.483 32.1795 272.814 28.3383 276.651 28.4107C280.489 28.4832 287.801 31.0199 291.494 37.9775C295.114 44.9352 291.494 45.5875 289.467 47.3994C289.467 47.3994 290.48 56.024 290.263 63.2716C290.191 65.4459 289.974 67.4752 289.684 69.0696C289.684 69.3595 289.539 69.577 289.467 69.7944L294.68 65.011C294.68 65.011 294.68 61.8221 296.707 57.2561C296.924 56.7488 297.214 56.169 297.503 55.6616C297.648 55.3717 297.721 55.1543 297.865 54.9369C299.096 52.6176 302.934 48.1966 302.427 43.7756C301.92 39.572 294.318 36.0207 292.435 33.1941C292.435 33.1941 298.3 35.0785 301.051 37.8326C301.051 37.8326 300.617 35.2235 298.445 33.7015C296.273 32.252 294.463 33.1217 291.349 31.8896C288.163 30.6575 283.964 20.0036 278.896 16.0174C273.828 12.0312 262.243 12.8285 258.551 16.0174C257.609 16.8146 256.885 17.8293 256.306 18.844C254.786 21.8155 254.713 25.0044 254.713 25.0044C254.713 25.0044 252.541 33.9189 254.713 40.0793L254.568 40.2243Z" fill="url(#paint14_linear_2024_14212)"/>
<path d="M340.8 136.545L344.492 137.777C344.492 137.777 361.217 127.847 366.575 103.713C366.575 103.713 362.376 96.4654 362.231 93.8563C362.086 91.2472 364.693 85.8115 365.562 78.9263C366.358 72.0411 364.765 66.8229 364.838 66.0256C364.982 65.2284 369.109 65.0835 370.268 68.4898C371.426 71.8962 369.689 77.9117 370.268 79.0713C370.847 80.2309 372.223 82.1877 372.223 82.1877C372.223 82.1877 378.377 72.9108 379.97 71.9686C381.563 71.0265 384.169 75.5924 385.328 75.8099C386.486 76.0273 390.758 70.1568 394.812 66.7504C398.867 63.344 406.542 56.1689 407.338 56.3864C408.135 56.5313 409.148 57.9808 409.003 59.3579C408.859 60.7349 405.528 66.8229 400.46 69.287C400.46 69.287 394.378 73.4906 391.12 79.1437C391.12 79.1437 392.496 81.463 393.437 81.6079C394.378 81.6804 399.881 78.0566 404.225 76.3172C408.569 74.5778 412.551 73.4182 413.275 73.7081C413.999 73.998 413.71 75.52 413.275 76.6071C412.841 77.6218 408.931 80.7382 404.659 81.7529C404.659 81.7529 398.288 84.2895 396.188 86.8987C396.188 86.8987 396.478 89.5078 397.129 89.9426C397.853 90.3775 403.066 89.5803 406.252 89.1454C409.438 88.7105 413.203 89.2179 413.637 89.6527C414.072 90.0876 413.71 91.5371 411.103 92.5518C408.497 93.4939 405.383 92.9141 404.804 92.9866C404.297 93.0591 394.812 96.0306 393.654 96.7554C392.496 97.4801 387.572 104.873 383.952 107.119C380.404 109.366 375.264 108.207 375.264 108.207C375.264 108.207 369.544 140.313 366.792 153.141C364.041 165.897 353.326 179.16 344.058 179.74C344.058 179.74 335.732 176.479 335.225 159.302C334.79 142.125 340.583 136.617 340.583 136.617L340.8 136.545Z" fill="url(#paint15_linear_2024_14212)"/>
<path d="M240.088 172.203C240.088 172.203 243.563 190.394 239.074 210.107C239.074 210.107 236.323 211.992 235.961 214.456C235.599 216.92 236.178 219.094 236.178 219.094C236.178 219.094 234.947 220.326 233.934 222.066C233.717 222.428 233.644 222.791 233.572 223.226C233.427 225.037 234.441 227.284 234.441 227.284C234.441 227.284 236.54 232.72 258.334 234.604C280.127 236.561 296.997 240.692 296.997 240.692C296.997 240.692 298.3 236.344 295.911 233.01C295.911 233.01 299.603 229.676 299.458 228.444C299.314 227.212 291.277 213.296 293.377 203.512C295.476 193.728 303.296 185.828 307.64 166.767C307.64 166.767 310.536 165.825 310.753 164.375C310.898 162.998 309.45 160.679 309.45 160.679L308.943 161.694C308.943 161.694 299.024 155.968 301.703 131.906C304.382 107.844 307.206 106.395 312.129 107.047C312.129 107.047 308.147 103.351 307.206 103.423C306.264 103.496 305.902 105.235 305.902 105.235C305.902 105.235 302.789 106.54 299.169 105.235C295.549 103.93 293.087 101.539 293.087 101.539C293.087 101.539 271.004 120.237 261.374 119.078C250.297 117.773 258.116 105.67 258.116 105.67C258.116 105.67 251.166 107.047 247.473 107.917C243.781 108.786 242.332 107.917 242.332 107.917C242.332 107.917 240.16 104.655 237.192 106.829C234.296 109.004 230.676 121.107 231.834 140.603C232.992 160.099 240.233 171.985 240.233 171.985L240.088 172.203Z" fill="url(#paint16_linear_2024_14212)"/>
<path d="M277.809 54.7194C277.809 54.7194 278.388 56.5313 278.099 58.1258C277.809 59.7202 272.017 61.3147 269.265 58.8505C266.514 56.3864 277.809 54.7194 277.809 54.7194Z" fill="#E87A8D"/>
<path d="M161.386 136.545C168.554 155.823 188.32 196.844 188.32 196.844C214.312 201.845 238.712 197.642 238.712 197.642L240.088 195.395C231.038 167.999 211.489 132.196 211.489 132.196C187.596 130.891 162.255 134.733 162.255 134.733L161.313 136.472L161.386 136.545Z" fill="url(#paint17_linear_2024_14212)"/>
<path style="mix-blend-mode:multiply" opacity="0.6" d="M184.41 165.535C184.41 165.535 185.496 178.508 182.527 184.596L170.653 158.65L176.301 159.954L175.576 162.563C175.576 162.563 180.283 162.346 184.482 165.535H184.41Z" fill="url(#paint18_linear_2024_14212)"/>
<path d="M171.523 158.65C171.523 158.65 169.64 160.172 169.278 161.404C168.844 162.708 168.337 166.115 172.247 167.129L173.984 167.564C173.984 167.564 172.681 168.144 172.464 169.014C172.247 169.883 173.695 171.768 176.012 172.275C178.328 172.71 182.238 171.84 183.397 170.753C184.555 169.738 183.831 168.289 182.093 167.854C182.093 167.854 184.628 167.274 184.555 165.535C184.41 163.723 178.546 161.839 172.391 162.418L171.667 158.65H171.523Z" fill="url(#paint19_linear_2024_14212)"/>
<path d="M257.393 56.3864C257.393 56.3864 256.451 57.9084 254.352 57.4735C252.252 57.0386 252.469 53.4149 252.831 52.1828C253.193 50.9507 257.32 55.2992 257.32 56.4588L257.393 56.3864Z" fill="#E87A8D"/>
<path d="M166.815 149.808C166.815 149.808 163.701 152.707 163.701 154.736C163.701 156.765 168.335 159.302 176.227 160.244C176.227 160.244 176.951 158.722 176.227 157.055C175.503 155.388 171.521 153.069 168.263 152.562L166.815 149.808Z" fill="url(#paint20_linear_2024_14212)"/>
<path d="M175.938 173.507C175.938 173.507 181.296 173 180.862 177.928C180.862 177.928 177.821 178.363 175.649 177.711C173.477 177.058 173.766 175.392 173.911 174.812C174.056 174.232 174.273 173.797 175.938 173.507Z" fill="url(#paint21_linear_2024_14212)"/>
<path d="M283.746 51.0956C283.746 51.0956 283.312 48.2691 280.56 45.4425C278.605 43.4132 274.768 41.3114 272.089 40.2968C272.089 40.2968 271.655 41.1665 271.655 42.7609C271.655 42.7609 271.22 41.2389 270.858 39.7894C270.858 39.7894 270.279 41.2389 270.424 44.0655C270.424 44.0655 272.741 44.8627 276.578 45.9499C281.357 47.2544 283.674 51.0956 283.674 51.0956H283.746Z" fill="url(#paint22_linear_2024_14212)"/>
<path d="M257.971 54.7194C257.971 54.7194 257.971 47.3994 255.871 46.9645C254.061 46.6022 253.264 50.8057 253.264 50.8057L258.043 54.7194H257.971Z" fill="#77485E"/>
<path d="M278.1 56.7488C278.1 56.7488 278.172 51.603 273.973 49.7911C269.773 47.9792 268.253 53.9222 268.253 53.9222L278.1 56.8212V56.7488Z" fill="#77485E"/>
<path d="M267.818 56.7487C267.963 57.8359 269.411 59.7203 272.525 59.7203C275.638 59.7203 278.1 58.3432 278.1 56.7487C278.1 56.1689 277.955 55.5891 277.665 54.9369C277.086 53.5598 276 52.2552 274.624 51.458C273.683 50.9507 272.669 50.5883 271.583 50.7333C268.18 51.0956 267.674 55.6616 267.818 56.7487Z" fill="url(#paint23_linear_2024_14212)"/>
<path d="M252.83 53.125C252.83 55.5167 253.844 57.3286 255.654 57.3286C256.45 57.3286 256.885 57.1111 257.247 56.7488C257.536 56.4589 257.681 56.024 257.826 55.4442C257.826 55.2268 257.971 54.9369 258.043 54.7194C258.043 54.7194 257.826 52.4727 257.247 50.6608C257.102 50.2259 256.957 49.8636 256.812 49.5737C256.522 48.9939 256.16 48.559 255.726 48.4141C254.278 47.9067 252.975 50.8057 252.902 53.1974L252.83 53.125Z" fill="url(#paint24_linear_2024_14212)"/>
<path d="M385.4 75.7374C385.4 75.7374 388.006 79.2887 391.192 84.9418C393.798 89.5802 393.943 96.5379 393.943 96.5379C393.943 96.5379 397.636 94.871 399.591 94.4361C401.545 94.0013 394.74 83.3473 394.74 83.3473L386.92 74.7227L385.4 75.6649V75.7374Z" fill="url(#paint25_linear_2024_14212)"/>
<path d="M270.424 55.0818C270.424 57.1112 272.017 58.7056 274.044 58.7056C276.071 58.7056 277.664 57.1112 277.664 55.0818C277.664 53.0525 277.664 55.0818 277.664 55.0094C277.085 53.6323 275.999 52.3278 274.623 51.5305C274.478 51.5305 274.261 51.5305 274.044 51.5305C272.017 51.5305 270.424 53.125 270.424 55.1543V55.0818Z" fill="url(#paint26_radial_2024_14212)"/>
<path d="M271.582 55.0818C271.582 56.4589 272.741 57.6185 274.116 57.6185C275.492 57.6185 276.65 56.4589 276.65 55.0818C276.65 53.7048 275.492 52.5452 274.116 52.5452C272.741 52.5452 271.582 53.7048 271.582 55.0818Z" fill="url(#paint27_linear_2024_14212)"/>
<path d="M254.423 53.125C254.423 55.1543 255.509 56.7488 256.885 56.7488C258.26 56.7488 257.102 56.7488 257.247 56.7488C257.536 56.4589 257.681 56.024 257.826 55.4442C257.826 55.2268 257.971 54.9369 258.043 54.7194C258.043 54.7194 257.826 52.4727 257.247 50.6608C257.102 50.226 256.957 49.8636 256.812 49.5737C255.509 49.6461 254.495 51.2406 254.495 53.1975L254.423 53.125Z" fill="url(#paint28_radial_2024_14212)"/>
<path d="M404.805 81.6079C404.805 81.6079 402.343 82.4776 401.257 82.1877C400.171 81.8978 399.592 79.5786 399.592 79.2887C399.592 78.9988 402.705 76.897 402.705 76.897L398.723 78.8539L394.813 74.2879C394.813 74.2879 396.985 71.4613 400.026 69.432C400.026 69.432 396.84 71.3164 395.899 70.6641C394.958 69.9393 394.523 68.6348 394.523 67.9825C394.523 67.3302 397.782 63.9963 397.782 63.9963C397.782 63.9963 392.931 67.9825 392.496 68.6348C392.062 69.2871 394.813 78.9988 394.813 78.9988L400.026 83.7822C400.026 83.7822 403.212 82.3327 404.587 81.5355L404.805 81.6079Z" fill="url(#paint29_linear_2024_14212)"/>
<path d="M255.436 53.125C255.436 54.502 256.233 55.6617 257.174 55.6617C258.115 55.6617 257.609 55.5892 257.826 55.4442C257.826 55.2268 257.971 54.9369 258.043 54.7195C258.043 54.7195 257.826 52.4727 257.247 50.6608C256.305 50.6608 255.509 51.8204 255.509 53.1975L255.436 53.125Z" fill="url(#paint30_linear_2024_14212)"/>
<path d="M257.102 40.2243C257.102 40.2243 259.056 50.5883 257.97 55.8791C257.97 55.8791 258.622 47.9067 256.16 42.2536L257.102 40.2243Z" fill="#E87A8D"/>
<path d="M257.465 44.138C257.465 44.138 257.248 40.6591 256.741 37.6876L256.379 38.9197L255.365 36.3831C255.365 36.3831 252.759 37.9775 254.352 41.3839C254.352 41.3839 256.017 41.1665 257.465 44.138Z" fill="url(#paint31_linear_2024_14212)"/>
<path d="M267.6 69.432C267.6 69.432 267.383 71.8237 263.039 73.1283C258.695 74.4328 254.93 73.6356 253.627 72.1136C253.627 72.1136 255.002 73.7805 257.609 74.2879C260.143 74.7227 264.053 74.1429 265.863 72.7659C267.89 71.2439 268.252 69.8669 268.252 69.8669L267.673 69.432H267.6Z" fill="#E87A8D"/>
<path d="M269.482 70.4467C269.482 70.4467 267.383 69.3596 265.5 69.0697C265.5 69.0697 267.528 68.7073 268.396 68.9247C269.338 69.1421 269.482 70.4467 269.482 70.4467Z" fill="#E37E7F"/>
<path d="M264.993 63.9963C264.993 63.9963 261.953 63.9963 259.201 64.1413C256.45 64.2862 253.843 63.9963 252.83 63.1991C252.83 63.1991 252.685 66.4605 256.16 68.4174C256.16 68.4174 257.536 68.9247 258.984 68.4174C258.984 68.4174 260.287 66.9678 262.821 66.533C262.821 66.533 265.138 65.8082 264.993 63.9963Z" fill="url(#paint32_linear_2024_14212)"/>
<path d="M259.492 58.7056C263.112 59.2129 264.994 63.9963 264.994 63.9963L258.188 65.1559C255.147 65.011 252.758 63.2716 252.758 63.2716C252.758 63.2716 255.871 58.1983 259.419 58.7056H259.492Z" fill="url(#paint33_linear_2024_14212)"/>
<path d="M263.039 66.4605C263.039 66.4605 262.677 66.1706 261.591 66.2431C260.505 66.3156 259.419 68.1274 259.419 68.1274C259.419 68.1274 260.577 67.0403 263.039 66.533V66.4605Z" fill="#9F4A8B"/>
<path d="M387.354 57.546L398.649 78.5639C398.649 78.5639 401.545 90.7399 406.975 95.5233C406.975 95.5233 407.627 97.8425 406.034 101.394L382.286 57.1111C382.286 57.1111 385.11 55.879 387.354 57.546Z" fill="url(#paint34_linear_2024_14212)"/>
<path d="M379.751 61.6771L391.046 82.6951C391.046 82.6951 399.589 91.827 400.603 99.0021C400.603 99.0021 402.196 100.814 405.961 101.466L382.213 57.1836C382.213 57.1836 379.606 58.8505 379.751 61.6771Z" fill="url(#paint35_linear_2024_14212)"/>
<path d="M406.468 100.307L404.803 101.176C404.803 101.176 406.178 102.916 406.685 102.698C407.192 102.408 406.468 100.307 406.468 100.307Z" fill="url(#paint36_linear_2024_14212)"/>
<path d="M406.976 95.5957L400.677 99.0021C400.677 99.0021 399.953 92.8417 391.12 82.6951L398.722 78.6364C398.722 78.6364 400.46 88.0583 407.049 95.5957H406.976Z" fill="url(#paint37_linear_2024_14212)"/>
<path d="M378.159 73.8531C378.159 73.8531 381.852 69.2146 385.11 64.1413C388.368 58.9955 394.232 50.8058 396.26 51.6755C398.287 52.5452 396.549 57.7634 394.667 61.0973C392.857 64.4312 390.467 65.6633 389.454 67.4027C388.44 69.1421 385.327 75.8099 385.327 75.8099C385.327 75.8099 380.621 76.9695 378.159 73.9255V73.8531Z" fill="url(#paint38_linear_2024_14212)"/>
<path d="M204.899 198.946C204.899 198.946 206.347 205.976 205.768 206.411C205.116 206.846 201.713 198.656 201.713 198.656L204.899 198.874V198.946Z" fill="url(#paint39_linear_2024_14212)"/>
<path d="M226.331 351H226.766C226.766 350.71 224.014 326.648 194.691 317.879C178.69 313.095 168.047 302.007 165.513 287.439C162.979 273.016 169.06 258.014 181.007 249.172C204.321 231.923 205.986 206.774 205.986 206.484H205.552C205.552 206.701 203.959 231.705 180.79 248.809C168.698 257.724 162.544 272.944 165.151 287.512C167.757 302.297 178.473 313.53 194.691 318.314C223.652 326.938 226.404 350.71 226.404 350.928L226.331 351Z" fill="url(#paint40_linear_2024_14212)"/>
<path d="M289.901 68.1999C289.901 68.1999 295.621 62.4744 299.096 65.7358C303.151 69.577 300.327 78.0567 295.766 81.7529C291.856 84.9418 287.584 84.0721 286.715 80.3034C286.715 80.3034 285.485 71.7513 289.829 68.2724L289.901 68.1999Z" fill="url(#paint41_linear_2024_14212)"/>
<path d="M290.117 73.5631C290.117 73.5631 293.52 69.577 296.271 70.5916C299.095 71.6063 298.299 76.0998 298.299 76.0998C298.299 76.0998 298.299 72.8384 296.489 72.3311C294.679 71.8237 293.593 74.2154 293.593 74.2154C293.593 74.2154 294.534 74.2879 294.534 77.042C294.534 79.7961 291.276 82.3327 290.045 80.3759C288.742 78.419 290.19 73.5631 290.19 73.5631H290.117Z" fill="#E87A8D"/>
<path d="M269.918 55.2992C269.918 55.6616 270.207 55.879 270.497 55.879C270.787 55.879 271.076 55.5891 271.076 55.2992C271.076 55.0093 270.787 54.7194 270.497 54.7194C270.207 54.7194 269.918 55.0093 269.918 55.2992Z" fill="white"/>
<path d="M253.627 53.1974C253.627 53.5598 253.916 53.7772 254.206 53.7772C254.496 53.7772 254.785 53.4873 254.785 53.1974C254.785 52.9075 254.496 52.6176 254.206 52.6176C253.916 52.6176 253.627 52.9075 253.627 53.1974Z" fill="white"/>
<path d="M283.963 89.7977C283.963 89.7977 274.913 107.409 259.129 105.815C259.129 105.815 260.504 99.6544 260.36 95.2334C260.36 95.2334 267.672 95.0159 273.102 92.7692C279.257 90.2325 283.89 83.7097 283.89 83.7097V89.7252L283.963 89.7977Z" fill="url(#paint42_linear_2024_14212)"/>
<path d="M378.159 99.437C382.431 100.669 390.396 96.9003 391.047 93.2765C391.771 89.6528 386.413 79.8685 381.562 80.4483C376.711 81.0282 374.467 84.5795 375.481 87.7684C376.639 91.3922 375.698 98.7122 378.159 99.437Z" fill="url(#paint43_linear_2024_14212)"/>
<path d="M372.223 82.1152C372.223 82.1152 377.001 90.0151 376.567 96.6104C376.567 96.6104 377.798 87.1161 373.381 80.4483L372.223 82.1152Z" fill="url(#paint44_linear_2024_14212)"/>
<path d="M375.553 108.134C375.553 108.134 371.136 107.264 369.254 105.96L374.467 113.932C374.467 113.932 375.191 110.743 375.48 108.134H375.553Z" fill="url(#paint45_linear_2024_14212)"/>
<path d="M344.42 137.777C344.42 137.777 341.306 141.473 339.279 155.823C337.179 170.246 342.899 178.798 342.899 178.798C342.899 178.798 337.179 177.711 335.442 160.824C333.704 143.937 340.8 136.472 340.8 136.472L344.492 137.704L344.42 137.777Z" fill="url(#paint46_linear_2024_14212)"/>
<path style="mix-blend-mode:multiply" opacity="0.6" d="M234.368 227.357C234.368 227.357 236.468 232.792 258.261 234.677C280.055 236.634 296.924 240.765 296.924 240.765C296.924 240.765 298.228 236.416 295.838 233.082C295.838 233.082 299.531 229.748 299.386 228.516C299.241 227.284 291.205 213.369 293.304 203.585C295.404 193.8 303.223 185.901 307.568 166.839C307.568 166.839 310.464 165.897 310.681 164.448C310.826 163.071 309.378 160.751 309.378 160.751L308.871 161.766C308.871 161.766 298.952 156.041 301.631 131.979C304.31 107.917 307.133 106.467 312.057 107.119C312.057 107.119 308.074 103.423 307.133 103.496C307.133 103.496 301.196 107.917 297.142 131.761C293.739 151.764 288.091 164.23 288.091 164.23C288.091 164.23 276.941 168.434 263.836 167.999C250.731 167.564 252.107 165.897 240.595 166.767C240.595 166.767 265.357 169.449 274.769 171.115C284.182 172.782 292.725 176.406 292.725 176.406C292.725 176.406 284.761 194.96 286.064 207.353C287.005 216.195 290.263 223.588 290.263 223.588C290.263 223.588 288.598 224.24 272.669 223.588C256.668 222.863 235.961 214.311 235.961 214.311C235.961 214.673 235.527 217.138 236.178 218.949C236.178 218.949 252.179 222.428 266.877 225.255C281.647 228.009 290.336 232.575 290.336 232.575C290.336 232.575 287.295 234.242 264.343 231.778C241.391 229.313 234.73 227.719 233.572 223.081C233.427 224.892 234.441 227.212 234.441 227.212L234.368 227.357Z" fill="url(#paint47_linear_2024_14212)"/>
<path style="mix-blend-mode:multiply" opacity="0.6" d="M295.838 172.203C295.838 172.203 293.087 168.579 286.788 167.564C280.488 166.55 270.497 168.941 264.343 168.941C264.343 168.941 281.502 172.203 288.018 173.145C294.535 174.087 295.765 172.203 295.765 172.203H295.838Z" fill="url(#paint48_linear_2024_14212)"/>
<path style="mix-blend-mode:multiply" opacity="0.6" d="M242.188 108.134C242.188 108.134 235.888 119.15 234.73 142.633C234.73 142.633 233.716 124.079 240.088 106.54C240.088 106.54 241.101 106.83 242.188 108.207V108.134Z" fill="url(#paint49_linear_2024_14212)"/>
<path style="mix-blend-mode:multiply" opacity="0.6" d="M243.056 117.991C243.056 117.991 244.939 131.761 259.854 151.547C259.854 151.547 250.079 143.647 246.676 135.965C243.056 127.847 243.056 117.991 243.056 117.991Z" fill="url(#paint50_linear_2024_14212)"/>
<path style="mix-blend-mode:multiply" opacity="0.6" d="M280.127 206.484C280.127 206.484 275.783 213.514 266.37 215.253C256.958 216.993 244.432 213.731 244.432 213.731C244.432 213.731 256.524 215.833 265.574 212.789C274.624 209.745 280.127 206.484 280.127 206.484Z" fill="url(#paint51_linear_2024_14212)"/>
<path style="mix-blend-mode:multiply" opacity="0.5" d="M310.971 152.199C310.971 152.199 303.948 149.3 301.196 144.01C301.196 144.01 301.631 157.128 308.726 161.839C308.726 161.839 310.536 156.548 310.898 152.199H310.971Z" fill="url(#paint52_linear_2024_14212)"/>
<path style="mix-blend-mode:multiply" opacity="0.6" d="M262.894 272.292L259.202 258.666C259.202 258.666 252.758 249.317 242.26 245.041L252.613 260.913L262.967 272.292H262.894Z" fill="url(#paint53_linear_2024_14212)"/>
<path style="mix-blend-mode:multiply" opacity="0.6" d="M286.062 330.78C287.655 332.519 290.769 334.113 290.769 334.113C292.506 337.447 296.199 351 296.199 351H324.219C322.626 343.825 315.53 333.099 313.214 329.04C310.969 325.054 302.425 297.658 300.181 279.539C299.24 272.002 298.516 264.029 298.009 257.289C298.009 257.796 297.068 263.087 299.747 288.671C302.498 314.907 304.453 326.286 304.236 328.605C304.018 330.924 292.651 336.505 286.135 330.78H286.062Z" fill="url(#paint54_linear_2024_14212)"/>
<path style="mix-blend-mode:multiply" opacity="0.6" d="M231.544 327.156C232.268 329.692 233.209 331.649 233.716 333.824C234.513 337.302 235.454 350.855 235.454 350.855H259.854C258.913 345.855 257.754 341.941 256.378 329.403C255.075 317.372 262.243 275.988 262.822 272.437C262.026 276.278 252.975 319.183 250.948 322.807C246.532 330.707 234.585 333.389 231.544 327.083V327.156Z" fill="url(#paint55_linear_2024_14212)"/>
<path style="mix-blend-mode:multiply" opacity="0.6" d="M303.947 329.185C303.947 329.185 301.992 337.665 292.652 338.897L290.77 334.041C290.77 334.041 287.222 331.867 286.643 331.287C286.643 331.287 289.249 333.244 295.259 332.302C301.268 331.359 303.875 329.113 303.875 329.113L303.947 329.185Z" fill="url(#paint56_linear_2024_14212)"/>
<path style="mix-blend-mode:multiply" opacity="0.6" d="M246.387 328.46C246.387 328.46 242.187 333.244 233.716 333.896C233.716 333.896 232.123 329.765 231.544 327.228C231.544 327.228 235.092 330.562 239.001 330.562C242.911 330.562 246.459 328.46 246.459 328.46H246.387Z" fill="url(#paint57_linear_2024_14212)"/>
<path d="M161.386 136.545C196.574 131.979 210.909 134.08 210.909 134.08C223.507 155.678 238.785 197.642 238.785 197.642L240.16 195.395C231.11 167.999 211.561 132.196 211.561 132.196C187.668 130.891 162.327 134.733 162.327 134.733L161.386 136.472V136.545Z" fill="url(#paint58_linear_2024_14212)"/>
<path d="M173.911 167.637C173.911 167.637 178.472 168.144 181.947 167.927C181.947 167.927 177.169 168.796 173.259 167.927L173.838 167.564L173.911 167.637Z" fill="url(#paint59_linear_2024_14212)"/>
<path style="mix-blend-mode:multiply" opacity="0.8" d="M292.869 109.946C292.869 110.018 292.869 110.091 292.797 110.163C292.797 110.091 292.797 110.018 292.869 109.946Z" fill="url(#paint60_linear_2024_14212)"/>
<path style="mix-blend-mode:soft-light" d="M290.264 223.733C290.264 223.733 281.792 224.023 264.271 220.906C245.663 217.572 239.075 210.107 239.075 210.107C239.075 210.107 236.396 211.847 235.961 214.456C235.961 214.456 251.745 221.124 264.343 222.791C276.941 224.458 287.802 224.53 290.336 223.805L290.264 223.733Z" fill="url(#paint61_linear_2024_14212)"/>
<path style="mix-blend-mode:soft-light" d="M272.162 232.72C272.162 232.72 261.664 231.053 249.862 228.154C238.133 225.255 233.861 222.138 233.861 222.138C233.861 222.138 231.906 225.907 239.653 228.081C247.4 230.256 272.162 232.72 272.162 232.72Z" fill="url(#paint62_linear_2024_14212)"/>
<path style="mix-blend-mode:soft-light" opacity="0.5" d="M224.449 161.911L186.582 193.148L188.392 196.844C188.392 196.844 212.285 201.773 238.785 197.642L240.16 195.395C240.16 195.395 231.617 172.493 225.897 160.607L224.521 161.839L224.449 161.911Z" fill="url(#paint63_linear_2024_14212)"/>
<path style="mix-blend-mode:multiply" opacity="0.6" d="M297.068 266.711C297.068 266.711 299.457 285.482 295.33 305.775L297.068 266.711Z" fill="url(#paint64_linear_2024_14212)"/>
<path style="mix-blend-mode:multiply" opacity="0.6" d="M258.044 271.132C258.044 271.132 251.6 296.716 246.387 307.587C246.387 307.587 256.668 293.455 260.433 283.96L262.895 272.582L259.926 260.333L258.116 271.132H258.044Z" fill="url(#paint65_linear_2024_14212)"/>
<path d="M257.97 105.887H259.201C259.201 105.815 256.667 109.801 256.16 113.135C255.653 116.469 257.826 118.571 261.229 119.295C261.229 119.295 255.726 119.005 255.074 115.164C254.35 111.395 257.97 105.815 257.97 105.815V105.887Z" fill="url(#paint66_linear_2024_14212)"/>
<path d="M296.996 37.2528C296.996 37.2528 302.861 40.5867 303.006 45.0801C303.15 49.5012 299.458 52.4002 299.458 52.4002L298.951 50.0085C298.951 50.0085 296.055 50.4434 293.376 49.5012C290.697 48.4865 289.466 47.3994 289.466 47.3994C289.466 47.3994 292.869 45.37 293.014 42.0362C293.086 38.7023 287.149 32.6143 287.149 32.6143L292.435 33.2666C292.435 33.2666 295.838 35.9482 297.069 37.3252L296.996 37.2528Z" fill="url(#paint67_linear_2024_14212)"/>
<path style="mix-blend-mode:multiply" opacity="0.8" d="M269.482 32.9767C269.482 32.9767 264.125 27.1787 263.039 23.12C261.953 19.0614 266.224 17.1046 266.224 17.1046C266.224 17.1046 264.704 18.7715 264.993 22.6852C265.283 26.5989 269.41 33.0492 269.41 33.0492L269.482 32.9767Z" fill="url(#paint68_linear_2024_14212)"/>
<path style="mix-blend-mode:multiply" opacity="0.8" d="M286.062 31.8171C286.062 31.8171 280.632 22.2503 275.492 22.1779C270.351 22.0329 268.903 31.4548 269.41 32.9767C269.41 32.9767 269.555 29.2805 275.926 29.0631C282.298 28.8456 286.062 31.8171 286.062 31.8171Z" fill="url(#paint69_linear_2024_14212)"/>
<path style="mix-blend-mode:multiply" opacity="0.8" d="M257.898 30.0052C257.898 30.0052 255.075 26.4539 254.568 25.1494C254.568 25.1494 253.844 28.2658 253.771 30.585C253.771 30.585 253.337 31.5997 256.812 32.1795L257.898 30.0777V30.0052Z" fill="url(#paint70_linear_2024_14212)"/>
<path style="mix-blend-mode:multiply" opacity="0.6" d="M294.607 65.0835L285.267 57.3286C285.267 57.3286 284.905 64.7211 278.461 66.0257C272.017 67.3302 267.238 65.2285 265.428 61.1698C263.691 57.1112 263.329 51.4581 263.329 51.4581C263.329 51.4581 262.894 50.8058 260.867 50.8058C258.84 50.8058 257.898 51.603 257.898 51.603V48.1242C257.898 48.1242 262.17 47.4719 264.053 48.9939C264.053 48.9939 263.401 60.3001 267.456 63.1267C271.51 65.9532 274.913 66.3156 279.257 64.0688C282.588 62.4019 283.963 56.9662 282.95 53.8498L286.063 54.502L294.969 65.011L294.534 65.156L294.607 65.0835Z" fill="url(#paint71_linear_2024_14212)"/>
<path d="M264.849 48.1242C266.586 45.8049 278.895 47.9792 282.298 51.8204C285.773 55.6616 281.357 63.1991 275.854 64.2862C269.483 65.5183 266.514 63.489 264.704 60.8074C262.821 57.9809 263.184 50.2984 264.776 48.1966L264.849 48.1242ZM264.921 59.4304C266.369 63.4165 271.655 64.7211 276.071 63.5615C278.823 62.8367 283.456 58.5607 282.443 53.7773C281.429 48.9939 267.238 46.8921 265.5 48.7764C264.125 50.226 263.473 55.5167 264.921 59.4304Z" fill="url(#paint72_linear_2024_14212)"/>
<path d="M264.487 48.1242C266.225 45.8049 278.534 47.9792 281.937 51.8204C285.412 55.6616 280.995 63.1991 275.493 64.2862C269.121 65.5183 266.153 63.489 264.343 60.8074C262.46 57.9809 262.822 50.2984 264.415 48.1966L264.487 48.1242ZM264.56 59.4304C266.008 63.4165 271.293 64.7211 275.71 63.5615C278.461 62.8367 283.095 58.5607 282.081 53.7773C281.068 48.9939 266.877 46.8921 265.139 48.7764C263.763 50.226 263.112 55.5167 264.56 59.4304Z" fill="url(#paint73_linear_2024_14212)"/>
<path d="M249.354 46.8921C250.368 45.1527 256.377 45.8049 257.825 46.8921C258.766 47.6168 258.259 55.9515 255.653 59.4304C253.988 61.6771 251.598 61.0973 250.874 60.59C248.919 59.213 248.268 48.559 249.354 46.8196V46.8921ZM250.223 58.2708C251.019 60.5175 253.046 61.0973 255.074 59.2129C256.884 57.546 258.404 49.4287 257.246 47.6893C256.305 46.2398 251.381 45.8049 250.006 47.3269C248.63 48.8489 249.281 55.6616 250.223 58.2708Z" fill="url(#paint74_linear_2024_14212)"/>
<path d="M248.993 46.8921C250.006 45.1527 256.016 45.8049 257.464 46.8921C258.405 47.6168 257.898 55.9515 255.292 59.4304C253.626 61.6771 251.237 61.0973 250.513 60.59C248.558 59.213 247.907 48.559 248.993 46.8196V46.8921ZM249.861 58.2708C250.658 60.5175 252.685 61.0973 254.712 59.2129C256.522 57.546 258.043 49.4287 256.884 47.6893C255.943 46.2398 251.02 45.8049 249.644 47.3269C248.269 48.8489 248.92 55.6616 249.861 58.2708Z" fill="url(#paint75_linear_2024_14212)"/>
<path d="M263.907 49.2838C263.907 49.2838 261.228 47.2544 257.897 48.7039C257.897 48.7039 257.897 47.9792 257.753 47.4719C257.753 47.4719 260.142 46.7471 264.631 47.9067C264.631 47.9067 263.979 48.8489 263.834 49.2838H263.907Z" fill="url(#paint76_linear_2024_14212)"/>
<path d="M282.949 52.7626L286.063 53.7773L296.271 64.6486C296.271 64.6486 295.909 64.5761 295.041 64.8661L285.918 55.1543C285.918 55.1543 284.397 54.3571 283.384 54.5745C283.384 54.5745 283.384 53.3424 283.022 52.6901L282.949 52.7626Z" fill="url(#paint77_linear_2024_14212)"/>
<path d="M287.293 55.0818L287.22 56.6763L289.32 58.8506L289.393 57.3286L287.293 55.0818Z" fill="url(#paint78_linear_2024_14212)"/>
<g style="mix-blend-mode:soft-light">
<path d="M263.908 47.7618L263.401 48.3416C263.401 48.3416 261.808 47.9792 260.288 47.9792C258.767 47.9792 258.405 48.1241 258.405 48.1241L258.043 47.4719C258.043 47.4719 260.722 46.8921 263.98 47.7618H263.908Z" fill="#D7E2FF"/>
</g>
<g style="mix-blend-mode:soft-light">
<path d="M256.596 46.4572L256.306 46.8921C256.306 46.8921 254.206 45.66 250.731 46.4572V45.9499C250.803 45.9499 253.699 45.4426 256.668 46.4572H256.596Z" fill="#D7E2FF"/>
</g>
<g style="mix-blend-mode:soft-light">
<path d="M269.916 47.7618L269.771 47.2545C269.771 47.2545 265.861 46.8196 264.775 47.9068C263.689 48.9939 263.4 51.3131 263.4 51.3131H263.907C263.907 51.3131 264.269 48.9214 265.427 48.1967C266.658 47.4719 269.916 47.6893 269.916 47.6893V47.7618Z" fill="#D7E2FF"/>
</g>
<g style="mix-blend-mode:soft-light">
<path d="M278.461 62.0395C278.461 62.0395 276.434 64.5761 271.727 64.2138C267.021 63.8514 264.994 60.3726 264.994 60.3726C264.994 60.3726 267.238 63.8514 271.8 63.9963C276.434 64.1413 278.461 62.0395 278.461 62.0395Z" fill="#D7D9FF"/>
</g>
<g style="mix-blend-mode:soft-light">
<path d="M254.641 59.2854C254.641 59.2854 253.337 60.7349 251.962 60.5175C250.514 60.3001 250.007 58.7056 250.007 58.7056C250.007 58.7056 250.803 60.3726 252.324 60.3001C253.844 60.2276 254.641 59.2854 254.641 59.2854Z" fill="#D7D9FF"/>
</g>
<path d="M273.465 63.9238C273.465 63.9238 273.103 64.2137 272.089 64.2137C271.076 64.2137 269.99 63.7064 269.99 63.7064C269.99 63.7064 272.017 64.0688 273.465 63.9238Z" fill="#D7D9FF"/>
<path d="M253.555 60.0827C253.555 60.0827 252.396 60.5175 251.527 60.0827C250.659 59.6478 250.441 59.3579 250.441 59.3579C250.441 59.3579 250.441 60.3726 251.6 60.5175C252.758 60.6625 253.555 60.0827 253.555 60.0827Z" fill="#D7D9FF"/>
<g style="mix-blend-mode:soft-light">
<path d="M277.085 63.1991C277.085 63.1991 277.23 59.4304 272.814 56.8213C268.325 54.2121 264.198 56.4589 264.198 56.4589C264.198 56.4589 264.053 59.7203 266.442 61.967C268.831 64.2138 274.117 64.3587 277.085 63.1991Z" fill="#D7D9FF"/>
</g>
<g style="mix-blend-mode:soft-light">
<path d="M255.58 57.8359C255.58 57.8359 252.539 53.9947 249.209 52.7626C249.209 52.7626 249.281 57.9809 250.439 59.3579C251.598 60.735 253.842 61.1698 255.58 57.8359Z" fill="#D7D9FF"/>
</g>
<path style="mix-blend-mode:screen" d="M282.008 54.9369C282.008 54.9369 281.501 57.9809 279.763 59.6478L278.026 59.213C278.026 59.213 279.401 53.9222 279.401 51.3131C279.401 51.3131 281.646 52.6177 282.008 54.9369Z" fill="url(#paint79_linear_2024_14212)"/>
<path d="M251.454 92.8417C251.816 93.204 252.106 93.5664 252.54 93.7114C257.753 96.393 271.727 95.6682 279.257 89.0729C282.153 86.5363 284.253 83.5648 285.99 80.4483C285.628 80.8832 281.791 87.5509 272.668 91.1747C263.111 94.9435 252.178 93.7838 251.526 92.8417H251.454Z" fill="url(#paint80_linear_2024_14212)"/>
<path d="M125.04 174.957C126.053 177.348 128.805 178.508 131.194 177.493C133.583 176.479 134.742 173.725 133.728 171.333C132.714 168.941 129.963 167.782 127.574 168.796C125.184 169.811 124.026 172.565 125.04 174.957Z" fill="url(#paint81_linear_2024_14212)"/>
<path d="M0.216442 285.41C0.795665 286.787 2.38855 287.439 3.7642 286.859C5.13986 286.279 5.79149 284.685 5.21226 283.308C4.63304 281.931 3.04016 281.279 1.6645 281.858C0.288845 282.438 -0.362782 284.033 0.216442 285.41Z" fill="url(#paint82_linear_2024_14212)"/>
<path opacity="0.7" d="M38.8072 265.261H102.667C107.807 265.261 112.007 261.203 112.224 256.057L113.672 214.021C113.889 208.658 109.545 204.164 104.115 204.164H37.5764C32.2185 204.164 27.8744 208.585 28.0192 214.021L29.3225 256.057C29.4673 261.203 33.6666 265.334 38.8797 265.334L38.8072 265.261Z" fill="url(#paint83_linear_2024_14212)"/>
<path d="M38.8068 265.551H102.666C107.952 265.551 112.296 261.42 112.441 256.057L113.889 214.021C113.961 211.34 113.02 208.803 111.137 206.846C109.255 204.889 106.793 203.875 104.114 203.875H37.576C34.8971 203.875 32.4354 204.962 30.5529 206.846C28.6704 208.73 27.7292 211.267 27.8016 213.949L29.1049 255.985C29.2497 261.348 33.5938 265.479 38.8793 265.479L38.8068 265.551ZM104.042 204.454C106.576 204.454 108.965 205.469 110.703 207.281C112.441 209.093 113.382 211.484 113.309 214.021L111.861 256.057C111.717 261.058 107.59 265.044 102.594 265.044H38.7345C33.6662 265.044 29.6117 261.058 29.4669 256.057L28.1636 214.021C28.0912 211.484 29.0325 209.093 30.7701 207.281C32.5078 205.469 34.8971 204.454 37.4312 204.454H103.969H104.042Z" fill="#953DA2"/>
<g style="mix-blend-mode:multiply">
<path d="M42.2816 210.905H100.783V245.693H42.2816V210.905Z" fill="#D1D4FB"/>
</g>
<path d="M76.7461 219.529V237.068L61.8311 227.502L76.7461 219.529Z" fill="white"/>
<g style="mix-blend-mode:multiply">
<path d="M42.2816 252.071H100.783V255.26H42.2816V252.071Z" fill="#D1D4FB"/>
</g>
<path d="M85.651 252.071H100.783V255.26H85.651V252.071Z" fill="white"/>
<path fill-rule="evenodd" clip-rule="evenodd" d="M63.4961 94.2912L66.537 103.061C64.8718 98.2049 62.41 95.0884 63.4961 94.2912ZM66.537 103.061L69.5779 111.83C68.7815 111.613 68.2023 107.917 66.537 103.061ZM63.4961 94.2912L66.537 103.061C64.8718 98.2049 62.41 95.0884 63.4961 94.2912ZM66.537 103.061L69.5779 111.83C68.7815 111.613 68.2023 107.917 66.537 103.061ZM57.7039 110.598L54.7353 112.265L51.5496 103.496L54.9526 102.916C54.9526 102.626 54.8077 102.264 54.8077 101.974C54.5905 100.452 54.4457 99.0021 54.5181 97.6251L50.898 95.3783L52.5632 87.6959L55.9662 90.9573C56.473 89.9427 57.0522 89.1454 57.7039 88.4207C57.9211 88.2032 58.0659 87.9858 58.2831 87.8409L56.1834 82.985L61.7584 81.1731L63.1341 86.1014C64.3649 86.1014 65.6682 86.3913 66.899 86.9712L67.5507 82.3327L73.7049 86.9712L72.2569 91.1023C73.3429 92.3344 74.3565 93.8563 75.2254 95.4508L78.1939 93.7839L81.3796 102.553L77.9767 103.133C78.3387 104.945 78.4835 106.757 78.4111 108.496L82.0312 110.743L80.366 118.426L76.963 115.164C76.3838 116.396 75.5874 117.483 74.5738 118.281L76.6734 123.137L71.1708 125.311L70.302 122.194L69.7227 120.093C68.4919 120.093 67.1886 119.803 65.9578 119.223L65.3786 123.861L59.2243 119.223L60.6724 115.092C59.8035 114.077 59.0071 112.99 58.2831 111.758C58.0659 111.395 57.9211 111.106 57.7039 110.743V110.598ZM66.537 103.061C68.2023 107.917 66.537 112.845 69.5779 111.83C72.6189 110.743 73.7773 105.96 72.0397 101.176C70.3744 96.3205 66.4646 93.2765 63.4237 94.3637C60.3828 95.4508 64.7994 98.2774 66.4646 103.133L66.537 103.061ZM63.4961 94.2912L66.537 103.061C64.8718 98.2049 62.41 95.0884 63.4961 94.2912ZM66.537 103.061L69.5779 111.83C68.7815 111.613 68.2023 107.917 66.537 103.061Z" fill="url(#paint84_linear_2024_14212)"/>
<path fill-rule="evenodd" clip-rule="evenodd" d="M54.8074 112.265L51.6217 103.496L54.8798 101.974L55.3866 101.756L55.0246 96.9728L51.4045 95.2334L52.6353 87.7684L60.5272 85.2317L59.0792 88.7106L56.3279 83.1299L61.9029 81.318L64.2198 80.5933L69.7224 78.419L70.736 82.1877L75.5146 79.941L81.6689 84.5794L79.7864 89.6527L85.5786 105.67L88.4023 116.034L82.8997 116.614L84.7098 120.745L79.2072 122.919L71.3153 125.528L72.5461 122.992L73.3425 121.47L70.4464 122.412L65.4506 124.006L59.2964 119.368L63.1337 114.874L58.3551 111.903L54.8074 112.555V112.265ZM72.1117 101.104C70.4464 96.248 66.5367 93.2041 63.4957 94.2912L66.5367 103.061L69.5776 111.83C72.6185 110.743 73.777 105.96 72.0393 101.176L72.1117 101.104Z" fill="url(#paint85_linear_2024_14212)"/>
<path fill-rule="evenodd" clip-rule="evenodd" d="M62.7002 109.729L59.5145 100.959L62.9174 100.379C62.5554 98.5673 62.4106 96.7554 62.483 95.0884L58.8628 92.8417L60.5281 85.1592L63.931 88.4207C64.5103 87.1886 65.3067 86.1014 66.2479 85.3042L64.1482 80.4483L69.6509 78.274L71.0989 83.4923C72.3298 83.4923 73.633 83.7822 74.8639 84.362L75.4431 79.7236L81.5973 84.362L80.1493 88.4931C81.2353 89.7252 82.249 91.2472 83.1902 92.8417L86.1587 91.1747L89.3445 99.9443L85.9415 100.524C86.3035 102.336 86.4483 104.148 86.3759 105.815L89.9961 108.062L88.3308 115.744L84.9279 112.483C84.3487 113.715 83.5522 114.802 82.611 115.599L84.7107 120.455L79.2081 122.629L77.76 117.411C76.5292 117.411 75.2259 117.121 73.995 116.541L73.4158 121.18L67.2616 116.541L68.7096 112.41C67.6236 111.178 66.6099 109.656 65.6687 108.062L62.7002 109.729ZM77.5428 109.221C80.5837 108.134 81.7422 103.351 80.0045 98.5673C78.3392 93.7114 74.4295 90.6674 71.3885 91.7545C68.3476 92.8417 67.1892 97.6251 68.9268 102.408C70.5921 107.264 74.5019 110.308 77.5428 109.221Z" fill="url(#paint86_linear_2024_14212)"/>
<g style="mix-blend-mode:multiply" opacity="0.5">
<path fill-rule="evenodd" clip-rule="evenodd" d="M50.9704 95.3783L58.8623 92.8417L62.4824 95.0884L54.5905 97.6251L50.9704 95.3783Z" fill="#601734"/>
</g>
<g style="mix-blend-mode:soft-light">
<path fill-rule="evenodd" clip-rule="evenodd" d="M59.3692 119.078L67.2611 116.541L68.6367 112.41L60.7448 115.019L59.3692 119.078Z" fill="#B3D9FF"/>
</g>
<g style="mix-blend-mode:multiply" opacity="0.5">
<path fill-rule="evenodd" clip-rule="evenodd" d="M66.3203 85.2317L61.9761 86.5363L60.5281 85.0868L57.632 86.029L56.3287 82.985L64.2206 80.3759L66.3203 85.2317Z" fill="#601734"/>
</g>
<g style="mix-blend-mode:multiply" opacity="0.5">
<path fill-rule="evenodd" clip-rule="evenodd" d="M77.832 117.411L73.7051 119.15L74.0671 116.541C74.0671 116.541 76.3116 117.701 77.832 117.411Z" fill="#601734"/>
</g>
<g style="mix-blend-mode:multiply" opacity="0.5">
<path fill-rule="evenodd" clip-rule="evenodd" d="M77.1816 93.7838L70.231 97.4801C70.231 97.4801 69.2173 96.1031 68.4209 95.5957C68.4209 95.5957 70.231 87.9133 77.1816 93.7838Z" fill="#601734"/>
</g>
<path fill-rule="evenodd" clip-rule="evenodd" d="M152.263 42.8334L153.783 7.61017H107.663L109.545 42.7609L152.263 42.8334Z" fill="url(#paint87_linear_2024_14212)"/>
<path fill-rule="evenodd" clip-rule="evenodd" d="M153.783 7.61017L155.158 9.71196L153.783 42.8334H152.262L153.783 7.61017Z" fill="url(#paint88_linear_2024_14212)"/>
<path d="M138.434 14.6403L145.674 13.8431L144.733 38.05L138.434 37.3977V34.9335L142.054 35.006L142.488 16.3797L138.434 16.5247V14.6403Z" fill="white"/>
<path d="M123.662 14.6403L116.422 13.8431L117.435 38.05L123.662 37.3977V34.9335L120.042 35.006L119.608 16.3797L123.662 16.5247V14.6403Z" fill="white"/>
<path d="M113.126 156.45L113.461 156.726L107.981 163.381L107.645 163.105L113.126 156.45Z" fill="#744CA2"/>
<path d="M193.17 1.52223V1.08738L179.703 0.000244141L179.775 0.435099L193.17 1.52223Z" fill="#744CA2"/>
</g>
<defs>
<linearGradient id="paint0_linear_2024_14212" x1="223.072" y1="211.05" x2="223.072" y2="110.308" gradientUnits="userSpaceOnUse">
<stop stop-color="#744FD8"/>
<stop offset="1" stop-color="#3996F7"/>
</linearGradient>
<linearGradient id="paint1_linear_2024_14212" x1="225.606" y1="210.905" x2="225.606" y2="110.308" gradientUnits="userSpaceOnUse">
<stop stop-color="#9D68C2"/>
<stop offset="1" stop-color="#CCEDFF"/>
</linearGradient>
<linearGradient id="paint2_linear_2024_14212" x1="276.288" y1="350.928" x2="276.288" y2="226.27" gradientUnits="userSpaceOnUse">
<stop stop-color="#1C257B"/>
<stop offset="1" stop-color="#482C83"/>
</linearGradient>
<linearGradient id="paint3_linear_2024_14212" x1="264.27" y1="272.292" x2="264.27" y2="226.27" gradientUnits="userSpaceOnUse">
<stop stop-color="#8B8BE0"/>
<stop offset="1" stop-color="#A177B7"/>
</linearGradient>
<linearGradient id="paint4_linear_2024_14212" x1="204.175" y1="207.498" x2="204.175" y2="190.901" gradientUnits="userSpaceOnUse">
<stop stop-color="#FFC2A9"/>
<stop offset="1" stop-color="#FF9595"/>
</linearGradient>
<linearGradient id="paint5_linear_2024_14212" x1="265.139" y1="241.997" x2="265.139" y2="226.27" gradientUnits="userSpaceOnUse">
<stop stop-color="#D1C8F8"/>
<stop offset="1" stop-color="#EEE5F9"/>
</linearGradient>
<linearGradient id="paint6_linear_2024_14212" x1="265.356" y1="241.997" x2="265.356" y2="226.27" gradientUnits="userSpaceOnUse">
<stop stop-color="#8B8BE0"/>
<stop offset="1" stop-color="#A177B7"/>
</linearGradient>
<linearGradient id="paint7_linear_2024_14212" x1="176.011" y1="176.551" x2="176.011" y2="171.26" gradientUnits="userSpaceOnUse">
<stop stop-color="#FFA58B"/>
<stop offset="1" stop-color="#FF898E"/>
</linearGradient>
<linearGradient id="paint8_linear_2024_14212" x1="323.278" y1="181.045" x2="323.278" y2="107.047" gradientUnits="userSpaceOnUse">
<stop stop-color="#744FD8"/>
<stop offset="1" stop-color="#3996F7"/>
</linearGradient>
<linearGradient id="paint9_linear_2024_14212" x1="272.597" y1="127.847" x2="272.597" y2="83.7097" gradientUnits="userSpaceOnUse">
<stop stop-color="#FFA58B"/>
<stop offset="1" stop-color="#FF898E"/>
</linearGradient>
<linearGradient id="paint10_linear_2024_14212" x1="273.682" y1="122.412" x2="273.682" y2="101.756" gradientUnits="userSpaceOnUse">
<stop stop-color="#D1C8F8"/>
<stop offset="1" stop-color="#EEE5F9"/>
</linearGradient>
<linearGradient id="paint11_linear_2024_14212" x1="323.134" y1="181.045" x2="323.134" y2="107.047" gradientUnits="userSpaceOnUse">
<stop stop-color="#9D68C2"/>
<stop offset="1" stop-color="#CCEDFF"/>
</linearGradient>
<linearGradient id="paint12_linear_2024_14212" x1="271.293" y1="95.2334" x2="271.293" y2="25.1494" gradientUnits="userSpaceOnUse">
<stop stop-color="#FFC2A9"/>
<stop offset="1" stop-color="#FF9595"/>
</linearGradient>
<linearGradient id="paint13_linear_2024_14212" x1="272.813" y1="80.2309" x2="272.813" y2="24.8594" gradientUnits="userSpaceOnUse">
<stop stop-color="#FFA58B"/>
<stop offset="1" stop-color="#FF898E"/>
</linearGradient>
<linearGradient id="paint14_linear_2024_14212" x1="273.393" y1="67.3302" x2="281.663" y2="15.0778" gradientUnits="userSpaceOnUse">
<stop stop-color="#D49092"/>
<stop offset="0.1" stop-color="#D18E91"/>
<stop offset="0.2" stop-color="#C98891"/>
<stop offset="0.3" stop-color="#A6708E"/>
<stop offset="0.4" stop-color="#6C488A"/>
<stop offset="0.5" stop-color="#3E2987"/>
<stop offset="0.6" stop-color="#352177"/>
<stop offset="0.8" stop-color="#281661"/>
<stop offset="1" stop-color="#24135A"/>
</linearGradient>
<linearGradient id="paint15_linear_2024_14212" x1="374.684" y1="179.668" x2="374.684" y2="56.3139" gradientUnits="userSpaceOnUse">
<stop stop-color="#FFC2A9"/>
<stop offset="1" stop-color="#FF9595"/>
</linearGradient>
<linearGradient id="paint16_linear_2024_14212" x1="271.8" y1="240.765" x2="271.8" y2="101.756" gradientUnits="userSpaceOnUse">
<stop stop-color="#744FD8"/>
<stop offset="1" stop-color="#3996F7"/>
</linearGradient>
<linearGradient id="paint17_linear_2024_14212" x1="200.773" y1="199.309" x2="200.773" y2="131.979" gradientUnits="userSpaceOnUse">
<stop stop-color="#1C257B"/>
<stop offset="1" stop-color="#482C83"/>
</linearGradient>
<linearGradient id="paint18_linear_2024_14212" x1="177.676" y1="184.596" x2="177.676" y2="158.65" gradientUnits="userSpaceOnUse">
<stop stop-color="#8B8BE0"/>
<stop offset="1" stop-color="#A177B7"/>
</linearGradient>
<linearGradient id="paint19_linear_2024_14212" x1="176.736" y1="172.493" x2="176.736" y2="158.65" gradientUnits="userSpaceOnUse">
<stop stop-color="#FFC2A9"/>
<stop offset="1" stop-color="#FF9595"/>
</linearGradient>
<linearGradient id="paint20_linear_2024_14212" x1="170.073" y1="160.244" x2="170.073" y2="149.808" gradientUnits="userSpaceOnUse">
<stop stop-color="#FFC2A9"/>
<stop offset="1" stop-color="#FF9595"/>
</linearGradient>
<linearGradient id="paint21_linear_2024_14212" x1="177.314" y1="178.073" x2="177.314" y2="173.507" gradientUnits="userSpaceOnUse">
<stop stop-color="#FFC2A9"/>
<stop offset="1" stop-color="#FF9595"/>
</linearGradient>
<linearGradient id="paint22_linear_2024_14212" x1="277.085" y1="51.0956" x2="277.085" y2="39.7894" gradientUnits="userSpaceOnUse">
<stop stop-color="#1C257B"/>
<stop offset="1" stop-color="#482C83"/>
</linearGradient>
<linearGradient id="paint23_linear_2024_14212" x1="272.959" y1="59.7927" x2="272.959" y2="50.7333" gradientUnits="userSpaceOnUse">
<stop stop-color="#D0C7F8"/>
<stop offset="1" stop-color="white"/>
</linearGradient>
<linearGradient id="paint24_linear_2024_14212" x1="255.436" y1="57.3286" x2="255.436" y2="48.2691" gradientUnits="userSpaceOnUse">
<stop stop-color="#D0C7F8"/>
<stop offset="1" stop-color="white"/>
</linearGradient>
<linearGradient id="paint25_linear_2024_14212" x1="399.953" y1="85.739" x2="385.4" y2="85.739" gradientUnits="userSpaceOnUse">
<stop stop-color="#CF6074"/>
<stop offset="1" stop-color="#FF817F"/>
</linearGradient>
<radialGradient id="paint26_radial_2024_14212" cx="0" cy="0" r="1" gradientUnits="userSpaceOnUse" gradientTransform="translate(273.972 56.5313) rotate(180) scale(3.54774 3.55131)">
<stop stop-color="#CF95FF"/>
<stop offset="1" stop-color="#8161FF"/>
</radialGradient>
<linearGradient id="paint27_linear_2024_14212" x1="274.044" y1="57.6185" x2="274.044" y2="52.5452" gradientUnits="userSpaceOnUse">
<stop stop-color="#8642A0"/>
<stop offset="1" stop-color="#4E37B7"/>
</linearGradient>
<radialGradient id="paint28_radial_2024_14212" cx="0" cy="0" r="1" gradientUnits="userSpaceOnUse" gradientTransform="translate(256.16 54.5745) rotate(180) scale(2.3893 2.3917)">
<stop stop-color="#CF95FF"/>
<stop offset="1" stop-color="#8161FF"/>
</radialGradient>
<linearGradient id="paint29_linear_2024_14212" x1="404.805" y1="73.998" x2="392.641" y2="73.998" gradientUnits="userSpaceOnUse">
<stop stop-color="#CF6074"/>
<stop offset="1" stop-color="#FF817F"/>
</linearGradient>
<linearGradient id="paint30_linear_2024_14212" x1="256.667" y1="55.6617" x2="256.667" y2="50.5884" gradientUnits="userSpaceOnUse">
<stop stop-color="#8642A0"/>
<stop offset="1" stop-color="#4E37B7"/>
</linearGradient>
<linearGradient id="paint31_linear_2024_14212" x1="255.655" y1="44.138" x2="255.655" y2="36.3831" gradientUnits="userSpaceOnUse">
<stop stop-color="#1C257B"/>
<stop offset="1" stop-color="#482C83"/>
</linearGradient>
<linearGradient id="paint32_linear_2024_14212" x1="260.215" y1="68.055" x2="258.111" y2="61.5334" gradientUnits="userSpaceOnUse">
<stop stop-color="#FF8883"/>
<stop offset="1" stop-color="#E8868D"/>
</linearGradient>
<linearGradient id="paint33_linear_2024_14212" x1="258.912" y1="65.1559" x2="258.912" y2="58.7056" gradientUnits="userSpaceOnUse">
<stop stop-color="#FF8883"/>
<stop offset="1" stop-color="#FFB1A4"/>
</linearGradient>
<linearGradient id="paint34_linear_2024_14212" x1="407.929" y1="100.448" x2="384.104" y2="56.2457" gradientUnits="userSpaceOnUse">
<stop stop-color="#1C257B"/>
<stop offset="1" stop-color="#482C83"/>
</linearGradient>
<linearGradient id="paint35_linear_2024_14212" x1="404.161" y1="102.438" x2="380.337" y2="58.2359" gradientUnits="userSpaceOnUse">
<stop stop-color="#1C257B"/>
<stop offset="1" stop-color="#482C83"/>
</linearGradient>
<linearGradient id="paint36_linear_2024_14212" x1="406.766" y1="102.721" x2="405.7" y2="100.744" gradientUnits="userSpaceOnUse">
<stop stop-color="#1C257B"/>
<stop offset="1" stop-color="#482C83"/>
</linearGradient>
<linearGradient id="paint37_linear_2024_14212" x1="403.85" y1="97.2969" x2="394.877" y2="80.6491" gradientUnits="userSpaceOnUse">
<stop stop-color="#6A4FAC"/>
<stop offset="1" stop-color="#513689"/>
</linearGradient>
<linearGradient id="paint38_linear_2024_14212" x1="387.644" y1="75.9548" x2="387.644" y2="51.603" gradientUnits="userSpaceOnUse">
<stop stop-color="#FFA58B"/>
<stop offset="1" stop-color="#FF898E"/>
</linearGradient>
<linearGradient id="paint39_linear_2024_14212" x1="203.813" y1="206.484" x2="203.813" y2="198.729" gradientUnits="userSpaceOnUse">
<stop stop-color="#1C257B"/>
<stop offset="1" stop-color="#482C83"/>
</linearGradient>
<linearGradient id="paint40_linear_2024_14212" x1="195.632" y1="351" x2="195.632" y2="206.411" gradientUnits="userSpaceOnUse">
<stop stop-color="#1C257B"/>
<stop offset="1" stop-color="#482C83"/>
</linearGradient>
<linearGradient id="paint41_linear_2024_14212" x1="291.93" y1="84.0132" x2="295.573" y2="64.5663" gradientUnits="userSpaceOnUse">
<stop stop-color="#FFAC8B"/>
<stop offset="1" stop-color="#FF9595"/>
</linearGradient>
<linearGradient id="paint42_linear_2024_14212" x1="283.963" y1="94.7985" x2="259.201" y2="94.7985" gradientUnits="userSpaceOnUse">
<stop stop-color="#CF6074"/>
<stop offset="1" stop-color="#FF817F"/>
</linearGradient>
<linearGradient id="paint43_linear_2024_14212" x1="383.228" y1="99.7269" x2="383.228" y2="80.4483" gradientUnits="userSpaceOnUse">
<stop stop-color="#FF997C"/>
<stop offset="1" stop-color="#FF898E"/>
</linearGradient>
<linearGradient id="paint44_linear_2024_14212" x1="376.712" y1="88.5656" x2="372.223" y2="88.5656" gradientUnits="userSpaceOnUse">
<stop stop-color="#CF6074"/>
<stop offset="1" stop-color="#FF817F"/>
</linearGradient>
<linearGradient id="paint45_linear_2024_14212" x1="372.367" y1="113.86" x2="372.367" y2="105.96" gradientUnits="userSpaceOnUse">
<stop stop-color="#CF6074"/>
<stop offset="1" stop-color="#FF817F"/>
</linearGradient>
<linearGradient id="paint46_linear_2024_14212" x1="339.786" y1="178.798" x2="339.786" y2="136.545" gradientUnits="userSpaceOnUse">
<stop stop-color="#CF6074"/>
<stop offset="1" stop-color="#FF817F"/>
</linearGradient>
<linearGradient id="paint47_linear_2024_14212" x1="272.742" y1="240.765" x2="272.742" y2="103.713" gradientUnits="userSpaceOnUse">
<stop stop-color="#8B8BE0"/>
<stop offset="1" stop-color="#A177B7"/>
</linearGradient>
<linearGradient id="paint48_linear_2024_14212" x1="280.126" y1="173.435" x2="280.126" y2="167.347" gradientUnits="userSpaceOnUse">
<stop stop-color="#8B8BE0"/>
<stop offset="1" stop-color="#A177B7"/>
</linearGradient>
<linearGradient id="paint49_linear_2024_14212" x1="238.495" y1="142.56" x2="238.495" y2="106.467" gradientUnits="userSpaceOnUse">
<stop stop-color="#8B8BE0"/>
<stop offset="1" stop-color="#A177B7"/>
</linearGradient>
<linearGradient id="paint50_linear_2024_14212" x1="251.455" y1="151.547" x2="251.455" y2="117.991" gradientUnits="userSpaceOnUse">
<stop stop-color="#8B8BE0"/>
<stop offset="1" stop-color="#A177B7"/>
</linearGradient>
<linearGradient id="paint51_linear_2024_14212" x1="262.243" y1="215.761" x2="262.243" y2="206.484" gradientUnits="userSpaceOnUse">
<stop stop-color="#8B8BE0"/>
<stop offset="1" stop-color="#A177B7"/>
</linearGradient>
<linearGradient id="paint52_linear_2024_14212" x1="306.12" y1="161.911" x2="306.12" y2="144.01" gradientUnits="userSpaceOnUse">
<stop stop-color="#9D68C2"/>
<stop offset="1" stop-color="#90AEFF"/>
</linearGradient>
<linearGradient id="paint53_linear_2024_14212" x1="252.541" y1="0.000243659" x2="252.541" y2="245.041" gradientUnits="userSpaceOnUse">
<stop stop-color="#8B8BE0"/>
<stop offset="1" stop-color="#A177B7"/>
</linearGradient>
<linearGradient id="paint54_linear_2024_14212" x1="305.177" y1="350.928" x2="305.177" y2="257.217" gradientUnits="userSpaceOnUse">
<stop stop-color="#8B8BE0"/>
<stop offset="1" stop-color="#A177B7"/>
</linearGradient>
<linearGradient id="paint55_linear_2024_14212" x1="247.183" y1="350.928" x2="247.183" y2="272.509" gradientUnits="userSpaceOnUse">
<stop stop-color="#8B8BE0"/>
<stop offset="1" stop-color="#A177B7"/>
</linearGradient>
<linearGradient id="paint56_linear_2024_14212" x1="295.331" y1="338.897" x2="295.331" y2="329.185" gradientUnits="userSpaceOnUse">
<stop stop-color="#8B8BE0"/>
<stop offset="1" stop-color="#A177B7"/>
</linearGradient>
<linearGradient id="paint57_linear_2024_14212" x1="238.929" y1="333.896" x2="238.929" y2="327.156" gradientUnits="userSpaceOnUse">
<stop stop-color="#8B8BE0"/>
<stop offset="1" stop-color="#A177B7"/>
</linearGradient>
<linearGradient id="paint58_linear_2024_14212" x1="200.773" y1="197.642" x2="200.773" y2="131.979" gradientUnits="userSpaceOnUse">
<stop stop-color="#8642A0"/>
<stop offset="1" stop-color="#6456C0"/>
</linearGradient>
<linearGradient id="paint59_linear_2024_14212" x1="182.02" y1="167.999" x2="173.331" y2="167.999" gradientUnits="userSpaceOnUse">
<stop stop-color="#CF6074"/>
<stop offset="1" stop-color="#FF817F"/>
</linearGradient>
<linearGradient id="paint60_linear_2024_14212" x1="292.797" y1="110.163" x2="292.797" y2="109.946" gradientUnits="userSpaceOnUse">
<stop stop-color="#9D68C2"/>
<stop offset="1" stop-color="#CCEDFF"/>
</linearGradient>
<linearGradient id="paint61_linear_2024_14212" x1="263.112" y1="224.24" x2="263.112" y2="210.107" gradientUnits="userSpaceOnUse">
<stop stop-color="#B9ACF4"/>
<stop offset="1" stop-color="#E1D1F5"/>
</linearGradient>
<linearGradient id="paint62_linear_2024_14212" x1="252.903" y1="232.72" x2="252.903" y2="222.138" gradientUnits="userSpaceOnUse">
<stop stop-color="#B9ACF4"/>
<stop offset="1" stop-color="#E1D1F5"/>
</linearGradient>
<linearGradient id="paint63_linear_2024_14212" x1="213.371" y1="199.309" x2="213.371" y2="160.679" gradientUnits="userSpaceOnUse">
<stop stop-color="#B9ACF4"/>
<stop offset="1" stop-color="#E1D1F5"/>
</linearGradient>
<linearGradient id="paint64_linear_2024_14212" x1="296.489" y1="305.775" x2="296.489" y2="266.711" gradientUnits="userSpaceOnUse">
<stop stop-color="#8B8BE0"/>
<stop offset="1" stop-color="#A177B7"/>
</linearGradient>
<linearGradient id="paint65_linear_2024_14212" x1="254.568" y1="307.587" x2="254.568" y2="260.333" gradientUnits="userSpaceOnUse">
<stop stop-color="#8B8BE0"/>
<stop offset="1" stop-color="#A177B7"/>
</linearGradient>
<linearGradient id="paint66_linear_2024_14212" x1="258.115" y1="119.295" x2="258.115" y2="105.815" gradientUnits="userSpaceOnUse">
<stop stop-color="#3D2CB0"/>
<stop offset="1" stop-color="#0355C7"/>
</linearGradient>
<linearGradient id="paint67_linear_2024_14212" x1="293.086" y1="51.3855" x2="295.916" y2="33.7748" gradientUnits="userSpaceOnUse">
<stop stop-color="#5E3187"/>
<stop offset="0.4" stop-color="#412271"/>
<stop offset="0.8" stop-color="#2B1760"/>
<stop offset="1" stop-color="#24135A"/>
</linearGradient>
<linearGradient id="paint68_linear_2024_14212" x1="266.152" y1="32.9767" x2="266.152" y2="17.0321" gradientUnits="userSpaceOnUse">
<stop stop-color="#8B8BE0"/>
<stop offset="1" stop-color="#A177B7"/>
</linearGradient>
<linearGradient id="paint69_linear_2024_14212" x1="277.736" y1="32.9767" x2="277.736" y2="22.1779" gradientUnits="userSpaceOnUse">
<stop stop-color="#8B8BE0"/>
<stop offset="1" stop-color="#A177B7"/>
</linearGradient>
<linearGradient id="paint70_linear_2024_14212" x1="255.799" y1="32.107" x2="255.799" y2="25.1494" gradientUnits="userSpaceOnUse">
<stop stop-color="#8B8BE0"/>
<stop offset="1" stop-color="#A177B7"/>
</linearGradient>
<linearGradient id="paint71_linear_2024_14212" x1="276.506" y1="66.3881" x2="276.506" y2="47.9068" gradientUnits="userSpaceOnUse">
<stop stop-color="#F2C7CC"/>
<stop offset="1" stop-color="#A177B7"/>
</linearGradient>
<linearGradient id="paint72_linear_2024_14212" x1="274.623" y1="64.5037" x2="272.447" y2="46.6027" gradientUnits="userSpaceOnUse">
<stop stop-color="#1C257B"/>
<stop offset="1" stop-color="#482C83"/>
</linearGradient>
<linearGradient id="paint73_linear_2024_14212" x1="274.262" y1="64.4312" x2="272.085" y2="46.6027" gradientUnits="userSpaceOnUse">
<stop stop-color="#1C257B"/>
<stop offset="1" stop-color="#65459C"/>
</linearGradient>
<linearGradient id="paint74_linear_2024_14212" x1="254.784" y1="60.8799" x2="252.97" y2="45.7329" gradientUnits="userSpaceOnUse">
<stop stop-color="#1C257B"/>
<stop offset="1" stop-color="#482C83"/>
</linearGradient>
<linearGradient id="paint75_linear_2024_14212" x1="254.423" y1="60.8799" x2="252.609" y2="45.7329" gradientUnits="userSpaceOnUse">
<stop stop-color="#1C257B"/>
<stop offset="1" stop-color="#65459C"/>
</linearGradient>
<linearGradient id="paint76_linear_2024_14212" x1="261.445" y1="49.5737" x2="261.155" y2="47.0371" gradientUnits="userSpaceOnUse">
<stop stop-color="#1C257B"/>
<stop offset="1" stop-color="#65459C"/>
</linearGradient>
<linearGradient id="paint77_linear_2024_14212" x1="290.407" y1="65.5183" x2="288.811" y2="52.1107" gradientUnits="userSpaceOnUse">
<stop stop-color="#1C257B"/>
<stop offset="1" stop-color="#65459C"/>
</linearGradient>
<linearGradient id="paint78_linear_2024_14212" x1="288.307" y1="58.8506" x2="288.307" y2="55.0818" gradientUnits="userSpaceOnUse">
<stop stop-color="#8642A0"/>
<stop offset="1" stop-color="#6456C0"/>
</linearGradient>
<linearGradient id="paint79_linear_2024_14212" x1="279.981" y1="59.6478" x2="279.981" y2="51.3131" gradientUnits="userSpaceOnUse">
<stop/>
<stop offset="1" stop-color="#E1D1F5"/>
</linearGradient>
<linearGradient id="paint80_linear_2024_14212" x1="268.758" y1="95.2334" x2="268.758" y2="80.5208" gradientUnits="userSpaceOnUse">
<stop stop-color="#FFA58B"/>
<stop offset="1" stop-color="#FF898E"/>
</linearGradient>
<linearGradient id="paint81_linear_2024_14212" x1="130.958" y1="177.497" x2="127.304" y2="168.814" gradientUnits="userSpaceOnUse">
<stop stop-color="#459FFF"/>
<stop offset="1" stop-color="#A96DFF"/>
</linearGradient>
<linearGradient id="paint82_linear_2024_14212" x1="3.44733" y1="286.813" x2="1.36755" y2="281.871" gradientUnits="userSpaceOnUse">
<stop stop-color="#B31A8F"/>
<stop offset="1" stop-color="#FE117E"/>
</linearGradient>
<linearGradient id="paint83_linear_2024_14212" x1="70.8093" y1="265.261" x2="70.8093" y2="204.164" gradientUnits="userSpaceOnUse">
<stop stop-color="#D906E3"/>
<stop offset="1" stop-color="#FF6DF9"/>
</linearGradient>
<linearGradient id="paint84_linear_2024_14212" x1="69.9434" y1="125.649" x2="63.3261" y2="81.1179" gradientUnits="userSpaceOnUse">
<stop stop-color="#1852A0"/>
<stop offset="1" stop-color="#067ED3"/>
</linearGradient>
<linearGradient id="paint85_linear_2024_14212" x1="74.874" y1="124.467" x2="62.9313" y2="80.2501" gradientUnits="userSpaceOnUse">
<stop stop-color="#1852A0"/>
<stop offset="1" stop-color="#067ED3"/>
</linearGradient>
<linearGradient id="paint86_linear_2024_14212" x1="81.325" y1="125.152" x2="74.226" y2="79.5976" gradientUnits="userSpaceOnUse">
<stop stop-color="#188DC1"/>
<stop offset="1" stop-color="#06BFE7"/>
</linearGradient>
<linearGradient id="paint87_linear_2024_14212" x1="137.493" y1="46.8195" x2="125.596" y2="2.7603" gradientUnits="userSpaceOnUse">
<stop stop-color="#188DC1"/>
<stop offset="1" stop-color="#06BFE7"/>
</linearGradient>
<linearGradient id="paint88_linear_2024_14212" x1="157.837" y1="41.7462" x2="148.987" y2="8.9192" gradientUnits="userSpaceOnUse">
<stop stop-color="#1852A0"/>
<stop offset="1" stop-color="#067ED3"/>
</linearGradient>
<clipPath id="clip0_2024_14212">
<rect width="414" height="351" fill="white" transform="matrix(-1 0 0 1 414 0.000244141)"/>
</clipPath>
</defs>
</svg>
