<svg width="333" height="233" viewBox="0 0 333 233" fill="none" xmlns="http://www.w3.org/2000/svg">
<g clip-path="url(#clip0_3097_878)">
<path d="M274.07 88.8148C273.874 87.5532 272.692 86.6916 271.426 86.8877C270.163 87.0839 269.301 88.2686 269.497 89.5303C269.828 91.6843 270.251 98.431 267.922 101.143C267.418 101.731 266.81 102.081 266.044 102.224L266.256 89.3764C266.286 87.5109 264.781 85.98 262.91 85.98C261.039 85.98 259.519 87.5263 259.565 89.4033L260.169 113.786C259.369 113.655 258.734 113.305 258.214 112.698C255.885 109.982 256.308 103.239 256.639 101.085C256.836 99.8234 255.973 98.6426 254.711 98.4425C253.444 98.2464 252.266 99.108 252.066 100.37C251.901 101.431 250.561 110.874 254.695 115.702C256.116 117.359 258.041 118.302 260.285 118.448L260.547 129.06H265.597L265.963 106.889C268.157 106.72 270.04 105.782 271.437 104.151C275.568 99.3272 274.232 89.8803 274.066 88.8187L274.07 88.8148Z" fill="#F5F8FD"/>
<path d="M58.4938 109.486C58.3668 108.682 57.6161 108.132 56.8077 108.259C56.0032 108.386 55.4527 109.139 55.5797 109.943C55.7914 111.317 56.0609 115.617 54.575 117.348C54.2516 117.721 53.8666 117.948 53.3777 118.036L53.5125 109.847C53.5317 108.659 52.5732 107.682 51.3798 107.682C50.1864 107.682 49.2202 108.666 49.2471 109.866L49.6321 125.41C49.1201 125.329 48.7159 125.102 48.3848 124.714C46.8989 122.983 47.1684 118.683 47.3801 117.309C47.5071 116.505 46.9566 115.752 46.1521 115.625C45.3475 115.498 44.593 116.048 44.466 116.852C44.3582 117.529 43.5074 123.548 46.1405 126.626C47.0452 127.683 48.2732 128.283 49.7052 128.376L49.8746 135.142H53.0929L53.3277 121.006C54.7289 120.898 55.9262 120.302 56.8154 119.26C59.4485 116.182 58.5978 110.163 58.49 109.486H58.4938Z" fill="#F5F8FD"/>
<path d="M166.498 233C258.452 233 332.996 206.631 332.996 174.103C332.996 141.575 258.452 115.206 166.498 115.206C74.5437 115.206 0 141.575 0 174.103C0 206.631 74.5437 233 166.498 233Z" fill="url(#paint0_linear_3097_878)"/>
<path d="M172 78.1874C171.726 77.7835 171.18 77.6758 170.775 77.9489C170.371 78.222 170.263 78.7682 170.537 79.1721C170.999 79.8606 172.234 82.1223 171.869 83.4378C171.788 83.7225 171.638 83.9417 171.395 84.1148L169.393 79.6452C169.101 78.9951 168.335 78.7105 167.692 79.0105C167.041 79.3144 166.772 80.0914 167.091 80.7337L171.237 89.0575C170.941 89.1421 170.664 89.1229 170.387 88.996C169.143 88.4344 168.2 86.038 167.969 85.238C167.834 84.7687 167.345 84.5033 166.876 84.6379C166.406 84.7725 166.141 85.261 166.275 85.7303C166.391 86.1227 167.453 89.5999 169.659 90.5999C170.417 90.9423 171.234 90.9577 172.034 90.6461L173.84 94.2695L175.584 93.454L172.13 85.738C172.862 85.3264 173.358 84.6995 173.578 83.9109C174.225 81.58 172.238 78.5336 172.011 78.1951L172 78.1874Z" fill="#696969"/>
<path d="M138.998 99.2162C138.998 99.8124 138.516 100.293 137.92 100.293C137.323 100.293 136.842 99.8124 136.842 99.2162C136.842 98.62 137.323 98.1392 137.92 98.1392C138.516 98.1392 138.998 98.62 138.998 99.2162Z" fill="#696969"/>
<path d="M189.011 80.145C189.011 80.5951 188.645 80.9605 188.195 80.9605C187.745 80.9605 187.379 80.5951 187.379 80.145C187.379 79.695 187.745 79.3296 188.195 79.3296C188.645 79.3296 189.011 79.695 189.011 80.145Z" fill="#696969"/>
<path d="M165.832 40.4263L60.7773 154.374L212.905 155.855L206.095 53.9928L165.832 40.4263Z" fill="url(#paint1_linear_3097_878)"/>
<path d="M209.421 69.1751C209.79 69.2982 210.187 69.3482 210.599 69.302C212.092 69.1289 213.162 67.7827 212.989 66.2902L211.499 53.3738C211.326 51.8814 209.975 50.8159 208.485 50.9813C206.992 51.1544 205.921 52.5006 206.095 53.9931L207.584 66.9095C207.708 67.9904 208.451 68.8481 209.421 69.1751Z" fill="url(#paint2_linear_3097_878)"/>
<path d="M205.345 64.7859C204.367 67.6823 205.926 70.8249 208.825 71.8019C211.723 72.7789 214.868 71.2211 215.846 68.3247C216.824 65.4283 215.265 62.2857 212.366 61.3087C209.467 60.3317 206.322 61.8895 205.345 64.7859Z" fill="#873ECB"/>
<path d="M153.985 50.4967C153.615 50.3736 153.269 50.1697 152.972 49.8851C151.887 48.8427 151.852 47.1233 152.895 46.0386L161.907 36.6609C162.95 35.5762 164.671 35.5454 165.753 36.5801C166.838 37.6225 166.873 39.3419 165.83 40.4266L156.818 49.8043C156.063 50.589 154.951 50.8236 153.985 50.4967Z" fill="url(#paint3_linear_3097_878)"/>
<path d="M159.889 49.4697C158.911 52.3661 155.77 53.9239 152.868 52.9469C149.969 51.9699 148.41 48.8312 149.388 45.931C150.365 43.0346 153.507 41.4767 156.409 42.4537C159.308 43.4307 160.867 46.5695 159.889 49.4697Z" fill="#873ECB"/>
<path d="M187.636 44.8078C175.518 40.7267 164.446 36.3379 155.365 32.1567C160.793 40.8536 171.041 48.7273 184.072 53.1162C196.991 57.4704 209.814 57.4473 219.38 53.9047C209.975 51.7507 199.093 48.6696 187.632 44.8116L187.636 44.8078Z" fill="#732DB4"/>
<path d="M249.933 54.9427C251.748 49.5618 226.451 36.183 193.431 25.0601C160.411 13.9373 132.171 9.28253 130.356 14.6634C128.54 20.0442 153.837 33.4231 186.857 44.5459C219.877 55.6687 248.117 60.3235 249.933 54.9427Z" fill="url(#paint4_linear_3097_878)"/>
<path opacity="0.2" d="M187.603 42.3535C156.86 31.9949 132.82 19.6862 131.114 13.6973C130.745 13.9742 130.491 14.2973 130.364 14.6666C128.547 20.0478 153.842 33.4258 186.864 44.5498C219.882 55.6738 248.122 60.3319 249.939 54.9507C250.066 54.5814 250.055 54.1698 249.931 53.7275C244.942 57.4624 218.349 52.7159 187.607 42.3573L187.603 42.3535Z" fill="white"/>
<path d="M192.422 30.5257C207.747 35.6876 222.66 37.7455 222.66 37.7455C225.436 22.3481 216.62 6.83524 201.338 1.68481C186.009 -3.481 169.536 3.59651 162.449 17.6169C162.449 17.6169 177.097 25.3637 192.422 30.5257Z" fill="#DEE8FD"/>
</g>
<defs>
<linearGradient id="paint0_linear_3097_878" x1="166.498" y1="88.5149" x2="166.498" y2="180.999" gradientUnits="userSpaceOnUse">
<stop stop-color="#F5F8FD"/>
<stop offset="0.48" stop-color="#F5F8FD"/>
<stop offset="0.875" stop-color="white"/>
</linearGradient>
<linearGradient id="paint1_linear_3097_878" x1="170" y1="45.5" x2="164" y2="144.5" gradientUnits="userSpaceOnUse">
<stop stop-color="#AC1BDF"/>
<stop offset="1" stop-color="#F5F8FD" stop-opacity="0"/>
</linearGradient>
<linearGradient id="paint2_linear_3097_878" x1="197.807" y1="60.1411" x2="210.595" y2="60.1411" gradientUnits="userSpaceOnUse">
<stop stop-color="#9B51E0"/>
<stop offset="1" stop-color="#9245DA"/>
</linearGradient>
<linearGradient id="paint3_linear_3097_878" x1="134.889" y1="43.232" x2="161.558" y2="43.232" gradientUnits="userSpaceOnUse">
<stop stop-color="#9B51E0"/>
<stop offset="1" stop-color="#9245DA"/>
</linearGradient>
<linearGradient id="paint4_linear_3097_878" x1="179.01" y1="67.792" x2="191.121" y2="31.8362" gradientUnits="userSpaceOnUse">
<stop stop-color="#9B51E0"/>
<stop offset="1" stop-color="#9245DA"/>
</linearGradient>
<clipPath id="clip0_3097_878">
<rect width="333" height="233" fill="white"/>
</clipPath>
</defs>
</svg>
