<svg width="1280" height="105" viewBox="0 0 1280 105" fill="none" xmlns="http://www.w3.org/2000/svg">
<mask id="mask0_2265_384" style="mask-type:alpha" maskUnits="userSpaceOnUse" x="0" y="0" width="1280" height="105">
<rect width="1280" height="105" fill="#D9D9D9"/>
</mask>
<g mask="url(#mask0_2265_384)">
<g filter="url(#filter0_d_2265_384)">
<path d="M1632.33 -527.916L1629.15 -119.832C1629.15 -119.832 1584.57 -108.986 1503.42 -95.5051C1503.8 -32.106 1503.73 51.9879 1501.31 51.0335C1300.73 15.122 1332.29 62.8034 1295.5 63.9999C1084 31 772.225 70.9419 772.225 70.9419C772.225 70.9419 527.408 88.3114 316.499 63.9999C111.5 24.5 -57.7047 89.0001 -57.7047 89.0001L-50.2361 -146.224C-55.2899 -147.745 -57.7052 -148.699 -57.7052 -148.699L-202.89 -199.576C-202.89 -199.576 -86.8156 -566.858 -62.6662 -556.922C-62.6662 -556.922 281.823 -616.637 756.168 -608.52C1230.51 -600.402 1632.33 -527.916 1632.33 -527.916Z" fill="white"/>
</g>
</g>
<defs>
<filter id="filter0_d_2265_384" x="-206.89" y="-613.278" width="1843.22" height="706.278" filterUnits="userSpaceOnUse" color-interpolation-filters="sRGB">
<feFlood flood-opacity="0" result="BackgroundImageFix"/>
<feColorMatrix in="SourceAlpha" type="matrix" values="0 0 0 0 0 0 0 0 0 0 0 0 0 0 0 0 0 0 127 0" result="hardAlpha"/>
<feOffset/>
<feGaussianBlur stdDeviation="2"/>
<feComposite in2="hardAlpha" operator="out"/>
<feColorMatrix type="matrix" values="0 0 0 0 0 0 0 0 0 0 0 0 0 0 0 0 0 0 0.15 0"/>
<feBlend mode="normal" in2="BackgroundImageFix" result="effect1_dropShadow_2265_384"/>
<feBlend mode="normal" in="SourceGraphic" in2="effect1_dropShadow_2265_384" result="shape"/>
</filter>
</defs>
</svg>
