<svg xmlns="http://www.w3.org/2000/svg" width="18" height="18" viewBox="0 0 18 18" fill="none">
<path d="M9 17C13.4183 17 17 13.4183 17 9C17 4.58172 13.4183 1 9 1C4.58172 1 1 4.58172 1 9C1 13.4183 4.58172 17 9 17Z" stroke="#2A374A" stroke-linecap="square"/>
<path d="M8.9998 17C11.1331 15.0606 12.1998 12.3939 12.1998 9C12.1998 5.60606 11.1331 2.93939 8.9998 1C6.86647 2.93939 5.7998 5.60606 5.7998 9C5.7998 12.3939 6.86647 15.0606 8.9998 17Z" stroke="#2A374A" stroke-linecap="round"/>
<path d="M1.40039 6.60059H16.6004M1.40039 11.4006H16.6004" stroke="#2A374A" stroke-linecap="round"/>
</svg>