<svg width="104" height="24" viewBox="0 0 104 24" fill="current" xmlns="http://www.w3.org/2000/svg">
<path d="M1.53805 23C1.25938 23 1.01871 22.9113 0.816047 22.734C0.638714 22.5313 0.550047 22.2907 0.550047 22.012V2.29C0.550047 2.01133 0.638714 1.78333 0.816047 1.606C1.01871 1.40333 1.25938 1.302 1.53805 1.302H10.582C12.8367 1.302 14.7367 1.59333 16.282 2.176C17.8527 2.75867 19.0307 3.734 19.816 5.102C20.6267 6.44467 21.032 8.28133 21.032 10.612V21.974C21.032 22.2273 20.9307 22.468 20.728 22.696C20.5254 22.8987 20.2847 23 20.006 23H1.53805ZM7.04805 17.186H14.04V10.802C14.04 9.586 13.736 8.674 13.128 8.066C12.5454 7.43267 11.6334 7.116 10.392 7.116H7.04805V17.186ZM25.7678 13.956C25.4891 13.956 25.2485 13.8673 25.0458 13.69C24.8685 13.4873 24.7798 13.2467 24.7798 12.968V2.29C24.7798 2.01133 24.8685 1.78333 25.0458 1.606C25.2485 1.40333 25.4891 1.302 25.7678 1.302H31.4298C31.6831 1.302 31.9111 1.40333 32.1138 1.606C32.3165 1.78333 32.4178 2.01133 32.4178 2.29V12.968C32.4178 13.2467 32.3165 13.4873 32.1138 13.69C31.9111 13.8673 31.6831 13.956 31.4298 13.956H25.7678ZM47.3046 23C47.0259 23 46.7853 22.9113 46.5826 22.734C46.4053 22.5567 46.3166 22.3287 46.3166 22.05V10.802C46.3166 9.586 46.0126 8.674 45.4046 8.066C44.8219 7.43267 43.9099 7.116 42.6686 7.116H36.6646C36.3859 7.116 36.1453 7.02733 35.9426 6.85C35.7653 6.64733 35.6766 6.40667 35.6766 6.128V2.29C35.6766 2.01133 35.7653 1.78333 35.9426 1.606C36.1453 1.40333 36.3859 1.302 36.6646 1.302H42.8966C45.2273 1.302 47.1906 1.59333 48.7866 2.176C50.3826 2.75867 51.5859 3.72133 52.3966 5.064C53.2326 6.40667 53.6506 8.24333 53.6506 10.574V22.012C53.6506 22.2907 53.5493 22.5313 53.3466 22.734C53.1693 22.9113 52.9413 23 52.6626 23H47.3046ZM70.2809 17.566C71.4969 17.566 72.5989 17.3127 73.5869 16.806C74.5749 16.2993 75.3476 15.6153 75.9049 14.754C76.4876 13.8927 76.7789 12.93 76.7789 11.866V2.252C76.7789 1.97333 76.8676 1.74533 77.0449 1.568C77.2476 1.39067 77.4883 1.302 77.7669 1.302H82.5169C82.7703 1.302 82.9983 1.40333 83.2009 1.606C83.4036 1.78333 83.5049 2.01133 83.5049 2.29V12.056C83.5049 13.804 83.1883 15.3747 82.5549 16.768C81.9469 18.1613 81.0983 19.352 80.0089 20.34C78.9196 21.3027 77.6656 22.05 76.2469 22.582C74.8283 23.0887 73.3083 23.342 71.6869 23.342H67.8109C65.5816 23.342 63.6943 22.9367 62.1489 22.126C60.6036 21.3153 59.4256 20.2513 58.6149 18.934C57.8296 17.5913 57.4369 16.1473 57.4369 14.602V2.29C57.4369 2.01133 57.5256 1.78333 57.7029 1.606C57.9056 1.40333 58.1463 1.302 58.4249 1.302H63.1369C63.4156 1.302 63.6436 1.39067 63.8209 1.568C64.0236 1.74533 64.1249 1.97333 64.1249 2.252L64.1629 10.992C64.1629 13.0947 64.6696 14.716 65.6829 15.856C66.6963 16.996 67.9503 17.566 69.4449 17.566H70.2809ZM63.5929 15.78V10.954C64.4796 10.9287 65.1889 10.7133 65.7209 10.308C66.2529 9.90267 66.6203 9.30733 66.8229 8.522C67.0509 7.71133 67.1649 6.71067 67.1649 5.52V2.366C67.1649 2.03666 67.2663 1.78333 67.4689 1.606C67.6716 1.40333 67.8996 1.302 68.1529 1.302H72.8649C73.1436 1.302 73.3716 1.416 73.5489 1.644C73.7516 1.84667 73.8529 2.08733 73.8529 2.366V5.558C73.8529 7.81267 73.4349 9.7 72.5989 11.22C71.7883 12.7147 70.6103 13.8547 69.0649 14.64C67.5449 15.4 65.7209 15.78 63.5929 15.78ZM96.4742 23C96.1956 23 95.9549 22.9113 95.7522 22.734C95.5749 22.5313 95.4862 22.2907 95.4862 22.012L93.2062 10.726C93.0289 9.86467 92.8262 9.18067 92.5982 8.674C92.3702 8.142 92.0536 7.74933 91.6482 7.496C91.2429 7.24267 90.6856 7.116 89.9762 7.116H88.6462C88.3676 7.116 88.1269 7.02733 87.9242 6.85C87.7469 6.64733 87.6582 6.40667 87.6582 6.128V1.986C87.6582 1.70733 87.7469 1.47933 87.9242 1.302C88.1269 1.09933 88.3676 0.997998 88.6462 0.997998H90.1282C92.4082 0.997998 94.2449 1.31466 95.6382 1.948C97.0569 2.58133 98.1589 3.59467 98.9442 4.988C99.7549 6.38133 100.376 8.218 100.806 10.498L103.124 22.012C103.175 22.2907 103.086 22.5313 102.858 22.734C102.63 22.9113 102.377 23 102.098 23H96.4742ZM93.1302 21.138C92.0916 21.7207 91.1542 22.1893 90.3182 22.544C89.4822 22.8733 88.6209 23.1267 87.7342 23.304C87.4809 23.3293 87.2656 23.304 87.0882 23.228C86.9109 23.152 86.8222 22.9873 86.8222 22.734V17.946C86.8222 17.5153 87.0882 17.1987 87.6202 16.996C87.7976 16.92 88.1396 16.806 88.6462 16.654C89.1529 16.502 89.6976 16.3373 90.2802 16.16C90.8629 15.9827 91.3569 15.8053 91.7622 15.628C92.3196 15.4 92.8389 15.0833 93.3202 14.678C93.8016 14.2727 94.2322 13.804 94.6122 13.272C94.9922 12.74 95.2962 12.1827 95.5242 11.6L97.7282 11.79C97.5762 13.4873 97.3102 14.9313 96.9302 16.122C96.5756 17.3127 96.0816 18.3133 95.4482 19.124C94.8149 19.9347 94.0422 20.606 93.1302 21.138Z" fill="current"/>
</svg>
