<svg width="1260" height="828" viewBox="0 0 1260 828" fill="none" xmlns="http://www.w3.org/2000/svg">
<mask id="mask0_3097_753" style="mask-type:alpha" maskUnits="userSpaceOnUse" x="0" y="0" width="1260" height="828">
<rect width="1260" height="828" fill="#0C0043"/>
</mask>
<g mask="url(#mask0_3097_753)">
<rect opacity="0.2" x="-24" y="-75" width="1296" height="1051" fill="url(#paint0_linear_3097_753)"/>
<line x1="123.5" y1="51" x2="123.5" y2="267" stroke="url(#paint1_linear_3097_753)"/>
<line x1="265.5" y1="318" x2="265.5" y2="534" stroke="url(#paint2_linear_3097_753)"/>
<line x1="982.5" y1="81" x2="982.5" y2="297" stroke="url(#paint3_linear_3097_753)"/>
<path d="M1117.5 446L1117.5 662" stroke="url(#paint4_linear_3097_753)"/>
<line x1="1229.5" y1="166" x2="1229.5" y2="456" stroke="url(#paint5_linear_3097_753)"/>
<line x1="1029.5" y1="615" x2="1029.5" y2="905" stroke="url(#paint6_linear_3097_753)"/>
<line x1="875.5" y1="585" x2="875.5" y2="731" stroke="url(#paint7_linear_3097_753)"/>
<line x1="354.5" y1="646" x2="354.5" y2="905" stroke="url(#paint8_linear_3097_753)"/>
<line x1="83.5" y1="431" x2="83.5" y2="575" stroke="url(#paint9_linear_3097_753)"/>
<line x1="314.5" y1="9" x2="314.5" y2="153" stroke="url(#paint10_linear_3097_753)"/>
<line x1="456.5" y1="-54" x2="456.5" y2="90" stroke="url(#paint11_linear_3097_753)"/>
<line x1="698.5" y1="-79" x2="698.5" y2="65" stroke="url(#paint12_linear_3097_753)"/>
<rect x="74.5" y="248.5" width="8" height="8" rx="1.5" stroke="#2F80ED"/>
<rect x="79.5" y="617.5" width="11" height="11" rx="1.5" stroke="#AC1BDF"/>
<rect x="117.5" y="275.5" width="11" height="11" rx="1.5" stroke="#2F80ED"/>
<rect x="75.5" y="680.5" width="18" height="18" rx="1.5" stroke="#AC1BDF"/>
<rect x="72.5" y="749.5" width="25" height="25" rx="1.5" stroke="#AC1BDF"/>
<rect x="309.5" y="167.5" width="8" height="8" rx="1.5" stroke="#2F80ED"/>
<rect x="178" y="196" width="17" height="17" rx="2" fill="url(#paint13_linear_3097_753)"/>
<rect x="689" y="81" width="17" height="17" rx="2" fill="url(#paint14_linear_3097_753)"/>
<rect x="258" y="561" width="14" height="14" rx="2" fill="url(#paint15_linear_3097_753)"/>
<rect x="639" y="753" width="14" height="14" rx="2" fill="url(#paint16_linear_3097_753)"/>
<rect x="251" y="646" width="28" height="28" rx="2" fill="url(#paint17_linear_3097_753)"/>
<rect x="633" y="652" width="28" height="28" rx="2" fill="url(#paint18_linear_3097_753)"/>
<rect x="1103" y="666" width="28" height="28" rx="2" fill="url(#paint19_linear_3097_753)"/>
<rect x="293" y="753" width="16" height="16" rx="2" fill="url(#paint20_linear_3097_753)"/>
<rect x="427" y="699" width="16" height="16" rx="2" fill="url(#paint21_linear_3097_753)"/>
<rect x="639" y="707" width="16" height="16" rx="2" fill="url(#paint22_linear_3097_753)"/>
<rect x="867" y="745" width="16" height="16" rx="2" fill="url(#paint23_linear_3097_753)"/>
<rect x="832" y="542" width="16" height="16" rx="2" fill="url(#paint24_linear_3097_753)"/>
<rect x="1164" y="255" width="16" height="16" rx="2" fill="url(#paint25_linear_3097_753)"/>
<rect x="1078" y="162" width="16" height="16" rx="2" fill="url(#paint26_linear_3097_753)"/>
<rect x="874" y="154" width="12" height="12" rx="2" fill="url(#paint27_linear_3097_753)"/>
<rect x="1135" y="519" width="16" height="16" rx="2" fill="url(#paint28_linear_3097_753)"/>
<rect x="449.5" y="109.5" width="14" height="14" rx="1.5" stroke="#AC1BDF"/>
<rect x="346.5" y="526.5" width="14" height="14" rx="1.5" stroke="#2F80ED"/>
<rect x="845.5" y="405.5" width="8" height="8" rx="1.5" stroke="#AC1BDF"/>
<rect x="973.5" y="328.5" width="17" height="17" rx="1.5" stroke="#AC1BDF"/>
<rect x="1138.5" y="115.5" width="25" height="25" rx="1.5" stroke="#AC1BDF"/>
<rect x="1141.5" y="46.5" width="18" height="18" rx="1.5" stroke="#AC1BDF"/>
<rect x="976.5" y="597.5" width="8" height="8" rx="1.5" stroke="#AC1BDF"/>
<rect x="1197.5" y="767.5" width="14" height="14" rx="1.5" stroke="#AC1BDF"/>
</g>
<defs>
<linearGradient id="paint0_linear_3097_753" x1="1272" y1="230" x2="4.6531" y2="966.898" gradientUnits="userSpaceOnUse">
<stop stop-color="#F5F8FD"/>
<stop offset="1" stop-color="#EAF2FF"/>
</linearGradient>
<linearGradient id="paint1_linear_3097_753" x1="123" y1="243.5" x2="123" y2="58" gradientUnits="userSpaceOnUse">
<stop stop-color="#33CFFC"/>
<stop offset="1" stop-color="#F1F6FD"/>
</linearGradient>
<linearGradient id="paint2_linear_3097_753" x1="265" y1="510.5" x2="265" y2="325" gradientUnits="userSpaceOnUse">
<stop stop-color="#33CFFC"/>
<stop offset="1" stop-color="#F1F6FD"/>
</linearGradient>
<linearGradient id="paint3_linear_3097_753" x1="981.501" y1="297" x2="981.501" y2="148.439" gradientUnits="userSpaceOnUse">
<stop stop-color="#AC1BDF"/>
<stop offset="1" stop-color="#FCFDFE"/>
</linearGradient>
<linearGradient id="paint4_linear_3097_753" x1="1117.5" y1="638.5" x2="1117.5" y2="453" gradientUnits="userSpaceOnUse">
<stop stop-color="#33CFFC"/>
<stop offset="1" stop-color="#F1F6FD"/>
</linearGradient>
<linearGradient id="paint5_linear_3097_753" x1="1229" y1="424.449" x2="1229" y2="175.398" gradientUnits="userSpaceOnUse">
<stop stop-color="#33CFFC"/>
<stop offset="1" stop-color="#F1F6FD"/>
</linearGradient>
<linearGradient id="paint6_linear_3097_753" x1="1029" y1="873.449" x2="1029" y2="624.398" gradientUnits="userSpaceOnUse">
<stop stop-color="#33CFFC"/>
<stop offset="1" stop-color="#F1F6FD"/>
</linearGradient>
<linearGradient id="paint7_linear_3097_753" x1="874.501" y1="731" x2="874.501" y2="630.584" gradientUnits="userSpaceOnUse">
<stop stop-color="#AC1BDF"/>
<stop offset="1" stop-color="#FCFDFE"/>
</linearGradient>
<linearGradient id="paint8_linear_3097_753" x1="354" y1="876.822" x2="354" y2="654.394" gradientUnits="userSpaceOnUse">
<stop stop-color="#33CFFC"/>
<stop offset="1" stop-color="#F1F6FD"/>
</linearGradient>
<linearGradient id="paint9_linear_3097_753" x1="82.5008" y1="575" x2="82.5008" y2="475.959" gradientUnits="userSpaceOnUse">
<stop stop-color="#AC1BDF"/>
<stop offset="1" stop-color="#FCFDFE"/>
</linearGradient>
<linearGradient id="paint10_linear_3097_753" x1="314" y1="137.333" x2="314" y2="13.6667" gradientUnits="userSpaceOnUse">
<stop stop-color="#33CFFC"/>
<stop offset="1" stop-color="#F1F6FD"/>
</linearGradient>
<linearGradient id="paint11_linear_3097_753" x1="455.501" y1="90" x2="455.501" y2="-9.04072" gradientUnits="userSpaceOnUse">
<stop stop-color="#AC1BDF"/>
<stop offset="1" stop-color="#FCFDFE"/>
</linearGradient>
<linearGradient id="paint12_linear_3097_753" x1="697.501" y1="65" x2="697.501" y2="-34.0407" gradientUnits="userSpaceOnUse">
<stop stop-color="#AC1BDF"/>
<stop offset="1" stop-color="#FCFDFE"/>
</linearGradient>
<linearGradient id="paint13_linear_3097_753" x1="195" y1="204.365" x2="176.921" y2="204.365" gradientUnits="userSpaceOnUse">
<stop stop-color="#AC1BDF"/>
<stop offset="1" stop-color="#8713B0"/>
</linearGradient>
<linearGradient id="paint14_linear_3097_753" x1="706" y1="89.3651" x2="687.921" y2="89.3651" gradientUnits="userSpaceOnUse">
<stop stop-color="#AC1BDF"/>
<stop offset="1" stop-color="#8713B0"/>
</linearGradient>
<linearGradient id="paint15_linear_3097_753" x1="272" y1="561" x2="256.07" y2="563.728" gradientUnits="userSpaceOnUse">
<stop stop-color="#33D6FC"/>
<stop offset="1" stop-color="#33B8FC"/>
</linearGradient>
<linearGradient id="paint16_linear_3097_753" x1="653" y1="753" x2="637.07" y2="755.728" gradientUnits="userSpaceOnUse">
<stop stop-color="#33D6FC"/>
<stop offset="1" stop-color="#33B8FC"/>
</linearGradient>
<linearGradient id="paint17_linear_3097_753" x1="279" y1="646" x2="247.14" y2="651.455" gradientUnits="userSpaceOnUse">
<stop stop-color="#33D6FC"/>
<stop offset="1" stop-color="#33B8FC"/>
</linearGradient>
<linearGradient id="paint18_linear_3097_753" x1="661" y1="652" x2="629.14" y2="657.455" gradientUnits="userSpaceOnUse">
<stop stop-color="#33D6FC"/>
<stop offset="1" stop-color="#33B8FC"/>
</linearGradient>
<linearGradient id="paint19_linear_3097_753" x1="1131" y1="666" x2="1099.14" y2="671.455" gradientUnits="userSpaceOnUse">
<stop stop-color="#33D6FC"/>
<stop offset="1" stop-color="#33B8FC"/>
</linearGradient>
<linearGradient id="paint20_linear_3097_753" x1="309" y1="760.873" x2="291.984" y2="760.873" gradientUnits="userSpaceOnUse">
<stop stop-color="#AC1BDF"/>
<stop offset="1" stop-color="#8713B0"/>
</linearGradient>
<linearGradient id="paint21_linear_3097_753" x1="443" y1="706.873" x2="425.984" y2="706.873" gradientUnits="userSpaceOnUse">
<stop stop-color="#AC1BDF"/>
<stop offset="1" stop-color="#8713B0"/>
</linearGradient>
<linearGradient id="paint22_linear_3097_753" x1="655" y1="707" x2="636.794" y2="710.117" gradientUnits="userSpaceOnUse">
<stop stop-color="#33D6FC"/>
<stop offset="1" stop-color="#33B8FC"/>
</linearGradient>
<linearGradient id="paint23_linear_3097_753" x1="883" y1="752.873" x2="865.984" y2="752.873" gradientUnits="userSpaceOnUse">
<stop stop-color="#AC1BDF"/>
<stop offset="1" stop-color="#8713B0"/>
</linearGradient>
<linearGradient id="paint24_linear_3097_753" x1="848" y1="549.873" x2="830.984" y2="549.873" gradientUnits="userSpaceOnUse">
<stop stop-color="#AC1BDF"/>
<stop offset="1" stop-color="#8713B0"/>
</linearGradient>
<linearGradient id="paint25_linear_3097_753" x1="1180" y1="262.873" x2="1162.98" y2="262.873" gradientUnits="userSpaceOnUse">
<stop stop-color="#AC1BDF"/>
<stop offset="1" stop-color="#8713B0"/>
</linearGradient>
<linearGradient id="paint26_linear_3097_753" x1="1094" y1="169.873" x2="1076.98" y2="169.873" gradientUnits="userSpaceOnUse">
<stop stop-color="#AC1BDF"/>
<stop offset="1" stop-color="#8713B0"/>
</linearGradient>
<linearGradient id="paint27_linear_3097_753" x1="886" y1="159.905" x2="873.238" y2="159.905" gradientUnits="userSpaceOnUse">
<stop stop-color="#AC1BDF"/>
<stop offset="1" stop-color="#8713B0"/>
</linearGradient>
<linearGradient id="paint28_linear_3097_753" x1="1151" y1="519" x2="1132.79" y2="522.117" gradientUnits="userSpaceOnUse">
<stop stop-color="#33D6FC"/>
<stop offset="1" stop-color="#33B8FC"/>
</linearGradient>
</defs>
</svg>
