<svg width="18" height="18" viewBox="0 0 18 18" fill="none" xmlns="http://www.w3.org/2000/svg">
<path d="M8.97743 0.662598C7.33321 0.662598 5.7259 1.15017 4.35877 2.06365C2.99165 2.97714 1.9261 4.27551 1.29688 5.79458C0.667665 7.31364 0.503032 8.98519 0.823805 10.5978C1.14458 12.2105 1.93635 13.6918 3.099 14.8544C4.26164 16.017 5.74294 16.8088 7.35558 17.1296C8.96821 17.4504 10.6398 17.2857 12.1588 16.6565C13.6779 16.0273 14.9763 14.9617 15.8897 13.5946C16.8032 12.2275 17.2908 10.6202 17.2908 8.97596C17.2908 7.88424 17.0758 6.8032 16.658 5.79458C16.2402 4.78595 15.6278 3.86949 14.8559 3.09753C14.0839 2.32556 13.1674 1.7132 12.1588 1.29541C11.1502 0.877629 10.0692 0.662598 8.97743 0.662598ZM8.97743 15.6267C7.66205 15.6267 6.37621 15.2366 5.28251 14.5058C4.1888 13.775 3.33637 12.7363 2.83299 11.5211C2.32962 10.3058 2.19791 8.96859 2.45453 7.67848C2.71115 6.38837 3.34457 5.20333 4.27468 4.27321C5.2048 3.3431 6.38984 2.70968 7.67995 2.45306C8.97006 2.19644 10.3073 2.32815 11.5225 2.83152C12.7378 3.3349 13.7765 4.18734 14.5073 5.28104C15.2381 6.37474 15.6281 7.66058 15.6281 8.97596C15.6281 10.7398 14.9274 12.4315 13.6802 13.6787C12.4329 14.926 10.7413 15.6267 8.97743 15.6267Z" fill="#9B51E0"/>
<path d="M12.3032 8.14456H9.80916V5.65055C9.80916 5.43007 9.72157 5.21861 9.56566 5.06271C9.40976 4.9068 9.19831 4.81921 8.97782 4.81921C8.75734 4.81921 8.54588 4.9068 8.38998 5.06271C8.23407 5.21861 8.14648 5.43007 8.14648 5.65055V8.9759C8.14648 9.19638 8.23407 9.40784 8.38998 9.56374C8.54588 9.71965 8.75734 9.80723 8.97782 9.80723H12.3032C12.5237 9.80723 12.7351 9.71965 12.891 9.56374C13.0469 9.40784 13.1345 9.19638 13.1345 8.9759C13.1345 8.75541 13.0469 8.54396 12.891 8.38805C12.7351 8.23215 12.5237 8.14456 12.3032 8.14456Z" fill="#9B51E0"/>
</svg>
