<svg width="48" height="48" viewBox="0 0 48 48" fill="none" xmlns="http://www.w3.org/2000/svg">
<circle cx="24" cy="24" r="24" fill="#DA9F09"/>
<path d="M38.9043 11.3999C38.8811 11.1783 38.7092 11.0013 38.4882 10.9717C34.7246 10.4688 32.1882 11.6195 30.5913 12.8963C29.5322 12.3836 28.3558 12.1627 27.1829 12.2557C27.4094 12.0486 27.671 11.8836 27.9552 11.768C28.1636 11.6975 28.2979 11.4949 28.2818 11.2755C28.2656 11.0561 28.1032 10.8753 27.8867 10.836C24.416 10.2085 22.7053 11.1836 21.9892 11.8266C21.9145 11.4191 21.9282 11.0004 22.0292 10.5985C22.0714 10.4279 22.0175 10.2476 21.8882 10.1283C21.7592 10.0089 21.5753 9.96916 21.4085 10.0246C19.7528 10.5755 19.1465 11.6869 19.0022 12.5882C18.4266 12.3114 17.8046 12.1443 17.1678 12.0955C15.1186 10.9798 12.7543 10.5834 10.453 10.9697C10.2322 11.0004 10.0612 11.178 10.0389 11.3999C10.0307 11.4737 9.48716 17.1783 12.7382 20.4684C12.6372 20.6494 12.5243 20.8454 12.3926 21.0703C11.794 22.0839 11.0491 23.3495 10.9594 24.4433C10.9413 24.6596 11.0699 24.8614 11.2736 24.9363C11.4774 25.0114 11.7061 24.9411 11.8327 24.7648C12.0656 24.4716 12.3736 24.2473 12.7243 24.1156C12.3042 25.9054 11.3894 30.55 12.4346 33.3415C12.5106 33.5427 12.7108 33.6696 12.9253 33.6521C13.1399 33.6347 13.3171 33.4771 13.3593 33.2661C13.468 32.8962 13.7133 32.5816 14.0454 32.3856C14.6038 33.8936 16.6132 37.9706 21.9762 37.9706C22.1699 37.9695 22.3445 37.8526 22.4192 37.6736C22.4937 37.4947 22.4541 37.2885 22.3182 37.15C22.0831 36.9383 22.0305 36.5896 22.1934 36.3183C22.6775 36.324 23.1448 36.4975 23.5158 36.8086C23.6336 36.9723 23.6608 37.1844 23.5883 37.3725C23.5536 37.5099 23.5812 37.6557 23.6637 37.7711C23.7461 37.8864 23.8751 37.9598 24.0165 37.9715C24.0671 37.9759 24.3838 38 24.8529 38C26.2529 38 29.0114 37.7808 30.066 36.1421C30.3964 36.4279 30.6825 36.7772 30.6527 37.0143C30.6282 37.2065 30.7212 37.3948 30.8887 37.4922C31.0564 37.5899 31.2659 37.5775 31.421 37.4613C33.3973 35.8679 34.7557 33.6351 35.2624 31.1475L36.3244 31.6809C36.4667 31.7521 36.635 31.7485 36.7745 31.6714C36.9137 31.5943 37.0058 31.4533 37.0208 31.2947C37.3414 28.0766 36.3639 24.9743 35.8362 23.5855C36.1547 23.6383 36.4611 23.7484 36.7404 23.9099C36.9022 24.0261 37.1185 24.031 37.2853 23.9223C37.4521 23.8138 37.5352 23.6138 37.4943 23.4191C37.2246 22.6067 36.846 21.8342 36.3696 21.1229C36.2592 20.9366 36.1544 20.759 36.0676 20.6054C39.4748 17.3369 38.9145 11.4728 38.9043 11.3999ZM10.9561 12.1359C12.8279 12.8026 14.252 13.6078 16.8151 17.968C16.9502 18.1978 17.246 18.2745 17.4758 18.1392C17.7056 18.004 17.7823 17.7084 17.6473 17.4786C15.5687 13.9427 14.1336 12.5834 12.686 11.8217C14.1234 11.8584 15.5296 12.2479 16.7807 12.9561C16.8129 12.9802 16.8483 13.0001 16.8856 13.0154C18.0952 13.7209 19.0822 14.7526 19.7334 15.9922C19.8538 16.2167 20.1276 16.309 20.3592 16.2034C20.5907 16.0978 20.7006 15.8304 20.61 15.5927C20.2845 14.9638 19.8735 14.3831 19.3883 13.8674C19.4185 13.8747 19.4495 13.8793 19.4806 13.8809C19.6251 13.8809 19.7619 13.8161 19.8536 13.7045C19.9453 13.5927 19.9822 13.4458 19.9541 13.3041C19.8379 12.4817 20.2443 11.6737 20.9741 11.2768C20.9611 11.899 21.0965 12.6616 21.7603 12.9937C21.9841 13.1029 22.2544 13.0264 22.3878 12.816C22.4294 12.7509 23.3455 11.395 26.4478 11.622C26.1157 11.9426 25.8622 12.3354 25.7069 12.7703C25.6808 12.8295 25.6671 12.8936 25.6669 12.9586V12.9758C25.6671 13.035 25.6784 13.0936 25.7 13.1486V13.1574C25.723 13.2164 25.7575 13.2701 25.8015 13.3156C25.94 13.4533 26.1479 13.494 26.328 13.4184C27.4693 13.0514 28.7058 13.1188 29.8007 13.6073C29.2107 14.1882 28.7155 14.8582 28.3333 15.5927C28.2303 15.8335 28.3383 16.1126 28.5768 16.2213C28.8152 16.3302 29.0967 16.2288 29.2114 15.9933C29.6276 15.1859 30.1957 14.4664 30.8843 13.8742C30.9344 13.8448 30.9788 13.8064 31.0151 13.7611C32.4913 12.5381 34.3399 11.854 36.2567 11.8217C34.8086 12.5834 33.3745 13.9427 31.2961 17.4786C31.1609 17.7084 31.2376 18.004 31.4674 18.1392C31.6972 18.2745 31.993 18.1978 32.1283 17.968C34.687 13.6155 36.1105 12.8054 37.9873 12.1364C38.0529 14.1126 37.8033 20.0199 32.6292 21.4568C32.3654 19.5835 30.9176 18.0973 29.0518 17.7844C27.186 17.4713 25.3324 18.4037 24.4717 20.0884C23.6106 18.4037 21.7568 17.4715 19.8907 17.7848C18.0249 18.0984 16.5774 19.5852 16.314 21.4588C15.3431 21.1991 14.4449 20.7203 13.6881 20.059C13.6735 20.0415 13.6572 20.0254 13.6399 20.0108C11.0527 17.6796 10.9077 13.6913 10.9561 12.1359ZM31.7122 22.0675C31.7122 23.9335 30.1993 25.4465 28.3333 25.4465C26.4672 25.4465 24.9543 23.9335 24.9543 22.0675C24.9543 20.2013 26.4672 18.6886 28.3333 18.6886C30.1984 18.6908 31.71 20.2021 31.7122 22.0675ZM23.9889 22.0675C23.9889 23.9335 22.4762 25.4465 20.61 25.4465C18.7439 25.4465 17.2312 23.9335 17.2312 22.0675C17.2312 20.2013 18.7439 18.6886 20.61 18.6886C22.4753 18.6908 23.9867 20.2021 23.9889 22.0675ZM35.5391 21.6148C35.7273 21.9327 35.9492 22.3088 36.1385 22.6617C35.7945 22.5866 35.4432 22.5492 35.0909 22.5501C34.9265 22.5503 34.7734 22.6341 34.6848 22.7726C34.596 22.9111 34.5841 23.0853 34.6528 23.2346C35.6321 25.5273 36.1288 27.997 36.112 30.4902L35.0949 29.9804C34.9524 29.909 34.7838 29.9123 34.6446 29.9897C34.5052 30.0668 34.4128 30.208 34.3978 30.3666C34.1108 33.2498 32.3137 35.3191 31.3896 36.2071C31.0657 35.719 30.6392 35.3071 30.1401 35.0004C30.0146 34.9233 29.8608 34.9079 29.7224 34.958C29.5839 35.0084 29.4761 35.1191 29.4294 35.2587C28.9082 36.8179 26.109 37.0742 24.5831 37.0359C24.5681 36.7376 24.4613 36.4511 24.2775 36.2155C23.6168 35.3644 22.1421 35.3418 21.9762 35.3418C21.848 35.3418 21.7254 35.3926 21.6348 35.4832C21.222 35.8587 21.0424 36.4267 21.1646 36.9714C16.0727 36.5131 14.8552 31.8179 14.8042 31.6067C14.7721 31.4756 14.6866 31.3641 14.5686 31.2989C14.4506 31.2337 14.3108 31.2209 14.1828 31.2633C13.7599 31.3979 13.3748 31.6308 13.0592 31.943C12.4827 28.6535 13.82 23.6984 13.8353 23.6405C13.8741 23.4958 13.8434 23.3409 13.7522 23.222C13.6609 23.1029 13.5195 23.0331 13.3695 23.0329C13.0069 23.0322 12.6476 23.1021 12.3115 23.2386C12.5859 22.6632 12.8898 22.1022 13.2219 21.5582C13.3144 21.4009 13.3984 21.2575 13.4786 21.118C14.3125 21.7478 15.268 22.1981 16.2846 22.4407C16.4497 24.3697 17.8729 25.956 19.773 26.3288C21.673 26.7015 23.5899 25.7704 24.4717 24.0465C25.3536 25.7704 27.2711 26.7015 29.1711 26.3283C31.0714 25.9551 32.4942 24.3682 32.6588 22.4387C33.6129 22.2107 34.5145 21.801 35.3134 21.2318C35.3846 21.3527 35.4584 21.4786 35.5391 21.6148Z" fill="white"/>
<path d="M32.469 26.4978C32.3245 26.3977 32.1369 26.3842 31.9796 26.4625C31.2221 26.8016 30.4333 27.0661 29.6246 27.2522C28.7867 27.4606 27.9362 27.613 27.0782 27.7089C25.3406 27.9098 23.5855 27.9098 21.8478 27.7089C20.99 27.6104 20.1398 27.4575 19.3014 27.2513C19.2919 27.2486 19.2822 27.2469 19.2725 27.2453C18.4799 27.0595 17.707 26.7974 16.9648 26.4629C16.8072 26.384 16.6194 26.3971 16.4744 26.4972C16.3295 26.597 16.2504 26.7681 16.2681 26.9433C16.4888 28.2481 17.1709 29.43 18.1902 30.2738C18.2198 31.5477 18.5762 32.7926 19.2252 33.8892C19.3105 34.0408 19.4707 34.1347 19.6446 34.1349C19.7862 34.1354 19.9206 34.0735 20.0125 33.9661C20.1046 33.8587 20.1449 33.7162 20.1225 33.5766C20.075 32.8885 20.1714 32.198 20.4054 31.5492C21.7115 32.0062 23.0881 32.228 24.4717 32.2042C25.8512 32.2265 27.2238 32.0051 28.5264 31.5501C28.7591 32.1975 28.8541 32.8863 28.8059 33.5726C28.767 33.8035 28.8994 34.0289 29.1199 34.1075C29.3402 34.186 29.5852 34.0952 29.7013 33.8917C30.3487 32.7997 30.7053 31.5598 30.7371 30.2909C31.7661 29.445 32.4553 28.256 32.6776 26.9428C32.6944 26.7674 32.6144 26.597 32.469 26.4978ZM17.4754 27.7118C17.7651 27.8154 18.1237 27.9319 18.5374 28.0496C18.4304 28.3676 18.3482 28.6931 18.2912 29.0236C17.95 28.6334 17.6745 28.1904 17.4754 27.7118ZM19.1523 30.0606C19.1651 29.4519 19.2776 28.8495 19.4853 28.2774C19.9517 28.382 20.423 28.4712 20.8992 28.5448C20.3979 29.2165 19.9855 29.9501 19.6727 30.7277C19.6727 30.7323 19.6678 30.7372 19.6658 30.7421C19.5414 31.0532 19.4367 31.3718 19.352 31.696C19.2086 31.163 19.1412 30.6124 19.1523 30.0606ZM20.7631 30.6508C21.0974 29.9495 21.5161 29.2914 22.01 28.6915C23.6416 28.8606 25.2862 28.8606 26.918 28.6915C27.4121 29.2934 27.8315 29.9528 28.1678 30.6552C26.979 31.0633 25.7283 31.2609 24.4717 31.2388C23.2107 31.2611 21.9554 31.062 20.7631 30.6508ZM29.5795 31.6988C29.4964 31.3771 29.3928 31.0609 29.2693 30.7522L29.2629 30.7383V30.7319C28.9471 29.9537 28.5337 29.2187 28.0325 28.5448C28.5218 28.4701 28.9935 28.3811 29.4482 28.2774C29.6584 28.8546 29.7702 29.4629 29.7795 30.077C29.7903 30.6243 29.7229 31.1705 29.5795 31.6988ZM30.6414 29.0338C30.5829 28.6993 30.4983 28.37 30.3887 28.0485C30.8118 27.9308 31.1749 27.8136 31.4694 27.7107C31.2677 28.1939 30.9881 28.6409 30.6421 29.0338H30.6414Z" fill="white"/>
<path d="M20.6102 20.6193C20.0246 20.6193 19.4965 20.9722 19.2725 21.5133C19.0482 22.0545 19.1721 22.6774 19.5862 23.0914C20.0005 23.5055 20.6232 23.6295 21.1643 23.4054C21.7055 23.1812 22.0584 22.6533 22.0584 22.0675C22.0584 21.2676 21.4101 20.6193 20.6102 20.6193ZM20.6102 22.5501C20.3437 22.5501 20.1276 22.334 20.1276 22.0675C20.1276 21.8008 20.3437 21.5847 20.6102 21.5847C20.8769 21.5847 21.093 21.8008 21.093 22.0675C21.093 22.334 20.8769 22.5501 20.6102 22.5501Z" fill="white"/>
<path d="M28.3334 20.6193C27.5336 20.6193 26.8853 21.2676 26.8853 22.0675C26.8853 22.8672 27.5336 23.5155 28.3334 23.5155C29.1331 23.5155 29.7816 22.8672 29.7816 22.0675C29.7816 21.2676 29.1331 20.6193 28.3334 20.6193ZM28.3334 22.5501C28.0667 22.5501 27.8506 22.334 27.8506 22.0675C27.8506 21.8008 28.0667 21.5847 28.3334 21.5847C28.5999 21.5847 28.816 21.8008 28.816 22.0675C28.816 22.334 28.5999 22.5501 28.3334 22.5501Z" fill="white"/>
</svg>
