<svg width="48" height="48" viewBox="0 0 48 48" fill="none" xmlns="http://www.w3.org/2000/svg">
<circle cx="24" cy="24" r="24" fill="#0B99EA"/>
<path d="M36.8276 24.4039C36.9877 24.4842 37.1795 24.4658 37.3213 24.3564C37.463 24.2471 37.5296 24.0664 37.4927 23.8911C37.202 22.303 36.5265 20.8104 35.5254 19.5437C37.0686 18.4899 37.9847 16.7358 37.9682 14.8672C37.9684 14.6802 37.9585 14.4937 37.9385 14.3078C37.8144 12.7516 37.1231 11.2951 35.9957 10.2155C35.7684 10.0213 35.459 9.95386 35.1716 10.0359C34.8657 10.1231 34.6239 10.3576 34.5273 10.6606C34.064 11.968 33.2796 13.1379 32.2461 14.0631C29.9702 12.4923 27.9981 12.3852 26.8197 12.5442C27.1128 12.2372 27.4688 11.9973 27.8634 11.8411C28.0655 11.7741 28.1964 11.5784 28.1814 11.3658C28.1662 11.1535 28.0091 10.9782 27.7996 10.9402C23.7956 10.2127 21.9046 11.4036 21.1732 12.1055C21.0447 11.6047 21.046 11.0793 21.1768 10.579C21.2183 10.4135 21.1658 10.2387 21.0404 10.1231C20.9148 10.0077 20.7363 9.96991 20.5747 10.0248C18.6926 10.6521 18.0438 11.932 17.9147 12.9338C17.1941 12.5674 16.4025 12.362 15.5947 12.3316C15.4062 12.3314 15.2361 12.4448 15.1639 12.619C15.0916 12.7932 15.1313 12.9939 15.2647 13.1273C15.5324 13.4004 15.7782 13.6945 15.9993 14.0067C14.7261 13.3106 13.7981 12.1183 13.4358 10.7131C13.3525 10.3996 13.1135 10.151 12.8033 10.056C12.5083 9.96449 12.187 10.0317 11.9536 10.2341C10.8403 11.3103 10.1572 12.7552 10.0323 14.2985C10.0114 14.4874 10.0013 14.6772 10.0015 14.8672C9.99496 16.6614 10.8397 18.3526 12.2779 19.4253C10.9501 21.1295 10.1579 23.1894 10.0015 25.3441C9.98607 25.5383 10.093 25.7213 10.2696 25.8036C10.4462 25.8856 10.6553 25.8491 10.7939 25.7122C11.1783 25.3651 11.6427 25.1187 12.1456 24.9949C11.6915 26.6413 10.7364 30.8456 11.8952 33.9363C11.9738 34.1472 12.192 34.2719 12.4135 34.2324C12.6352 34.1932 12.797 34.001 12.7981 33.776C12.8209 33.3203 13.036 32.8955 13.3901 32.6074C13.7808 34.17 15.3329 37.9677 21.1881 37.9677C21.3758 37.9675 21.545 37.8549 21.6174 37.682C21.6901 37.5089 21.6517 37.3093 21.5205 37.1755C21.215 36.9045 21.1604 36.4479 21.3931 36.1127C21.843 36.1462 22.6517 36.2865 22.9702 36.6935C23.1175 36.8941 23.1539 37.1557 23.0665 37.3889C23.0329 37.5217 23.0595 37.6627 23.1392 37.7742C23.2188 37.8857 23.3435 37.9564 23.4799 37.9677C23.5368 37.9725 23.893 38 24.4188 38C25.9976 38 29.1066 37.7501 30.2294 35.8795C30.6368 36.2167 31.0218 36.6603 30.9802 36.9791C30.9578 37.1644 31.0481 37.3453 31.2095 37.4388C31.3711 37.5323 31.5728 37.5204 31.7223 37.4084C31.8737 37.2948 35.2783 34.6951 36.0133 30.2868L37.2938 30.9295C37.4313 30.9991 37.5947 30.9961 37.7296 30.9215C37.8647 30.8469 37.9539 30.7102 37.9682 30.5566C38.2454 28.2388 37.5404 25.9107 36.0237 24.1363C36.2998 24.1983 36.5693 24.2879 36.8276 24.4039V24.4039ZM35.3911 10.9248C36.1094 11.6101 36.6124 12.4897 36.8393 13.4563C36.4977 13.2908 36.1458 13.1474 35.7859 13.027C35.5412 12.9451 35.2766 13.0769 35.1948 13.3216C35.113 13.5661 35.2449 13.8308 35.4894 13.9125C36.0254 14.0904 36.5395 14.3277 37.0224 14.6202C37.0276 14.7022 37.0361 14.7828 37.0361 14.8672C37.0545 16.474 36.2443 17.9769 34.8918 18.8446C34.461 18.4153 33.98 18.0398 33.459 17.7259C33.7251 17.4022 34.1688 17.2857 34.5594 17.4369C34.7571 17.5027 34.9744 17.4293 35.0918 17.2573C35.2091 17.0853 35.1981 16.8562 35.0649 16.6961C34.4466 15.9467 33.7583 15.2579 33.0089 14.6397C34.0976 13.6171 34.9161 12.3409 35.3911 10.9248ZM10.9336 14.8672C10.9336 14.7841 10.9425 14.7022 10.947 14.6202C11.4299 14.3269 11.9443 14.0889 12.4803 13.9108C12.6384 13.8579 12.7564 13.7245 12.7896 13.5609C12.8228 13.3976 12.7664 13.2286 12.6415 13.1182C12.5163 13.0075 12.3419 12.9722 12.1837 13.0251C11.8234 13.1457 11.4714 13.2893 11.1295 13.4548C11.351 12.5051 11.8395 11.6385 12.5375 10.9574C12.9347 12.4429 13.8597 13.7325 15.1394 14.5852C13.9192 14.8308 12.8922 15.6495 12.3809 16.7842C12.2996 16.9471 12.3204 17.1426 12.4345 17.2847C12.5484 17.4265 12.7347 17.4892 12.9113 17.4447C13.3827 17.325 13.8751 17.3133 14.3517 17.4107C13.8215 17.7964 13.33 18.2326 12.8838 18.7131C11.6521 17.8202 10.9262 16.3885 10.9336 14.8672ZM37.0825 29.7776L35.8484 29.1605C35.7109 29.0919 35.5484 29.0954 35.4141 29.17C35.2799 29.2447 35.1907 29.3804 35.1762 29.5334C34.8434 32.8619 32.7329 35.2251 31.7138 36.1867C31.3561 35.6121 30.8687 35.129 30.2908 34.7763C30.1697 34.7016 30.0209 34.6865 29.8871 34.7353C29.7534 34.7839 29.6491 34.891 29.6042 35.0262C28.9983 36.8399 25.7327 37.1152 24.0383 37.0659C24.0342 36.7234 23.9177 36.3917 23.7071 36.1214C22.9856 35.1978 21.3699 35.1711 21.1881 35.1711C21.0645 35.1711 20.946 35.2203 20.8586 35.3077C20.3853 35.7353 20.1985 36.3961 20.3781 37.008C14.6845 36.6132 14.2127 32.0701 14.1964 31.8697C14.1847 31.7269 14.1079 31.5979 13.9886 31.5191C13.869 31.4402 13.7202 31.4206 13.5844 31.466C13.1256 31.613 12.7202 31.892 12.4191 32.2682C11.8469 28.8544 13.2246 24.6454 13.2404 24.5979C13.2877 24.4556 13.2638 24.2994 13.1762 24.1779C13.0885 24.0562 12.948 23.9844 12.7981 23.9844C12.1944 23.9881 11.6 24.1345 11.0638 24.4118C11.5245 21.729 13.079 19.358 15.3556 17.8658C15.5732 17.7443 15.6572 17.4734 15.5459 17.2504C15.1986 16.5569 14.4137 16.4022 13.7411 16.4081C14.5298 15.5568 15.7357 15.231 16.8459 15.5692C16.9878 15.6165 17.1438 15.5926 17.2652 15.5054C17.3867 15.418 17.4587 15.2779 17.4592 15.1282C17.4561 14.9646 17.4294 14.8024 17.3804 14.6462L17.3776 14.6373C17.2381 14.2197 17.0336 13.8264 16.7717 13.4722C17.25 13.6323 17.7078 13.8488 18.1351 14.1167C18.2913 14.2195 18.4937 14.2188 18.6494 14.1151C18.805 14.0117 18.8837 13.8251 18.8492 13.6414C18.7199 12.6427 19.2399 11.6726 20.1432 11.2272C20.1063 11.9266 20.2215 12.8355 20.982 13.2149C21.1985 13.3195 21.4591 13.2453 21.5881 13.0424C21.5996 13.0238 22.6932 11.3788 26.3644 11.6864C25.9258 12.0708 25.5967 12.5641 25.4102 13.1164C25.3518 13.2917 25.4023 13.485 25.539 13.6091C25.6759 13.7331 25.8731 13.7648 26.0418 13.6898C26.0792 13.6735 29.568 12.1982 33.6642 16.5176C33.0525 16.6879 32.5739 17.1651 32.4019 17.7762C32.3255 18.0057 32.4373 18.2554 32.6592 18.3515C33.3368 18.6899 33.944 19.1539 34.449 19.7186C34.4666 19.7424 34.4866 19.7646 34.5087 19.7843C35.3976 20.7819 36.0397 21.9744 36.3834 23.2655C35.8354 23.1234 35.2716 23.0516 34.7054 23.0521C34.5028 23.0521 34.3234 23.1827 34.2614 23.3755C34.1993 23.5683 34.269 23.7792 34.4336 23.8972C36.1925 25.3315 37.1738 27.5099 37.0825 29.7776V29.7776Z" fill="white"/>
<path d="M19.7898 20.2554C18.76 20.2554 17.9253 21.0901 17.9253 22.1199C17.9253 23.1496 18.76 23.9843 19.7898 23.9843C20.8195 23.9843 21.6543 23.1496 21.6543 22.1199C21.6543 21.0901 20.8195 20.2554 19.7898 20.2554ZM19.7898 23.052C19.2748 23.052 18.8574 22.6346 18.8574 22.1199C18.8574 21.6049 19.2748 21.1875 19.7898 21.1875C20.3045 21.1875 20.7219 21.6049 20.7219 22.1199C20.7219 22.6346 20.3045 23.052 19.7898 23.052Z" fill="white"/>
<path d="M28.1799 20.2554C27.1502 20.2554 26.3154 21.0901 26.3154 22.1199C26.3154 23.1496 27.1502 23.9843 28.1799 23.9843C29.2097 23.9843 30.0444 23.1496 30.0444 22.1199C30.0444 21.0901 29.2097 20.2554 28.1799 20.2554V20.2554ZM28.1799 23.052C27.6649 23.052 27.2476 22.6346 27.2476 22.1199C27.2476 21.6049 27.6649 21.1875 28.1799 21.1875C28.6947 21.1875 29.112 21.6049 29.112 22.1199C29.112 22.6346 28.6947 23.052 28.1799 23.052V23.052Z" fill="white"/>
<path d="M31.0784 18.7382C30.4903 18.861 29.8834 18.8642 29.294 18.748C28.5265 18.631 27.808 18.2987 27.2217 17.7896C27.098 17.6705 26.9191 17.6291 26.7555 17.6816C25.5409 18.069 24.5392 18.9389 23.9849 20.087C23.4374 18.9501 22.4491 18.0863 21.2489 17.6959C21.0862 17.6425 20.9072 17.6829 20.7829 17.8009C20.1974 18.3011 19.4846 18.6289 18.724 18.748C18.1229 18.864 17.5047 18.8579 16.9062 18.7302C16.7472 18.692 16.58 18.7397 16.4652 18.8562C15.6053 19.7241 15.1246 20.8979 15.1289 22.1199C15.1265 24.295 16.6303 26.182 18.7509 26.6653C20.8718 27.1486 23.0446 26.0994 23.9849 24.1381C24.7845 25.8017 26.4913 26.8363 28.3363 26.7755C30.1812 26.7148 31.816 25.5701 32.5043 23.8572C33.1926 22.1446 32.8045 20.1868 31.5147 18.8664C31.4012 18.7508 31.2361 18.7022 31.0784 18.7382V18.7382ZM19.79 25.8488C17.7316 25.8464 16.0635 24.1783 16.0611 22.1199C16.058 21.2287 16.3778 20.3664 16.9611 19.6929C17.6012 19.7948 18.254 19.7853 18.8909 19.6649C19.7308 19.5263 20.5243 19.1853 21.2029 18.6712C22.8489 19.348 23.7873 21.0936 23.4435 22.8401C23.0999 24.5863 21.5699 25.8462 19.79 25.8488ZM28.1801 25.8488C26.3917 25.8492 24.855 24.5802 24.5173 22.8242C24.1793 21.0682 25.1357 19.3196 26.7965 18.6566C27.4798 19.1775 28.2799 19.5237 29.1272 19.6653C29.7504 19.784 30.3892 19.7957 31.0164 19.6998C31.5954 20.373 31.9121 21.232 31.909 22.1199C31.9066 24.1783 30.2385 25.8464 28.1801 25.8488V25.8488Z" fill="white"/>
<path d="M31.9084 27.2472C31.6509 27.2472 31.4422 27.4559 31.4422 27.7134C31.4422 28.7429 30.6075 29.5776 29.5777 29.5776H18.3911C17.3613 29.5776 16.5266 28.7429 16.5266 27.7134C16.5266 27.4559 16.3179 27.2472 16.0604 27.2472C15.8029 27.2472 15.5942 27.4559 15.5942 27.7134C15.5968 29.0765 16.581 30.2397 17.9249 30.4681V30.9762C17.9249 31.7484 18.5509 32.3745 19.3232 32.3745H20.2555C21.0278 32.3745 21.6538 31.7484 21.6538 30.9762V30.51H26.3149V30.9762C26.3149 31.7484 26.941 32.3745 27.7132 32.3745H28.6456C29.4178 32.3745 30.0439 31.7484 30.0439 30.9762V30.4681C31.3878 30.2397 32.3719 29.0765 32.3743 27.7134C32.3743 27.4559 32.1656 27.2472 31.9084 27.2472V27.2472ZM20.7215 30.9762C20.7215 31.2334 20.5128 31.4421 20.2555 31.4421H19.3232C19.0657 31.4421 18.857 31.2334 18.857 30.9762V30.51H20.7215V30.9762ZM29.1115 30.9762C29.1115 31.2334 28.9029 31.4421 28.6456 31.4421H27.7132C27.4558 31.4421 27.2471 31.2334 27.2471 30.9762V30.51H29.1115V30.9762Z" fill="white"/>
</svg>
