<svg width="48" height="48" viewBox="0 0 48 48" fill="none" xmlns="http://www.w3.org/2000/svg">
<circle cx="24" cy="24" r="24" fill="#A4DA09"/>
<path d="M36.8284 24.4036C36.9885 24.4838 37.1803 24.4654 37.3221 24.356C37.4638 24.2467 37.5304 24.066 37.4935 23.8907C36.7204 20.022 34.4254 18.2934 33.4584 17.7216C33.7245 17.3982 34.1682 17.2817 34.5588 17.4327C34.7565 17.4986 34.9741 17.4255 35.0916 17.2533C35.2092 17.0812 35.1981 16.8519 35.0645 16.6918C31.6535 12.5988 28.4637 12.3211 26.8178 12.5434C27.1109 12.2365 27.4669 11.9965 27.8615 11.8404C28.0637 11.7733 28.1947 11.5777 28.1795 11.3651C28.1646 11.1527 28.0073 10.9774 27.7977 10.9394C23.7947 10.2118 21.9026 11.4056 21.1713 12.1048C21.0427 11.6039 21.044 11.0785 21.175 10.5782C21.2158 10.4132 21.1637 10.2392 21.0388 10.1238C20.914 10.0084 20.7364 9.97018 20.575 10.024C18.6929 10.6514 18.044 11.9313 17.9149 12.933C17.1943 12.5666 16.4027 12.3612 15.5948 12.3308C15.4063 12.3308 15.2365 12.4445 15.1645 12.6185C15.0922 12.7927 15.1321 12.9931 15.2653 13.1265C15.6799 13.5424 16.0372 14.0116 16.3281 14.5216C14.6612 14.3407 13.0676 15.254 12.381 16.7838C12.2996 16.9465 12.3205 17.1417 12.4344 17.2836C12.5483 17.4257 12.7344 17.4884 12.911 17.4442C13.3826 17.3246 13.8752 17.3133 14.3518 17.4116C11.8074 19.2887 10.2167 22.1891 10.0015 25.3437C9.98607 25.5379 10.093 25.721 10.2696 25.8032C10.4462 25.8852 10.6553 25.8488 10.7939 25.7119C11.1783 25.3648 11.6428 25.1183 12.1456 24.9945C11.6916 26.641 10.7364 30.8454 11.8953 33.9362C11.9738 34.1471 12.192 34.2718 12.4135 34.2323C12.6352 34.1931 12.7971 34.0009 12.7982 33.7759C12.8209 33.3201 13.0361 32.8954 13.3902 32.6073C13.7802 34.1698 15.333 37.9677 21.1884 37.9677C21.3761 37.9677 21.5453 37.8549 21.6178 37.682C21.6904 37.5089 21.652 37.3093 21.5208 37.1754C21.2153 36.9045 21.1607 36.4478 21.3934 36.1127C21.8434 36.1461 22.6521 36.2865 22.9705 36.6934C23.1178 36.8941 23.1543 37.1557 23.0669 37.3889C23.0332 37.5217 23.0599 37.6627 23.1395 37.7742C23.2191 37.8857 23.3439 37.9564 23.4803 37.9677C23.5372 37.9725 23.8934 38 24.4192 38C25.9981 38 29.1065 37.7501 30.2295 35.8795C30.6374 36.2166 31.0218 36.6602 30.9808 36.9791C30.9584 37.1644 31.0487 37.3453 31.2101 37.4388C31.3717 37.5323 31.5734 37.5204 31.7229 37.4084C31.8743 37.2948 35.2791 34.695 36.014 30.2865L37.2946 30.9293C37.4321 30.9989 37.5955 30.9959 37.7304 30.9213C37.8655 30.8467 37.9547 30.71 37.969 30.5564C38.2463 28.2385 37.5412 25.9104 36.0244 24.1359C36.3006 24.1979 36.57 24.2875 36.8284 24.4036ZM37.0833 29.7774L35.8492 29.1602C35.7116 29.0917 35.5491 29.0954 35.4149 29.1698C35.2806 29.2444 35.1914 29.3802 35.1769 29.5331C34.8441 32.8617 32.7336 35.225 31.7144 36.1867C31.3567 35.612 30.8693 35.1289 30.2914 34.7762C30.1703 34.7018 30.0217 34.6868 29.8881 34.7354C29.7545 34.7842 29.6503 34.8911 29.6054 35.0261C28.9993 36.8403 25.7327 37.1175 24.0387 37.0659C24.0346 36.7234 23.9181 36.3917 23.7075 36.1214C22.9859 35.1977 21.3702 35.171 21.1884 35.171C21.0648 35.171 20.9464 35.2202 20.8589 35.3077C20.3854 35.735 20.1986 36.396 20.3784 37.008C14.6846 36.6132 14.2128 32.0699 14.1965 31.8695C14.1848 31.727 14.1082 31.5979 13.9889 31.5191C13.8696 31.4404 13.7206 31.4207 13.585 31.4658C13.1259 31.6126 12.7207 31.8916 12.4196 32.268C11.8469 28.8541 13.2246 24.645 13.2405 24.5975C13.2878 24.4552 13.2639 24.299 13.1763 24.1775C13.0886 24.056 12.9481 23.984 12.7982 23.984C12.1944 23.9877 11.6 24.1341 11.0638 24.4114C11.5243 21.7283 13.0789 19.3573 15.3558 17.8652C15.5734 17.7437 15.6573 17.4728 15.546 17.2498C15.1987 16.5562 14.4078 16.3944 13.7412 16.4076C14.5299 15.5564 15.7359 15.2304 16.8461 15.5686C16.988 15.6158 17.144 15.592 17.2654 15.5048C17.3869 15.4174 17.4589 15.2772 17.4594 15.1275C17.3926 14.5214 17.1533 13.9472 16.77 13.4728C17.2485 13.6331 17.706 13.8494 18.1334 14.1175C18.29 14.2214 18.4935 14.2212 18.6499 14.1171C18.8061 14.0129 18.8846 13.8251 18.849 13.6407C18.7206 12.6421 19.2406 11.6722 20.1435 11.2264C20.1066 11.9258 20.2218 12.8348 20.9824 13.2142C21.1989 13.3192 21.4598 13.245 21.5885 13.0417C21.5995 13.0226 22.6927 11.3757 26.3649 11.6857C25.9262 12.0699 25.5969 12.5632 25.4106 13.1157C25.3525 13.2908 25.4028 13.4838 25.5395 13.6079C25.6761 13.732 25.8731 13.7639 26.0419 13.6891C26.0785 13.6728 29.5681 12.1974 33.6644 16.517C33.0529 16.6875 32.5746 17.1645 32.4025 17.7756C32.326 18.0049 32.4375 18.2546 32.6594 18.3509C32.7759 18.4017 35.3437 19.5627 36.3885 23.2638C35.839 23.1219 35.2736 23.0505 34.7061 23.0516C34.5035 23.0516 34.3241 23.1822 34.2621 23.3751C34.2 23.5679 34.2697 23.7788 34.4343 23.8968C36.1934 25.3312 37.1748 27.5096 37.0833 29.7774Z" fill="white"/>
<path d="M28.6466 17.4583C26.6389 17.4613 24.8176 18.6349 23.9852 20.4619C22.9858 18.2655 20.5902 17.0633 18.2319 17.5748C15.8734 18.0861 14.1909 20.1726 14.1909 22.5857C14.1909 24.9986 15.8734 27.0853 18.2319 27.5966C20.5902 28.1079 22.9858 26.9057 23.9852 24.7093C25.0421 27.0317 27.6457 28.2236 30.0942 27.5062C32.5427 26.7886 34.091 24.38 33.7272 21.8544C33.3634 19.3291 31.198 17.4555 28.6466 17.4583ZM19.324 26.7807C17.0071 26.7807 15.1289 24.9025 15.1289 22.5857C15.1289 20.2687 17.0071 18.3905 19.324 18.3905C21.641 18.3905 23.5192 20.2687 23.5192 22.5857C23.5166 24.9015 21.6399 26.7781 19.324 26.7807ZM28.6466 26.7807C26.3296 26.7807 24.4514 24.9025 24.4514 22.5857C24.4514 20.2687 26.3296 18.3905 28.6466 18.3905C30.9635 18.3905 32.8417 20.2687 32.8417 22.5857C32.8391 24.9015 30.9624 26.7781 28.6466 26.7807Z" fill="white"/>
<path d="M19.324 20.7211C18.2942 20.7211 17.4595 21.5559 17.4595 22.5857C17.4595 23.6154 18.2942 24.4502 19.324 24.4502C20.3538 24.4502 21.1885 23.6154 21.1885 22.5857C21.1885 21.5559 20.3538 20.7211 19.324 20.7211ZM19.324 23.5178C18.8092 23.5178 18.3918 23.1004 18.3918 22.5857C18.3918 22.0707 18.8092 21.6533 19.324 21.6533C19.839 21.6533 20.2564 22.0707 20.2564 22.5857C20.2564 23.1004 19.839 23.5178 19.324 23.5178Z" fill="white"/>
<path d="M28.6468 20.7211C27.617 20.7211 26.7822 21.5559 26.7822 22.5857C26.7822 23.6154 27.617 24.4502 28.6468 24.4502C29.6763 24.4502 30.5111 23.6154 30.5111 22.5857C30.5111 21.5559 29.6763 20.7211 28.6468 20.7211ZM28.6468 23.5178C28.1318 23.5178 27.7144 23.1004 27.7144 22.5857C27.7144 22.0707 28.1318 21.6533 28.6468 21.6533C29.1615 21.6533 29.5789 22.0707 29.5789 22.5857C29.5789 23.1004 29.1615 23.5178 28.6468 23.5178Z" fill="white"/>
<path d="M26.8808 28.4643C25.9285 28.2673 24.9579 28.1717 23.9852 28.179C23.6901 28.179 23.4025 28.1888 23.1196 28.2038C22.6858 28.2272 22.2666 28.2686 21.8653 28.3274C21.5996 28.366 21.3395 28.4103 21.0898 28.4643C17.1863 29.2843 16.1431 31.6244 16.1021 31.7235C16.0535 31.8374 16.052 31.9656 16.0975 32.0806C16.201 32.3496 17.3355 34.7048 23.9852 34.7048C30.635 34.7048 31.7696 32.3496 31.8763 32.0814C31.9219 31.9665 31.9203 31.8383 31.8717 31.7246C31.8292 31.6252 30.7851 29.283 26.8808 28.4643ZM21.6547 29.3082L21.7577 29.2889C22.0052 29.2474 22.2582 29.2112 22.5211 29.1841L22.5636 29.1789C22.8432 29.1516 23.1289 29.1351 23.4222 29.1244H23.5192V29.5776C23.5192 30.0924 23.1018 30.5098 22.5868 30.5098C22.072 30.5098 21.6547 30.0924 21.6547 29.5776V29.3082ZM24.4514 29.1216H24.5483C24.8416 29.1322 25.1295 29.1487 25.4069 29.1761C25.4219 29.1761 25.4354 29.18 25.4503 29.1817C25.7133 29.2084 25.9668 29.2446 26.2144 29.2867C26.2489 29.2921 26.2818 29.2993 26.3159 29.3054V29.5776C26.3159 30.0924 25.8985 30.5098 25.3837 30.5098C24.8687 30.5098 24.4514 30.0924 24.4514 29.5776V29.1216ZM20.8286 33.5429C21.8126 33.0683 22.8929 32.8277 23.9852 32.8405C25.0774 32.8277 26.1578 33.068 27.1413 33.5429C26.0972 33.7047 25.0419 33.7815 23.9852 33.7726C22.9285 33.7813 21.8729 33.7047 20.8286 33.5433V33.5429ZM28.4386 33.2553C27.1339 32.3467 25.5749 31.8749 23.9852 31.9081C22.3955 31.8751 20.8362 32.347 19.5313 33.2561C17.9466 32.8049 17.2939 32.1799 17.0657 31.8914C17.3672 31.4005 18.3423 30.1559 20.7223 29.514V29.5776C20.7188 30.3551 21.2004 31.0523 21.9287 31.3248C22.6569 31.597 23.4776 31.3868 23.9852 30.7979C24.4928 31.3868 25.3137 31.597 26.0419 31.3248C26.7702 31.0523 27.2515 30.3551 27.2481 29.5776V29.5119C29.6254 30.1546 30.6014 31.3981 30.904 31.889C30.6723 32.1836 30.0146 32.8064 28.4386 33.2557V33.2553Z" fill="white"/>
</svg>
