<svg width="48" height="48" viewBox="0 0 48 48" fill="none" xmlns="http://www.w3.org/2000/svg">
<circle cx="24" cy="24" r="24" fill="#F5AF17"/>
<path d="M37.358 34.2951C36.9485 34.0273 36.4312 33.9849 35.9836 34.1825C34.7517 34.7212 33.7363 34.7556 32.9666 34.283C31.377 33.3079 31.0735 30.4179 31.017 29.5035L31.7566 19.3321C32.2955 19.2847 32.8375 19.3754 33.3316 19.5956C33.4472 19.648 33.5594 19.7075 33.6676 19.7737C33.8027 20.1084 33.9994 20.4147 34.2477 20.6766C34.5449 20.9996 34.9605 21.1881 35.3993 21.1989H35.4038C36.5805 21.1987 37.5157 19.7654 37.533 17.9327C37.5889 16.9273 37.2578 15.9386 36.6078 15.1696C36.3106 14.8466 35.895 14.6581 35.4562 14.6473H35.4517C34.7236 14.6473 34.0887 15.197 33.7058 16.0498C33.5925 16.1207 33.475 16.1846 33.354 16.2412C32.8257 16.4685 32.2465 16.5514 31.6756 16.4815C31.4002 15.0152 30.7257 13.6532 29.7263 12.5453C28.308 10.9662 26.2986 10.0455 24.1765 10.0023C20.3034 9.90931 16.9465 12.6672 16.2859 16.4846C15.7272 16.5454 15.1622 16.4615 14.6453 16.2408C14.5245 16.1843 14.4072 16.1205 14.2942 16.0498C13.9112 15.197 13.2761 14.6474 12.548 14.6474H12.5434C12.1046 14.6581 11.689 14.8466 11.3918 15.1696C10.7418 15.9387 10.4108 16.9273 10.4667 17.9327C10.4844 19.7654 11.4196 21.199 12.5963 21.199H12.6009C13.0395 21.1881 13.455 20.9997 13.752 20.6767C13.9985 20.4172 14.1942 20.1138 14.329 19.7824C14.4399 19.7124 14.555 19.6493 14.6735 19.5934C15.1663 19.3746 15.7067 19.2847 16.2437 19.3324L16.9832 29.5036C16.9267 30.418 16.6231 33.308 15.0335 34.2831C14.2642 34.7545 13.2493 34.7215 12.0166 34.1826C11.5689 33.985 11.0517 34.0274 10.6421 34.2952C10.2401 34.5578 9.99842 35.0063 10 35.4866C9.99973 36.0446 10.3236 36.5521 10.8299 36.7868C12.1856 37.3948 13.6305 37.7801 15.1089 37.9281C15.112 37.9283 15.1144 37.9301 15.1174 37.9303L15.1319 37.9306C15.5403 37.9708 15.96 38 16.4017 38C17.9594 38.0021 19.5034 37.7101 20.9527 37.1391C21.8653 36.7812 22.8372 36.5986 23.8174 36.6006H24.1829C25.1631 36.5986 26.135 36.7812 27.0476 37.1391C30.3327 38.383 33.9796 38.2561 37.1703 36.7868C37.6771 36.5516 38.001 36.0433 38.0002 35.4846C38.0012 35.0049 37.7596 34.5573 37.358 34.2951ZM34.2559 17.9227C34.2691 16.5416 34.8966 15.5807 35.4517 15.5807H35.4536C35.6433 15.5925 35.8201 15.6808 35.9435 15.8254C36.4148 16.4193 36.6487 17.1672 36.5997 17.9238C36.587 19.3046 35.9594 20.2655 35.4034 20.2655H35.4021C35.2124 20.2537 35.0355 20.1654 34.9122 20.0208C34.4408 19.427 34.2069 18.6792 34.2559 17.9227ZM32.0611 17.4446C32.5072 17.4455 32.9505 17.3737 33.3734 17.2319C33.3079 17.6911 33.3054 18.157 33.366 18.6168C32.8682 18.4423 32.3413 18.3656 31.8143 18.391C31.8285 18.0714 31.8239 17.7513 31.8003 17.4323C31.8874 17.4374 31.9751 17.4446 32.0611 17.4446ZM13.0881 20.0209C12.9643 20.1657 12.787 20.254 12.5968 20.2656C12.0412 20.2656 11.4132 19.3047 11.4 17.9236C11.351 17.167 11.5849 16.4192 12.0563 15.8254C12.1797 15.6808 12.3565 15.5925 12.5462 15.5807H12.548C13.1035 15.5807 13.7311 16.5416 13.7443 17.9227C13.7933 18.6792 13.5594 19.427 13.0881 20.0209ZM14.6341 18.6164C14.6645 18.3834 14.679 18.1485 14.6777 17.9135C14.6755 17.685 14.6584 17.4568 14.6265 17.2305C15.0508 17.3719 15.4952 17.4437 15.9423 17.443C16.0188 17.443 16.0968 17.4365 16.1742 17.4326C16.1553 17.7515 16.1562 18.0713 16.1766 18.3901C15.6527 18.3659 15.129 18.4427 14.6341 18.6164ZM15.7425 37.0447C15.9092 36.7722 16.2043 36.6045 16.5237 36.6007C16.8432 36.5969 17.1421 36.7575 17.3153 37.0259C16.7921 37.0671 16.2666 37.0734 15.7425 37.0447ZM20.6117 36.2704C19.9029 36.5484 19.1681 36.7549 18.4183 36.8868C18.4867 36.3339 18.8786 35.8752 19.4141 35.7214C19.9495 35.5675 20.5252 35.7482 20.8767 36.1805C20.7887 36.2118 20.6988 36.2362 20.6117 36.2704ZM27.3885 36.2704C27.3026 36.2367 27.2138 36.2126 27.1271 36.1817C27.4784 35.7487 28.0544 35.5674 28.5904 35.7213C29.1264 35.8751 29.5186 36.3344 29.5866 36.8878C28.8352 36.7559 28.0987 36.5491 27.3885 36.2704ZM30.6893 37.0263C30.8624 36.7578 31.1613 36.597 31.4807 36.6007C31.8002 36.6044 32.0953 36.772 32.2621 37.0445C31.738 37.0734 31.2126 37.0673 30.6893 37.0263ZM36.7811 35.9382C35.6549 36.4462 34.4611 36.7882 33.2368 36.9536C33.0519 36.3713 32.5906 35.9184 32.0051 35.744C31.4196 35.5696 30.7858 35.6964 30.3124 36.0826C29.9483 35.2929 29.1733 34.7731 28.3045 34.736C27.4357 34.6989 26.6191 35.1507 26.189 35.9064C25.5317 35.7499 24.8585 35.6696 24.1828 35.6672H23.8173C23.143 35.6696 22.4711 35.7495 21.815 35.9055C21.3847 35.1501 20.5682 34.6987 19.6996 34.736C18.8311 34.7733 18.0562 35.2931 17.6923 36.0826C17.2189 35.6963 16.5848 35.5695 15.9992 35.744C15.4136 35.9185 14.9524 36.3717 14.7677 36.9542C13.5419 36.789 12.3466 36.4468 11.2191 35.9381C11.0433 35.8557 10.9318 35.6785 10.9333 35.4845C10.9316 35.3195 11.0147 35.1653 11.1534 35.0761C11.2356 35.0216 11.3319 34.9925 11.4305 34.9925C11.5037 34.9928 11.576 35.0082 11.6429 35.0378C13.1714 35.7057 14.4766 35.7196 15.5216 35.0784C17.4599 33.8894 17.8422 30.8004 17.9165 29.5276C17.9179 29.5074 17.9178 29.487 17.916 29.4668L17.1076 18.3456C16.9664 16.4036 17.651 14.4922 18.993 13.0815C20.335 11.6708 22.2098 10.8916 24.1564 10.9356C26.0224 10.9741 27.7891 11.7843 29.0359 13.1732C30.355 14.633 31.0209 16.568 30.8793 18.5304L30.0841 29.4666C30.0824 29.4869 30.0822 29.5074 30.0836 29.5277C30.1579 30.8006 30.5403 33.8895 32.4785 35.0785C33.524 35.7197 34.8287 35.7058 36.3572 35.0379C36.5161 34.9657 36.701 34.9801 36.8467 35.0762C36.9859 35.1659 37.0691 35.321 37.0668 35.4866C37.0678 35.68 36.9562 35.8562 36.7811 35.9382Z" fill="white"/>
<path d="M24.0003 11.8653C20.6513 11.8691 17.9374 14.583 17.9336 17.932C17.9336 20.9414 20.0883 22.5987 24.0003 22.5987C27.9123 22.5987 30.067 20.9414 30.067 17.932C30.0632 14.583 27.3493 11.8691 24.0003 11.8653ZM24.0003 21.6654C21.6583 21.6654 18.8669 21.0177 18.8669 17.932C18.8669 15.0969 21.1652 12.7986 24.0003 12.7986C26.8354 12.7986 29.1337 15.0969 29.1337 17.932C29.1337 21.0177 26.3423 21.6654 24.0003 21.6654Z" fill="white"/>
<path d="M24.0004 15.5987C22.7117 15.5987 21.667 16.6433 21.667 17.9321C21.667 19.2208 22.7116 20.2654 24.0004 20.2654C25.2891 20.2654 26.3337 19.2207 26.3337 17.9321C26.3322 16.644 25.2884 15.6002 24.0004 15.5987ZM24.0004 19.3321C23.2271 19.3321 22.6003 18.7052 22.6003 17.9321C22.6003 17.1589 23.2271 16.5321 24.0004 16.5321C24.7735 16.5321 25.4004 17.1588 25.4004 17.9321C25.3995 18.7049 24.7732 19.3312 24.0004 19.3321Z" fill="white"/>
<path d="M24.1776 17.5025C24.0036 17.4317 23.8042 17.4702 23.6691 17.6007C23.4879 17.7833 23.4887 18.0781 23.6708 18.2598C23.853 18.4415 24.1477 18.4415 24.3299 18.2598C24.5121 18.0781 24.5128 17.7833 24.3317 17.6007C24.2863 17.5595 24.2341 17.5263 24.1776 17.5025Z" fill="white"/>
<path d="M29.4046 22.4478C29.2689 22.3509 29.0919 22.3338 28.9402 22.4028C28.788 22.4735 28.6422 22.5571 28.5045 22.6528C27.1833 23.5579 26.5804 23.9708 24 23.9708C21.4196 23.9708 20.8167 23.5579 19.4951 22.6524C19.3574 22.5569 19.2118 22.4734 19.0599 22.4028C18.8253 22.2961 18.5486 22.3998 18.4419 22.6343C18.3352 22.8689 18.4388 23.1456 18.6734 23.2523C18.7764 23.3006 18.875 23.3577 18.9683 23.423C19.1042 23.5161 19.2332 23.6038 19.3597 23.6887L20.0201 25.9584C20.1419 26.2806 20.43 26.5105 20.7711 26.5577C21.1318 26.6195 21.4979 26.4829 21.7299 26.1999L22.5366 25.2404L23.1997 26.346C23.3684 26.627 23.6722 26.7988 24 26.7987C24.3278 26.7987 24.6315 26.6268 24.8002 26.3458L25.4635 25.2403L26.2618 26.1902C26.4566 26.4324 26.7512 26.5726 27.062 26.5712C27.1179 26.5712 27.1737 26.5667 27.2288 26.5577C27.5805 26.5064 27.8741 26.2632 27.9899 25.9272L28.6402 23.6888C28.7672 23.6038 28.8963 23.5158 29.0326 23.4225C29.1255 23.3574 29.2239 23.3005 29.3266 23.2523C29.4783 23.1833 29.5817 23.0385 29.5978 22.8726C29.614 22.7066 29.5403 22.5447 29.4046 22.4478ZM21.0072 25.6096C20.9926 25.6261 20.9719 25.636 20.9498 25.6371C20.9193 25.6401 20.8969 25.631 20.9047 25.662L20.5263 24.3597C20.916 24.5317 21.3246 24.657 21.7436 24.7331L21.0072 25.6096ZM24 25.8654L23.4179 24.8953C23.6027 24.9006 23.7946 24.9041 24 24.9041C24.2054 24.9041 24.3973 24.9006 24.5822 24.8953L24 25.8654ZM27.1104 25.626C27.0919 25.6355 27.071 25.6394 27.0503 25.6371C27.024 25.6347 27.0001 25.6211 26.9846 25.5998L26.2564 24.7331C26.6763 24.6568 27.0856 24.5312 27.476 24.3587L27.1104 25.626Z" fill="white"/>
</svg>
