<svg width="48" height="48" viewBox="0 0 48 48" fill="none" xmlns="http://www.w3.org/2000/svg">
<circle cx="24" cy="24" r="24" fill="#DA0986"/>
<path d="M24.0273 27.7337C25.7967 27.7361 27.4145 26.7361 28.2041 25.1527C28.9936 23.5694 28.8182 21.6753 27.7516 20.2637C27.9922 20.2377 28.1729 20.0322 28.168 19.7902C28.163 19.5481 27.9738 19.3503 27.7324 19.3341H20.2661C20.0084 19.3341 19.7995 19.543 19.7995 19.8008C19.7995 20.0585 20.0084 20.2674 20.2661 20.2674H20.3007C19.2356 21.6793 19.0615 23.5724 19.8514 25.1548C20.6412 26.7372 22.2586 27.7363 24.0273 27.7337ZM24.9326 21.2006C24.9326 21.7161 24.5148 22.1341 23.9993 22.1341C23.4839 22.1341 23.0661 21.7161 23.0661 21.2006C23.0661 20.6854 23.4839 20.2674 23.9993 20.2674C24.5148 20.2674 24.9326 20.6854 24.9326 21.2006ZM22.3921 20.2674C22.2242 20.55 22.1347 20.8721 22.1328 21.2006C22.1328 22.2315 22.9685 23.0674 23.9993 23.0674C25.0302 23.0674 25.8659 22.2315 25.8659 21.2006C25.8639 20.8721 25.7742 20.55 25.6063 20.2674H26.4813C27.2949 20.9699 27.7619 21.9923 27.7604 23.0674C27.7604 25.1289 26.0891 26.8004 24.0273 26.8004C21.9656 26.8004 20.2943 25.1289 20.2943 23.0674C20.2923 21.9923 20.7593 20.9702 21.5727 20.2674H22.3921Z" fill="white"/>
<path d="M12.2254 28.4649C12.6377 28.4433 12.9861 28.1517 13.0798 27.7495C13.1732 27.3539 13.2697 26.9918 13.3729 26.6712C13.4981 28.2716 13.9151 29.8354 14.6029 31.2858C14.7614 31.5932 15.0777 31.7868 15.4238 31.7878C15.5092 31.7876 15.5943 31.7759 15.6767 31.7534C16.0984 31.6417 16.3838 31.2491 16.3598 30.8135C16.3278 30.2285 16.3609 29.6415 16.4583 29.0636C17.0929 30.1065 17.9346 31.0081 18.9315 31.7126C19.146 32.6188 19.2844 33.5414 19.3448 34.4706C18.3682 35.0185 17.1754 35.4506 16.7783 35.2517C16.5878 35.1498 16.4051 35.0336 16.2319 34.904C15.6165 34.4682 14.8498 33.9265 13.5254 34.8149C13.1279 35.0469 12.862 35.4515 12.8068 35.9084C12.8197 36.5627 13.1151 37.1794 13.6169 37.5993C13.8787 37.8572 14.2318 38.0009 14.599 37.9998H21.6217C22.3217 38.0097 22.926 37.5111 23.0491 36.822C23.121 36.37 22.969 35.9112 22.6413 35.5914C22.3907 35.3744 22.2707 35.0428 22.3243 34.7156C22.4277 34.2108 22.568 33.7144 22.7442 33.2303C23.1689 33.2955 23.5976 33.3299 24.0272 33.3333C24.4386 33.331 24.8496 33.2998 25.2567 33.24C25.4323 33.7152 25.5727 34.2025 25.6767 34.6983C25.7327 35.033 25.6115 35.3729 25.3567 35.5965C25.0305 35.9163 24.8795 36.3743 24.9515 36.8252C25.076 37.5132 25.6799 38.0101 26.379 37.9998H33.3991C33.7672 38.0007 34.1207 37.8559 34.3824 37.597C34.8842 37.177 35.1796 36.5603 35.1924 35.906C35.1371 35.4491 34.8713 35.0443 34.4738 34.8121C33.1486 33.9256 32.3824 34.4659 31.7674 34.9018C31.5941 35.0313 31.4115 35.1475 31.221 35.2494C30.8243 35.4506 29.631 35.0161 28.6544 34.4682C28.7134 33.5565 28.8482 32.6512 29.0575 31.7618C30.061 31.065 30.9108 30.1699 31.5544 29.1318C31.6418 29.6889 31.67 30.2537 31.639 30.8168C31.6153 31.2527 31.9019 31.6451 32.3245 31.7551C32.4069 31.7778 32.4919 31.7895 32.5774 31.7897C32.9232 31.7887 33.2398 31.5951 33.3983 31.2875C34.0859 29.8373 34.5027 28.2737 34.6283 26.6736C34.7319 26.9946 34.8308 27.3575 34.9222 27.7557C35.0183 28.1554 35.3646 28.445 35.7749 28.4692C36.1851 28.4933 36.5629 28.2462 36.7052 27.8606C37.518 25.7322 37.9555 23.4788 37.9984 21.2006C37.9984 18.121 36.5456 16.6501 35.6762 16.0466C35.4111 15.8638 35.0694 15.8337 34.7761 15.9674C34.473 16.1041 34.2641 16.3905 34.2269 16.721C34.0921 18.2173 33.0042 19.4544 31.5373 19.7793C31.2233 19.2777 30.86 18.8088 30.4528 18.3795C30.8315 15.4387 29.8844 12.4815 27.8675 10.308C27.5879 9.9991 27.1376 9.91216 26.7631 10.0948C26.3786 10.2774 26.1569 10.688 26.2148 11.1097C26.3669 12.2837 26.489 14.3762 25.7811 15.776C24.6076 15.5395 23.3981 15.5436 22.2258 15.7877C21.5123 14.3929 21.6324 12.2939 21.7841 11.1152C21.8443 10.6916 21.6219 10.2781 21.2353 10.0948C20.8602 9.91216 20.4095 9.99888 20.1292 10.308C18.1042 12.4958 17.1596 15.4722 17.5524 18.4275C17.1622 18.846 16.8131 19.301 16.51 19.7863C15.0269 19.4704 13.9191 18.2304 13.7717 16.721C13.7341 16.3905 13.5254 16.1041 13.2221 15.9674C12.928 15.8332 12.5847 15.864 12.3192 16.0486C11.4526 16.6501 10 18.121 10 21.2006C10.0431 23.4779 10.4806 25.7305 11.293 27.8582C11.4338 28.2457 11.814 28.4933 12.2254 28.4649ZM21.987 36.2578C22.1002 36.3681 22.1523 36.5266 22.1269 36.6825C22.0722 36.9149 21.8603 37.076 21.6217 37.0666H14.599C14.4769 37.0662 14.3596 37.0177 14.2724 36.9316C13.9766 36.7017 13.7828 36.3647 13.7331 35.9932C13.7378 35.9411 13.7527 35.7819 14.0419 35.5882C14.8353 35.0567 15.1205 35.2616 15.6902 35.6642C15.9016 35.8208 16.1244 35.9611 16.3571 36.0842C17.4574 36.6376 19.6313 35.3889 20.0559 35.1332C20.1967 35.049 20.283 34.8974 20.2832 34.7333C20.2646 33.9382 20.1768 33.1464 20.0211 32.3665C20.5947 32.6576 21.1985 32.8849 21.8219 33.0445C21.6542 33.526 21.5175 34.0179 21.4126 34.5167C21.2863 35.1575 21.5042 35.8176 21.987 36.2574V36.2578ZM27.9403 35.1332C28.3645 35.3889 30.5391 36.6385 31.6394 36.0842C31.872 35.9611 32.0948 35.8208 32.3063 35.6642C32.8756 35.2605 33.1631 35.0576 33.9545 35.5877C34.2438 35.7819 34.2587 35.9411 34.2634 35.9932C34.2149 36.3642 34.0227 36.7013 33.7281 36.932C33.6412 37.0181 33.5239 37.0666 33.4015 37.067H26.379C26.1404 37.0764 25.9287 36.9153 25.8741 36.6829C25.8491 36.5272 25.9012 36.3694 26.0142 36.2591C26.5012 35.8127 26.7195 35.1441 26.5899 34.4962C26.4865 34.0087 26.3521 33.5281 26.1876 33.0575C26.8067 32.9024 27.4069 32.6805 27.9777 32.3953C27.8233 33.1658 27.7355 33.9479 27.715 34.7333C27.715 34.8967 27.8004 35.0482 27.9403 35.1328V35.1332ZM35.1471 16.8143C35.8634 17.3127 37.0651 18.5442 37.0651 21.2006C37.0213 23.3692 36.6037 25.5139 35.8302 27.54C35.493 26.074 35.0773 25.086 34.5951 24.6039C34.4616 24.4706 34.2611 24.4306 34.0868 24.5028C33.9122 24.575 33.7986 24.7451 33.7986 24.9339C33.7986 24.9698 33.7821 28.5941 32.5708 30.8537C32.6417 29.8666 32.5097 28.8755 32.1826 27.9413C33.1907 25.588 33.1236 22.9121 31.9987 20.6123C33.7294 20.1142 34.9786 18.6074 35.1471 16.8143ZM27.1406 10.9915L27.185 10.945C28.8473 12.7372 29.7122 15.1268 29.5826 17.568C28.729 16.8778 27.7545 16.3525 26.7089 16.0186C27.3926 14.4992 27.3343 12.4896 27.1406 10.9915ZM31.96 24.4672C31.9613 26.3224 31.3092 28.1186 30.1181 29.5411L29.2671 28.9735L30.0164 27.4757C30.0487 27.4109 30.0655 27.3394 30.0655 27.267V26.3337C30.0655 26.0761 29.8566 25.8672 29.5988 25.8672C29.3412 25.8672 29.1323 26.0761 29.1323 26.3337V27.157L28.3346 28.7524L27.3016 29.0963L26.541 28.7159C26.3103 28.6008 26.03 28.6943 25.9146 28.925C25.7995 29.1557 25.8931 29.436 26.1238 29.5513L27.057 30.0178C27.1218 30.0501 27.1933 30.067 27.2655 30.067C27.3157 30.067 27.3655 30.0586 27.4131 30.0426L28.5965 29.6483L29.4649 30.2274C29.1526 30.526 28.8163 30.7988 28.4598 31.0432C28.4171 31.0609 28.3774 31.085 28.3421 31.115C25.2687 33.1233 21.2161 32.7469 18.5652 30.2069L19.4019 29.647L20.5853 30.0411C20.6327 30.0578 20.6825 30.0666 20.7327 30.067C20.8049 30.0676 20.8762 30.0518 20.9411 30.0202L21.8746 29.5537C22.1051 29.4383 22.1987 29.1581 22.0835 28.9274C21.9684 28.6967 21.6879 28.6031 21.4574 28.7182L20.6968 29.0987L19.6635 28.7548L18.8661 27.157V26.3337C18.8661 26.0761 18.6572 25.8672 18.3994 25.8672C18.1418 25.8672 17.9329 26.0761 17.9329 26.3337V27.267C17.9327 27.3394 17.9495 27.4109 17.9818 27.4757L18.7313 28.9735L17.9147 29.5182C15.3409 26.4138 15.515 21.8703 18.3186 18.972C18.3631 18.9387 18.4011 18.8977 18.4308 18.8507C20.7002 16.586 24.1101 15.911 27.0714 17.1401C30.0324 18.3694 31.9618 21.2611 31.96 24.4672ZM20.8222 10.9347L20.8576 10.9902C20.6637 12.4988 20.6071 14.5176 21.2992 16.0336C20.2493 16.3741 19.2722 16.9081 18.4186 17.6077C18.2796 15.149 19.1472 12.7397 20.8222 10.9347ZM12.8464 16.8344C13.0256 18.6399 14.2991 20.148 16.049 20.6273C14.9406 22.9044 14.8675 25.5489 15.8482 27.8839C15.4909 28.8276 15.346 29.8386 15.4238 30.8447C14.216 28.5941 14.1998 24.9698 14.1998 24.9339C14.1996 24.7451 14.0859 24.575 13.9116 24.5028C13.7373 24.4306 13.5365 24.4706 13.4032 24.6039C12.9211 25.086 12.5052 26.074 12.1684 27.534C11.394 25.51 10.976 23.3673 10.9333 21.2006C10.9333 18.5442 12.1348 17.3127 12.8464 16.8344Z" fill="white"/>
</svg>
