<svg width="48" height="48" viewBox="0 0 48 48" fill="none" xmlns="http://www.w3.org/2000/svg">
<circle cx="24" cy="24" r="24" fill="#A409DA"/>
<path d="M18.8706 23.0694C21.4996 23.0694 23.5386 20.1085 23.5386 17.5612C23.5386 15.5222 21.3573 13.7335 18.8706 13.7335C16.2926 13.7335 14.2026 15.8234 14.2026 18.4015C14.2026 20.9795 16.2926 23.0694 18.8706 23.0694ZM18.8706 14.6671C21.0081 14.6671 22.605 16.1949 22.605 17.5612C22.605 19.6333 20.9395 22.1358 18.8706 22.1358C16.8082 22.1358 15.1362 20.4639 15.1362 18.4015C15.1362 16.339 16.8082 14.6671 18.8706 14.6671Z" fill="white"/>
<path d="M19.8042 19.335C20.8354 19.335 21.6714 18.4991 21.6714 17.4678C21.6714 16.4366 20.8354 15.6006 19.8042 15.6006C18.773 15.6006 17.937 16.4366 17.937 17.4678C17.937 18.4991 18.773 19.335 19.8042 19.335ZM19.8042 16.5342C20.3198 16.5342 20.7378 16.9522 20.7378 17.4678C20.7378 17.9835 20.3198 18.4014 19.8042 18.4014C19.2886 18.4014 18.8706 17.9835 18.8706 17.4678C18.8706 16.9522 19.2886 16.5342 19.8042 16.5342Z" fill="white"/>
<path d="M29.1402 23.0694C31.7182 23.0694 33.8082 20.9795 33.8082 18.4015C33.8082 15.8234 31.7182 13.7335 29.1402 13.7335C26.6535 13.7335 24.4722 15.5222 24.4722 17.5612C24.4722 20.1085 26.5111 23.0694 29.1402 23.0694ZM29.1402 14.6671C31.2026 14.6671 32.8746 16.339 32.8746 18.4015C32.8746 20.4639 31.2026 22.1358 29.1402 22.1358C27.0713 22.1358 25.4058 19.6333 25.4058 17.5612C25.4058 16.1949 27.0027 14.6671 29.1402 14.6671Z" fill="white"/>
<path d="M30.0737 17.4678C30.0737 16.4366 29.2378 15.6006 28.2066 15.6006C27.1753 15.6006 26.3394 16.4366 26.3394 17.4678C26.3394 18.4991 27.1753 19.335 28.2066 19.335C29.2378 19.335 30.0737 18.4991 30.0737 17.4678ZM27.273 17.4678C27.273 16.9522 27.6909 16.5342 28.2066 16.5342C28.7222 16.5342 29.1402 16.9522 29.1402 17.4678C29.1402 17.9835 28.7222 18.4014 28.2066 18.4014C27.6909 18.4014 27.273 17.9835 27.273 17.4678Z" fill="white"/>
<path d="M34.1439 22.4374C33.1314 23.5451 30.4683 25.4034 24.0055 25.4034C17.5426 25.4034 14.8796 23.5451 13.8671 22.4374C13.6089 22.1549 13.2045 22.0586 12.8468 22.1944C12.489 22.3301 12.2503 22.6705 12.2445 23.0531C12.2179 25.0967 12.574 28.9348 15.2656 31.6595C17.2836 33.7031 20.2244 34.7394 24.0055 34.7394C27.7866 34.7394 30.7274 33.7031 32.7454 31.6585C35.4369 28.9315 35.7931 25.0958 35.7665 23.0522C35.7607 22.6695 35.522 22.3292 35.1642 22.1935C34.8064 22.0577 34.4021 22.154 34.1439 22.4364V22.4374ZM30.8842 27.9536C30.789 28.1282 30.5966 28.2267 30.3992 28.2019C30.2111 28.1867 30.0522 28.0565 30.0001 27.8751C29.8129 27.1722 29.5348 26.4966 29.173 25.8656C29.9552 25.7077 30.7236 25.4879 31.471 25.2083C31.5141 26.1586 31.3121 27.104 30.8842 27.9536ZM16.54 25.2088C17.2875 25.488 18.0559 25.7076 18.838 25.8656C18.476 26.4974 18.1977 27.1737 18.0104 27.8775C17.9575 28.0577 17.7989 28.1866 17.6117 28.2014C17.4143 28.2268 17.2216 28.1281 17.1267 27.9531C16.699 27.1038 16.4969 26.1587 16.54 25.2088ZM18.6742 32.8339C19.4164 30.914 21.5445 29.6046 24.0055 29.6046C26.4664 29.6046 28.5946 30.914 29.3368 32.8339C27.6439 33.5156 25.8301 33.8463 24.0055 33.8058C22.1809 33.8463 20.3671 33.5156 18.6742 32.8339ZM32.0811 31.005C31.5172 31.5672 30.8753 32.0453 30.1752 32.4246C29.2691 30.1886 26.8212 28.671 24.0055 28.671C21.1898 28.671 18.7419 30.1886 17.8363 32.4236C17.136 32.0447 16.4939 31.567 15.9299 31.005C13.4768 28.5193 13.1524 24.9642 13.1757 23.0694C13.8725 23.8045 14.7038 24.3993 15.6246 24.8213C15.5126 26.0513 15.7477 27.2879 16.3033 28.3909C16.5486 28.853 17.0302 29.1407 17.5534 29.1378C17.6062 29.1378 17.6591 29.135 17.7116 29.1294C18.2787 29.0746 18.7542 28.6777 18.9094 28.1295C19.0971 27.3878 19.4072 26.6825 19.8272 26.0429C21.2104 26.2471 22.6073 26.3454 24.0055 26.337C25.4037 26.3456 26.8005 26.2474 28.1838 26.0434C28.6035 26.6826 28.9136 27.3874 29.1015 28.1286C29.2562 28.6774 29.7318 29.075 30.2993 29.1299C30.3519 29.1355 30.4047 29.1383 30.4576 29.1383C30.9809 29.1411 31.4624 28.8532 31.7077 28.3909C32.2621 27.2869 32.4957 26.0496 32.3822 24.8195C33.3046 24.3973 34.1373 23.8019 34.8352 23.0657C34.8581 24.9632 34.5337 28.5184 32.0811 31.005Z" fill="white"/>
<path d="M37.5428 16.5016C37.7045 16.5021 37.8549 16.419 37.9405 16.2818C38.026 16.1446 38.0345 15.9729 37.9629 15.828C36.6913 13.2526 34.7779 12.6962 33.5283 12.6397C33.9748 12.1697 34.567 11.8643 35.2088 11.7729C35.4247 11.7727 35.6123 11.6244 35.6624 11.4143C35.7124 11.2043 35.6119 10.9873 35.4193 10.8897C33.2213 9.77289 30.6374 9.70432 28.3832 10.703C25.5394 9.76984 22.4718 9.76984 19.628 10.703C17.3738 9.70412 14.7899 9.77269 12.5919 10.8897C12.4024 10.9871 12.3029 11.2005 12.3501 11.4083C12.3985 11.6173 12.5819 11.7671 12.7964 11.7729C13.4404 11.8626 14.035 12.1682 14.4829 12.6397C13.2351 12.6967 11.3217 13.2526 10.0483 15.828C9.97668 15.9729 9.98516 16.1446 10.0707 16.2818C10.1563 16.419 10.3067 16.5021 10.4684 16.5016C10.9802 16.513 11.4797 16.6606 11.9155 16.9291C8.47645 22.8127 9.77216 30.3177 14.9849 34.7076C20.1976 39.0975 27.8136 39.0975 33.0263 34.7076C38.239 30.3177 39.5347 22.8127 36.0957 16.9291C36.53 16.6571 37.0304 16.5093 37.5428 16.5016ZM37.076 24.003C37.0739 29.5491 33.5719 34.49 28.3396 36.3291C23.1072 38.1681 17.284 36.5047 13.8124 32.1794C10.3409 27.8542 9.977 21.809 12.9046 17.0986C13.0099 16.9295 12.9962 16.7122 12.8706 16.5576C12.4369 16.0778 11.8534 15.7592 11.2153 15.6538C12.8958 12.9632 15.3656 13.6144 15.4758 13.6466C15.668 13.7005 15.8732 13.6263 15.9864 13.4618C16.0996 13.2974 16.0957 13.0791 15.9767 12.9189C15.4961 12.2389 14.8725 11.6725 14.1496 11.2594C15.8827 10.7234 17.7534 10.8536 19.3955 11.6244C19.4589 11.6552 19.5285 11.6711 19.599 11.6711H19.6051C19.6586 11.6711 19.7116 11.6618 19.7619 11.6436C22.5142 10.7002 25.5022 10.7002 28.2544 11.6436C28.2995 11.6591 28.3467 11.6678 28.3944 11.6692C28.401 11.6692 28.4164 11.6692 28.4122 11.6692C28.4716 11.6694 28.5304 11.6578 28.5854 11.6352C28.5952 11.6314 28.605 11.6272 28.6143 11.6226C30.2572 10.8526 32.1283 10.7231 33.8616 11.2594C33.1387 11.6725 32.5151 12.2389 32.0345 12.9189C31.9154 13.0797 31.9121 13.2987 32.0263 13.4631C32.1405 13.6275 32.3468 13.7008 32.5392 13.6452C32.6503 13.6135 35.1131 12.9417 36.8001 15.6524C36.1611 15.7572 35.5767 16.0758 35.1425 16.5562C35.0169 16.7108 35.0032 16.9281 35.1084 17.0972C36.3982 19.1694 37.08 21.5622 37.076 24.003Z" fill="white"/>
</svg>
